$MeshFormat
2.2 0 8
$EndMeshFormat
$PhysicalNames
3
2 1 "Exterior"
2 2 "SideInterface"
2 3 "RearInterface"
$EndPhysicalNames
$Nodes
325
1 5.8139999999999998e+02 4.4408920985006301e-15 2.0000000000000000e+01
2 5.8139999999999998e+02 2.4650000000000000e+02 1.9999999999999901e+01
3 6.0000000000000000e+02 4.4408920985006301e-15 2.0000000000000000e+01
4 6.0000000000000000e+02 2.6950000000000000e+02 1.9999999999999901e+01
5 0.0000000000000000e+00 2.6950000000000000e+02 1.9999999999999901e+01
6 0.0000000000000000e+00 2.4650000000000000e+02 1.9999999999999901e+01
7 4.4084852813742401e+02 0.0000000000000000e+00 0.0000000000000000e+00
8 4.4084852813742401e+02 2.4650000000000000e+02 -5.4650728387173299e-14
9 6.0000000000000000e+02 -1.7319479184152399e-13 -7.8000000000000000e+02
10 6.0000000000000000e+02 2.6950000000000000e+02 -7.8000000000000000e+02
11 0.0000000000000000e+00 -1.7319479184152399e-13 -7.8000000000000000e+02
12 0.0000000000000000e+00 2.6950000000000000e+02 -7.8000000000000000e+02
13 5.8139999999999998e+02 2.4480090873840501e-14 -4.9751471862576203e+01
14 5.8139999999999998e+02 2.4650000000000000e+02 -4.9751471862576203e+01
15 1.4235655361504899e+02 2.4650000000000000e+02 -5.4733995114020199e-14
16 1.4235655361504899e+02 0.0000000000000000e+00 0.0000000000000000e+00
17 0.0000000000000000e+00 2.4650000000000000e+02 -5.4733995114020199e-14
18 4.9060000000000002e+02 2.4650000000000000e+02 -4.9751471862576203e+01
19 4.9060000000000002e+02 2.4480090873840501e-14 -4.9751471862576203e+01
20 5.8139999999999998e+02 1.9719999205191149e+02 1.9999999999999950e+01
21 5.8139999999999998e+02 1.4790002703809549e+02 1.9999999999999961e+01
22 5.8139999999999998e+02 9.8600073402404519e+01 1.9999999999999979e+01
23 5.8139999999999998e+02 4.9300108385965657e+01 1.9999999999999989e+01
24 6.0000000000000000e+02 5.3869200749566971e+01 2.0000000000000028e+01
25 6.0000000000000000e+02 1.0773825092162400e+02 2.0000000000000021e+01
26 6.0000000000000000e+02 1.6160732851780051e+02 2.0000000000000000e+01
27 6.0000000000000000e+02 2.1547639283438221e+02 1.9999999999999989e+01
28 4.3177213626148500e+01 2.6950000000000000e+02 1.9999999999999901e+01
29 8.6354353547475171e+01 2.6950000000000000e+02 1.9999999999999901e+01
30 1.2953149262161040e+02 2.6950000000000000e+02 1.9999999999999901e+01
31 1.7366576563955931e+02 2.6950000000000000e+02 1.9999999999999901e+01
32 2.2593379240002940e+02 2.6950000000000000e+02 1.9999999999999901e+01
33 2.9232392281201783e+02 2.6950000000000000e+02 1.9999999999999901e+01
34 3.7018809237771552e+02 2.6950000000000000e+02 1.9999999999999901e+01
35 4.3526196167417470e+02 2.6950000000000000e+02 1.9999999999999901e+01
36 4.9127745693402932e+02 2.6950000000000000e+02 1.9999999999999901e+01
37 5.4559917550596367e+02 2.6950000000000000e+02 1.9999999999999901e+01
38 4.0552858847152947e+01 2.4650000000000000e+02 1.9999999999999901e+01
39 8.1105606526773670e+01 2.4650000000000000e+02 1.9999999999999901e+01
40 1.2165836450917080e+02 2.4650000000000000e+02 1.9999999999999901e+01
41 1.6260707225913910e+02 2.4650000000000000e+02 1.9999999999999901e+01
42 2.1046782575743649e+02 2.4650000000000000e+02 1.9999999999999901e+01
43 2.7170542864908600e+02 2.4650000000000000e+02 1.9999999999999901e+01
44 3.4868819277248042e+02 2.4650000000000000e+02 1.9999999999999901e+01
45 4.1724607555997437e+02 2.4650000000000000e+02 1.9999999999999901e+01
46 4.7437418049597687e+02 2.4650000000000000e+02 1.9999999999999901e+01
47 5.2791313865404913e+02 2.4650000000000000e+02 1.9999999999999901e+01
48 4.4084852813742401e+02 4.9300087282806658e+01 -1.0946818403480350e-14
49 4.4084852813742401e+02 9.8600032840120775e+01 -2.1893605337579699e-14
50 4.4084852813742401e+02 1.4789996715987900e+02 -3.2840389776440399e-14
51 4.4084852813742401e+02 1.9719991271719351e+02 -4.3787176710539828e-14
52 6.0000000000000000e+02 -5.9375106023704304e-15 -2.6740170536343779e+01
53 6.0000000000000000e+02 -1.4775484540325989e-14 -6.6542866670030648e+01
54 6.0000000000000000e+02 -2.4806468545484810e-14 -1.1171840249782340e+02
55 6.0000000000000000e+02 -3.7533084404266802e-14 -1.6903398493712149e+02
56 6.0000000000000000e+02 -5.3851805627449307e-14 -2.4252697175700939e+02
57 6.0000000000000000e+02 -7.4821280103206988e-14 -3.3696508919218689e+02
58 6.0000000000000000e+02 -1.0178577331908240e-13 -4.5840237079143782e+02
59 6.0000000000000000e+02 -1.3620848299064821e-13 -6.1342847324138438e+02
60 6.0000000000000000e+02 1.3474999999999969e+02 -7.8000000000000011e+02
61 6.0000000000000000e+02 2.6950000000000023e+02 -2.7309628447922481e+01
62 6.0000000000000000e+02 2.6950000000000023e+02 -6.9033185609150337e+01
63 6.0000000000000000e+02 2.6950000000000023e+02 -1.1565557882570950e+02
64 6.0000000000000000e+02 2.6950000000000011e+02 -1.7379917988764240e+02
65 6.0000000000000000e+02 2.6950000000000011e+02 -2.4772112858576011e+02
66 6.0000000000000000e+02 2.6950000000000011e+02 -3.4214479911161118e+02
67 6.0000000000000000e+02 2.6950000000000011e+02 -4.6295222032562128e+02
68 6.0000000000000000e+02 2.6950000000000011e+02 -6.1623655782210415e+02
69 4.4999999999999989e+02 -1.7319479184152399e-13 -7.8000000000000000e+02
70 2.9999999999999932e+02 -1.7319479184152399e-13 -7.8000000000000000e+02
71 1.4999999999999940e+02 -1.7319479184152399e-13 -7.8000000000000000e+02
72 0.0000000000000000e+00 1.3474999999999969e+02 -7.8000000000000011e+02
73 4.4999999999999977e+02 2.6950000000000000e+02 -7.8000000000000000e+02
74 2.9999999999999932e+02 2.6950000000000000e+02 -7.8000000000000000e+02
75 1.4999999999999940e+02 2.6950000000000000e+02 -7.8000000000000000e+02
76 0.0000000000000000e+00 2.6949999999999989e+02 -6.0960970715627252e+02
77 0.0000000000000000e+00 2.6950000000000000e+02 -4.4448566782368499e+02
78 0.0000000000000000e+00 2.6950000000000000e+02 -3.1241882000110189e+02
79 0.0000000000000000e+00 2.6950000000000011e+02 -2.1028895956018650e+02
80 0.0000000000000000e+00 2.6950000000000011e+02 -1.3123924016539110e+02
81 0.0000000000000000e+00 2.6950000000000011e+02 -6.9891723504818970e+01
82 0.0000000000000000e+00 2.6950000000000011e+02 -2.1718561456992010e+01
83 5.8139999999999998e+02 3.1431119358144522e-14 -1.8446822570822551e+01
84 5.8139999999999998e+02 2.4650000000000000e+02 -1.8467828944494070e+01
85 5.8139999999999998e+02 3.5214285714285609e+01 -4.9751471862576167e+01
86 5.8139999999999998e+02 7.0428571428571217e+01 -4.9751471862576167e+01
87 5.8139999999999998e+02 1.0564285714285680e+02 -4.9751471862576182e+01
88 5.8139999999999998e+02 1.4085714285714241e+02 -4.9751471862576189e+01
89 5.8139999999999998e+02 1.7607142857142821e+02 -4.9751471862576203e+01
90 5.8139999999999998e+02 2.1128571428571411e+02 -4.9751471862576203e+01
91 3.8064250450550549e+02 2.4650000000000000e+02 -5.4400928206632702e-14
92 3.0510622179566047e+02 2.4650000000000000e+02 -5.4400928206632702e-14
93 2.3620583287239580e+02 2.4650000000000000e+02 -5.4400928206632702e-14
94 1.8319028891896389e+02 2.4650000000000000e+02 -5.4400928206632702e-14
95 1.4235655361504899e+02 2.1128571428571439e+02 -4.6914852954874432e-14
96 1.4235655361504899e+02 1.7607142857142881e+02 -3.9095710795728723e-14
97 1.4235655361504899e+02 1.4085714285714320e+02 -3.1276568636583020e-14
98 1.4235655361504899e+02 1.0564285714285759e+02 -2.3457426477437311e-14
99 1.4235655361504899e+02 7.0428571428571743e+01 -1.5638284318291538e-14
100 1.4235655361504899e+02 3.5214285714285893e+01 -7.8191421591457756e-15
101 1.8319028900986891e+02 3.5527136788005003e-14 -7.8886090522101195e-30
102 2.3620583296096379e+02 3.5527136788005003e-14 -7.8886090522101195e-30
103 3.0510622187241609e+02 3.5527136788005003e-14 -7.8886090522101195e-30
104 3.8064250453849007e+02 3.5527136788005003e-14 -7.8886090522101195e-30
105 1.0676741521128660e+02 2.4650000000000000e+02 -5.4733995114020199e-14
106 7.1178276807524298e+01 2.4650000000000000e+02 -5.4733995114020199e-14
107 3.5589138403762213e+01 2.4650000000000000e+02 -5.4733995114020199e-14
108 4.6829006111078462e+02 2.4650000000000000e+02 -2.7441532973360651e+01
109 5.2086666666666667e+02 2.4650000000000000e+02 -4.9751471862576203e+01
110 5.5113333333333321e+02 2.4650000000000000e+02 -4.9751471862576203e+01
111 4.6828962362807522e+02 -6.0931472069317434e-15 -2.7441095490651289e+01
112 4.9060000000000002e+02 3.5214285714285609e+01 -4.9751471862576167e+01
113 4.9060000000000002e+02 7.0428571428571217e+01 -4.9751471862576167e+01
114 4.9060000000000002e+02 1.0564285714285680e+02 -4.9751471862576182e+01
115 4.9060000000000002e+02 1.4085714285714241e+02 -4.9751471862576189e+01
116 4.9060000000000002e+02 1.7607142857142821e+02 -4.9751471862576203e+01
117 4.9060000000000002e+02 2.1128571428571411e+02 -4.9751471862576203e+01
118 5.8139999999999998e+02 1.2325000435758071e+02 -1.3627986587856970e+01
119 5.8139999999999998e+02 2.1029569059322739e+02 -1.4908231606943669e+01
120 5.8139999999999998e+02 3.6206148216362237e+01 -1.4907416113414641e+01
121 5.8139999999999998e+02 8.0571293822290158e+01 -1.4673057737737340e+01
122 5.8139999999999998e+02 1.6592904757823089e+02 -1.4673193653325519e+01
123 5.8139999999999998e+02 2.2889285714285691e+02 -3.4109650403535127e+01
124 5.8139999999999998e+02 1.7607142857142890e+01 -3.4099147216699393e+01
125 2.0932518118325330e+01 2.5800000000000000e+02 1.9999999999999979e+01
126 2.8753412785353430e+02 1.2325000001615651e+02 -2.7366997560597539e-14
127 2.1342781546488879e+02 6.2971007222058169e+01 -1.3982372420353182e-14
128 2.1342781542842889e+02 1.8352899280773741e+02 -4.0751622700282903e-14
129 3.4877201781342188e+02 1.2325000000518020e+02 -2.7366997558160309e-14
130 2.0119895387634591e+02 1.2325000000000040e+02 -2.7366997557010169e-14
131 2.6904074679598119e+02 5.2008556266789498e+01 -1.1548219328980519e-14
132 2.6904074674763052e+02 1.9449144375777519e+02 -4.3185775790494069e-14
133 3.7881970238467562e+02 6.3638337866122868e+01 -1.4130549589568892e-14
134 3.7881970238519159e+02 1.8286166213328829e+02 -4.0603445524320487e-14
135 1.7997633977687471e+02 8.9028078678133426e+01 -1.9768204557320708e-14
136 1.7997633976941981e+02 1.5747192132790099e+02 -3.4965790558039342e-14
137 1.7509812412828941e+02 5.0138498990938807e+01 -1.1132983199977069e-14
138 1.7509812409843880e+02 1.9636150102359881e+02 -4.3601011917271058e-14
139 3.2540819159007231e+02 1.6791792598493390e+02 -3.7285269535155240e-14
140 3.2540819161061319e+02 7.8582074024676103e+01 -1.7448725580998751e-14
141 3.9762169577162740e+02 1.2325000000091821e+02 -2.7366997557213960e-14
142 1.6917294813054789e+02 1.2325000000120710e+02 -2.7366997557278110e-14
143 2.0889752057516890e+02 2.6850205849492909e+01 -5.9619433500064113e-15
144 2.0889752049405831e+02 2.1964979419151220e+02 -4.8772051773118713e-14
145 3.4287436315058318e+02 2.1573652401226920e+02 -4.7903131242203782e-14
146 3.4287436320545282e+02 3.0763475969131431e+01 -6.8308638676864714e-15
147 4.1074551632146381e+02 2.2184995635859659e+02 -4.9260585912279972e-14
148 4.1074551633795659e+02 2.4650043641403329e+01 -5.4734092017401760e-15
149 2.3487956555302239e+02 1.4955252920143579e+02 -3.3207332262071980e-14
150 2.3487956555302250e+02 9.6947470884664455e+01 -2.1526662871066260e-14
151 1.7037980818868519e+02 2.2440598110943512e+01 -4.9828137418258496e-15
152 1.7037980814831181e+02 2.2405940190016511e+02 -4.9751181374660902e-14
153 4.9885879298380661e+02 2.4650000000000000e+02 -1.4724628211643520e+01
154 1.9035499312728831e+01 2.4650000000000000e+02 9.9999999999999165e+00
155 5.4683408547207455e+02 2.4650000000000000e+02 -1.8115007326403621e+01
156 4.6801907019877717e+02 2.4650000000000000e+02 -4.2732204362239372e+00
157 5.6519185470135187e+02 2.4650000000000000e+02 -3.4021444999012523e+01
158 4.6486739014811923e+02 1.2324999999999980e+02 -2.4018862010695361e+01
159 4.6579177343407582e+02 2.1010857159118800e+02 -2.4943245296652020e+01
160 4.6579175661456497e+02 3.6391481978536433e+01 -2.4943228477141169e+01
161 4.6559270050625543e+02 8.0602171778815318e+01 -2.4744172368831510e+01
162 4.6559270330950721e+02 1.6589783714947191e+02 -2.4744175172083331e+01
163 4.7944503055539229e+02 2.2889285714285680e+02 -3.8596502417968452e+01
164 4.7944481181403762e+02 1.7607142857142829e+01 -3.8596283676613751e+01
165 6.0000000000000000e+02 1.3467371579654849e+02 -1.0495713021487580e+02
166 6.0000000000000000e+02 1.3471650606763521e+02 -2.4686189041570179e+02
167 6.0000000000000000e+02 7.2858980995101604e+01 -5.6308504513795818e+01
168 6.0000000000000000e+02 1.9679955236286730e+02 -5.8453103214393309e+01
169 6.0000000000000000e+02 1.3540313087188500e+02 -3.6189458558721282e+02
170 6.0000000000000000e+02 6.7357711491308805e+01 -1.2285892495918280e+02
171 6.0000000000000000e+02 2.0189786615358480e+02 -1.2285654422746160e+02
172 6.0000000000000000e+02 1.3480059420962149e+02 -3.1061067033219889e+01
173 6.0000000000000000e+02 6.7145181337768918e+01 -1.9184410051516170e+02
174 6.0000000000000000e+02 2.0168803642058489e+02 -1.9438045670870389e+02
175 6.0000000000000000e+02 1.3202405961000181e+02 -4.9652378355662802e+02
176 6.0000000000000000e+02 3.4225629283072642e+01 -4.5679115152905332e+01
177 6.0000000000000000e+02 2.3524206687147301e+02 -4.7467154115647517e+01
178 6.0000000000000000e+02 4.1762278557852987e+01 -9.0747119906188857e+01
179 6.0000000000000000e+02 1.3456099710850069e+02 -1.8472805277132480e+02
180 6.0000000000000000e+02 2.0423344443365590e+02 -2.9925856168793428e+02
181 6.0000000000000000e+02 6.5086633148251678e+01 -2.9629606124318082e+02
182 6.0000000000000000e+02 2.2783433370398069e+02 -9.2799735565924195e+01
183 6.0000000000000000e+02 1.5629044485610581e+02 -6.1826805151213676e+01
184 6.0000000000000000e+02 1.7296461142057609e+02 -1.9173866780744490e+01
185 6.0000000000000000e+02 9.7043722218234791e+01 -1.9222942267046840e+01
186 6.0000000000000000e+02 1.1395012601272001e+02 -6.0853713502043917e+01
187 6.0000000000000000e+02 3.1056496882285959e+01 -1.1132096453004770e+01
188 6.0000000000000000e+02 2.3773279529429911e+02 -1.1753214103177880e+01
189 6.0000000000000000e+02 1.1394137215407810e+02 -6.5904382097483551e+02
190 6.0000000000000000e+02 8.8033298000707816e+01 -9.1745831832111548e+01
191 6.0000000000000000e+02 5.7810806025652433e+01 -2.2468531677350551e+01
192 6.0000000000000000e+02 2.3841213261644330e+02 -1.4472737935667601e+02
193 6.0000000000000000e+02 2.9860330134780330e+01 -1.4037619371747249e+02
194 6.0000000000000000e+02 1.8021683407495189e+02 -9.7761351037690829e+01
195 6.0000000000000000e+02 2.1041329348915670e+02 -2.4467300534868471e+01
196 6.0000000000000000e+02 1.5974793661567671e+02 -1.4159376055413949e+02
197 6.0000000000000000e+02 1.0545017013988981e+02 -1.4487902836478011e+02
198 6.0000000000000000e+02 2.1005186122334561e+02 -3.9890648360170121e+02
199 6.0000000000000000e+02 5.8082890274687323e+01 -3.9488950553201528e+02
200 2.3172502314814761e+02 1.3047816171923299e+02 -7.8000000000000011e+02
201 3.9223572751322718e+02 1.3987654055128530e+02 -7.8000000000000011e+02
202 1.1249999999999970e+02 1.0911897031539840e+02 -7.8000000000000011e+02
203 4.9786168608373032e+02 1.0309300332434660e+02 -7.8000000000000011e+02
204 5.1881176483942829e+02 1.9528057899968161e+02 -7.8000000000000011e+02
205 2.5912885760602359e+02 2.6950000000000011e+02 -2.3854226275742161e+02
206 4.4148012316704308e+02 2.6950000000000011e+02 -1.4673084798265731e+02
207 1.5491426709391990e+02 2.6950000000000011e+02 -1.3480846041908521e+02
208 3.2758789493895682e+02 2.6950000000000000e+02 -5.0564615053959659e+02
209 4.0460978289488258e+02 2.6950000000000000e+02 -3.1685926374088979e+02
210 2.6141307834774977e+02 2.6950000000000011e+02 -9.1386342290414575e+01
211 5.0344323793433307e+02 2.6950000000000011e+02 -7.1424487678513742e+01
212 8.9157259611149414e+01 2.6950000000000011e+02 -6.6977919188869578e+01
213 1.0610511182547920e+02 2.6950000000000000e+02 -2.8218253193489119e+02
214 4.2880390697066269e+02 2.6950000000000011e+02 -6.5165210956621308e+01
215 5.3164230533778357e+02 2.6950000000000011e+02 -1.4943357428877110e+02
216 1.5192026707553160e+02 2.6950000000000011e+02 -4.7513941870712422e+01
217 3.4123133414162533e+02 2.6950000000000011e+02 -1.0963421729104979e+02
218 4.8532520431431550e+02 2.6950000000000000e+02 -2.5302427757134322e+02
219 3.5394072394195638e+02 2.6950000000000011e+02 -2.3107199038746731e+02
220 1.9849001718137330e+02 2.6950000000000000e+02 -4.4692154247796032e+02
221 5.5052517109101643e+02 2.6950000000000011e+02 -4.8171407028536407e+01
222 9.8162914525478783e+01 2.6950000000000011e+02 -1.3940421481692999e+02
223 1.8061195095534069e+02 2.6949999999999989e+02 -6.0516215560487240e+02
224 5.2439444424223623e+01 2.6950000000000011e+02 -4.6637589289066511e+01
225 4.6840479638272188e+02 2.6950000000000011e+02 -3.1557332745480782e+01
226 3.3052584065181378e+02 2.6950000000000011e+02 -4.0106283403194993e+01
227 2.9550936214962940e+02 2.6950000000000000e+02 -3.7179590522211129e+02
228 2.1553322728922200e+02 2.6950000000000011e+02 -4.3090480751495988e+01
229 1.1430669044071119e+02 2.6950000000000011e+02 -1.5355550001886680e+01
230 4.5542011430612672e+02 2.6950000000000000e+02 -4.5468064054304688e+02
231 5.5060510664820958e+02 2.6950000000000011e+02 -1.0236397664778769e+02
232 4.4075152928122083e+02 2.6949999999999989e+02 -6.1770065002398087e+02
233 5.1858050968399539e+02 2.6950000000000011e+02 -2.0664393748091811e+01
234 5.4506147274517411e+02 2.6950000000000011e+02 -2.0345433417805521e+02
235 2.2035663604855941e+02 2.6950000000000011e+02 -1.5479476979423879e+02
236 5.0989879078251988e+02 2.6950000000000000e+02 -3.2860747664498820e+02
237 4.5831387383640038e+02 2.6950000000000011e+02 -9.7882485407061836e+01
238 4.1995633410150177e+01 2.6950000000000011e+02 -9.5817132758395815e+01
239 1.8786575658221849e+02 2.6950000000000011e+02 -9.1367180052685399e+01
240 1.0045506551455750e+02 2.6950000000000000e+02 -3.8797003600723559e+02
241 2.0611678692392701e+02 2.6950000000000000e+02 -3.1722909152852873e+02
242 2.6718747483143773e+02 2.6950000000000011e+02 -2.8910552713850048e+01
243 4.0157534066873620e+02 2.6950000000000011e+02 -2.4575607720823481e+01
244 4.8785215506429540e+02 2.6950000000000011e+02 -1.7959051930821451e+02
245 5.6477884923946192e+02 2.6950000000000011e+02 -1.2877773746183721e+01
246 1.6365774515815829e+02 2.6950000000000011e+02 -2.0106961595267799e+02
247 2.9996182254041099e+02 2.6950000000000011e+02 -1.7315834494297420e+02
248 4.2675847553022669e+02 2.6950000000000011e+02 -2.0679785808130339e+02
249 7.0642842660676081e+01 2.6950000000000011e+02 -2.1495405611775729e+02
250 4.9592448098654961e+02 2.6950000000000011e+02 -1.2272276527454549e+02
251 1.3508546070724259e+02 2.6950000000000011e+02 -9.3446406311654641e+01
252 3.0903237437456329e+02 2.6949999999999989e+02 -6.4565124570257467e+02
253 9.2426172275211869e+01 2.6949999999999989e+02 -5.3149232710802698e+02
254 1.8338910867565460e+02 2.6950000000000011e+02 -1.6280966151720921e+01
255 4.0447902846898279e+02 2.6950000000000011e+02 -1.0907160224059091e+02
256 3.7956424635602121e+02 2.6950000000000011e+02 -1.6372389170798959e+02
257 5.4044608177697148e+02 2.6950000000000000e+02 -4.1901093501948043e+02
258 5.2808960141978116e+02 2.6949999999999989e+02 -5.3959438907386277e+02
259 1.5056266489061341e+02 2.6950000000000011e+02 -7.8300916048640383e+00
260 5.2499999999999989e+02 2.6949999999999989e+02 -6.9811827891105213e+02
261 7.1428199803115490e+01 2.6950000000000011e+02 -1.4918477406268380e+01
262 7.4999999999999730e+01 2.6949999999999989e+02 -6.9480485357813632e+02
263 3.7260655196170052e+02 2.6950000000000000e+02 -4.1209181666590359e+02
264 5.7013508012985790e+02 2.6950000000000011e+02 -1.4582430496291221e+02
265 2.9720312262051959e+01 2.6950000000000011e+02 -1.0246379541713850e+01
266 5.4213242821207143e+02 2.6950000000000000e+02 -2.7388718083828468e+02
267 3.7350819869802780e+02 2.6950000000000011e+02 -6.8843589547375984e+01
268 3.1947134903226799e+02 2.6950000000000000e+02 -2.9212174634740239e+02
269 4.6936783704748967e+02 2.6950000000000011e+02 -6.6044617463058898e+01
270 2.1948925460769949e+01 2.6950000000000011e+02 -4.5805142480905538e+01
271 3.2260889849429518e+01 2.6950000000000011e+02 -1.7076409986278890e+02
272 0.0000000000000000e+00 0.0000000000000000e+00 0.0000000000000000e+00
273 3.5589138403762213e+01 3.5527136788005003e-14 -7.8886090522101195e-30
274 7.1178276807524298e+01 3.5527136788005003e-14 -7.8886090522101195e-30
275 1.0676741521128660e+02 3.5527136788005003e-14 -7.8886090522101195e-30
276 0.0000000000000000e+00 2.1128571428571439e+02 -4.6914852954874502e-14
277 0.0000000000000000e+00 1.7607142857142881e+02 -3.9095710795728793e-14
278 0.0000000000000000e+00 1.4085714285714320e+02 -3.1276568636583077e-14
279 0.0000000000000000e+00 1.0564285714285759e+02 -2.3457426477437380e-14
280 0.0000000000000000e+00 7.0428571428571757e+01 -1.5638284318291611e-14
281 0.0000000000000000e+00 3.5214285714285893e+01 -7.8191421591458387e-15
282 1.1351097440642179e+02 1.5423391468951351e+02 -3.4246808653273947e-14
283 2.8845579208627210e+01 9.2266085310487085e+01 -2.0487186460746311e-14
284 3.0496466004694749e+01 1.5846428571428601e+02 -3.5186139716155868e-14
285 1.1186008761035420e+02 8.8035714285714675e+01 -1.9547855397864422e-14
286 5.3481112708421961e+01 2.8530540197075482e+01 -6.3350525263573383e-15
287 5.3481112708421733e+01 2.1796945980292449e+02 -4.8398942587662798e-14
288 8.8891675090423405e+01 2.8148780570511800e+01 -6.2502848609006782e-15
289 7.1178276807525322e+01 6.1998012492697683e+01 -1.3766324190078190e-14
290 8.8891675090423405e+01 2.1835121942948840e+02 -4.8483710253119501e-14
291 7.1178276807524298e+01 1.8450198750730200e+02 -4.0967670923941872e-14
292 1.1295348206958511e+02 1.2116642509673440e+02 -2.6904350990782760e-14
293 8.2242908091092431e+01 1.0223603907147491e+02 -2.2700960904725679e-14
294 2.9403071545463941e+01 1.2533357490326630e+02 -2.7829644123237546e-14
295 6.0113645523956620e+01 1.4426396092852559e+02 -3.2033034209294580e-14
296 1.1222552589581480e+02 5.1561344442275129e+01 -1.1448918356088421e-14
297 1.0835831190017380e+02 1.8919454901988519e+02 -4.2009628891089813e-14
298 3.0133733416533691e+01 1.9487502895329791e+02 -4.3270948813689022e-14
299 3.4000560883989237e+01 5.7359988069624222e+01 -1.2736475889424201e-14
300 5.4334065701952341e+01 8.5554812096392908e+01 -1.8996984451378831e-14
301 8.8022951746919716e+01 1.6095609532150920e+02 -3.5739432595940133e-14
302 2.5646544978561678e+01 2.5542702161868700e+01 -5.6716192102498731e-15
303 1.1671000863648780e+02 2.5542702161868728e+01 -5.6716192102498794e-15
304 2.5646544978561110e+01 2.2095729783813181e+02 -4.9062375903770382e-14
305 1.1671000863648770e+02 2.2095729783813201e+02 -4.9062375903770433e-14
306 8.6953550096521894e+01 1.3258606446231960e+02 -2.9440020302100451e-14
307 5.5403003518527377e+01 1.1391393553768060e+02 -2.5293974811919741e-14
308 5.2086666666666667e+02 -1.1047045914164500e-14 -4.9751471862576203e+01
309 5.5113333333333321e+02 -1.1047045914164500e-14 -4.9751471862576203e+01
310 5.3591761400037365e+02 2.4124856086655772e+01 -4.9751471862576160e+01
311 5.3591761400037353e+02 2.2237514391334409e+02 -4.9751471862576210e+01
312 5.2109646600469478e+02 1.2324999999999970e+02 -4.9751471862576189e+01
313 5.5090353399530522e+02 8.8035714285713993e+01 -4.9751471862576167e+01
314 5.5090353399530511e+02 1.5846428571428530e+02 -4.9751471862576203e+01
315 5.5586998798940522e+02 1.9817929592369711e+02 -4.9751471862576203e+01
316 5.5586998798940544e+02 4.8320704076302547e+01 -4.9751471862576167e+01
317 5.1450642265481736e+02 8.8374159388517512e+01 -4.9751471862576167e+01
318 5.5714070679906104e+02 1.2324999999999960e+02 -4.9751471862576189e+01
319 5.1450642265481724e+02 1.5812584061148189e+02 -4.9751471862576203e+01
320 5.2059012742474783e+02 5.3157919119598432e+01 -4.9751471862576167e+01
321 5.2059012742474783e+02 1.9334208088040111e+02 -4.9751471862576203e+01
322 5.1171488161835765e+02 2.2400058781589189e+02 -4.9751471862576210e+01
323 5.6114418706462243e+02 2.2496803082455111e+02 -4.9751471862576210e+01
324 5.1171488161835777e+02 2.2499412184107939e+01 -4.9751471862576160e+01
325 5.6114418706462243e+02 2.1531969175448751e+01 -4.9751471862576160e+01
$EndNodes
$Elements
599
1 2 2 1 1 119 89 122
2 2 2 1 1 86 120 121
3 2 2 1 1 90 89 119
4 2 2 1 1 86 85 120
5 2 2 1 1 2 84 119
6 2 2 1 1 83 1 120
7 2 2 1 1 20 119 122
8 2 2 1 1 120 23 121
9 2 2 1 1 21 20 122
10 2 2 1 1 23 22 121
11 2 2 1 1 1 23 120
12 2 2 1 1 20 2 119
13 2 2 1 1 88 87 118
14 2 2 1 1 87 86 121
15 2 2 1 1 89 88 122
16 2 2 1 1 22 21 118
17 2 2 1 1 118 87 121
18 2 2 1 1 88 118 122
19 2 2 1 1 14 90 123
20 2 2 1 1 85 13 124
21 2 2 1 1 118 21 122
22 2 2 1 1 22 118 121
23 2 2 1 1 119 84 123
24 2 2 1 1 83 120 124
25 2 2 1 1 13 83 124
26 2 2 1 1 84 14 123
27 2 2 1 1 90 119 123
28 2 2 1 1 120 85 124
29 2 2 1 2 28 125 38
30 2 2 1 2 6 125 5
31 2 2 1 2 2 27 4
32 2 2 1 2 4 37 2
33 2 2 1 2 20 27 2
34 2 2 1 2 2 37 47
35 2 2 1 2 5 125 28
36 2 2 1 2 38 125 6
37 2 2 1 2 21 26 20
38 2 2 1 2 20 26 27
39 2 2 1 2 22 25 21
40 2 2 1 2 25 26 21
41 2 2 1 2 22 24 25
42 2 2 1 2 31 42 32
43 2 2 1 2 32 43 33
44 2 2 1 2 42 43 32
45 2 2 1 2 33 44 34
46 2 2 1 2 43 44 33
47 2 2 1 2 34 45 35
48 2 2 1 2 44 45 34
49 2 2 1 2 35 46 36
50 2 2 1 2 45 46 35
51 2 2 1 2 47 37 36
52 2 2 1 2 36 46 47
53 2 2 1 2 23 1 3
54 2 2 1 2 3 24 23
55 2 2 1 2 23 24 22
56 2 2 1 2 28 39 29
57 2 2 1 2 38 39 28
58 2 2 1 2 29 40 30
59 2 2 1 2 39 40 29
60 2 2 1 2 30 41 31
61 2 2 1 2 40 41 30
62 2 2 1 2 41 42 31
63 2 2 1 3 48 49 133
64 2 2 1 3 50 51 134
65 2 2 1 3 133 49 141
66 2 2 1 3 50 134 141
67 2 2 1 3 129 126 140
68 2 2 1 3 126 129 139
69 2 2 1 3 92 93 132
70 2 2 1 3 102 103 131
71 2 2 1 3 98 99 135
72 2 2 1 3 96 97 136
73 2 2 1 3 132 93 144
74 2 2 1 3 102 131 143
75 2 2 1 3 128 132 144
76 2 2 1 3 131 127 143
77 2 2 1 3 91 92 145
78 2 2 1 3 103 104 146
79 2 2 1 3 143 137 151
80 2 2 1 3 138 144 152
81 2 2 1 3 136 130 149
82 2 2 1 3 130 135 150
83 2 2 1 3 8 91 147
84 2 2 1 3 104 7 148
85 2 2 1 3 126 132 149
86 2 2 1 3 131 126 150
87 2 2 1 3 93 94 144
88 2 2 1 3 101 102 143
89 2 2 1 3 99 100 137
90 2 2 1 3 95 96 138
91 2 2 1 3 128 136 149
92 2 2 1 3 135 127 150
93 2 2 1 3 48 133 148
94 2 2 1 3 134 51 147
95 2 2 1 3 132 126 139
96 2 2 1 3 126 131 140
97 2 2 1 3 16 101 151
98 2 2 1 3 94 15 152
99 2 2 1 3 101 143 151
100 2 2 1 3 144 94 152
101 2 2 1 3 92 132 145
102 2 2 1 3 131 103 146
103 2 2 1 3 127 131 150
104 2 2 1 3 132 128 149
105 2 2 1 3 135 99 137
106 2 2 1 3 96 136 138
107 2 2 1 3 98 135 142
108 2 2 1 3 136 97 142
109 2 2 1 3 97 98 142
110 2 2 1 3 49 50 141
111 2 2 1 3 133 104 148
112 2 2 1 3 91 134 147
113 2 2 1 3 129 133 141
114 2 2 1 3 134 129 141
115 2 2 1 3 132 139 145
116 2 2 1 3 140 131 146
117 2 2 1 3 95 138 152
118 2 2 1 3 137 100 151
119 2 2 1 3 100 16 151
120 2 2 1 3 15 95 152
121 2 2 1 3 51 8 147
122 2 2 1 3 7 48 148
123 2 2 1 3 149 130 150
124 2 2 1 3 104 133 146
125 2 2 1 3 134 91 145
126 2 2 1 3 127 137 143
127 2 2 1 3 138 128 144
128 2 2 1 3 130 136 142
129 2 2 1 3 135 130 142
130 2 2 1 3 129 134 139
131 2 2 1 3 133 129 140
132 2 2 1 3 127 135 137
133 2 2 1 3 136 128 138
134 2 2 1 3 126 149 150
135 2 2 1 3 139 134 145
136 2 2 1 3 133 140 146
137 2 2 1 4 15 40 105
138 2 2 1 4 84 2 155
139 2 2 1 4 109 110 155
140 2 2 1 4 18 109 153
141 2 2 1 4 108 18 153
142 2 2 1 4 2 47 155
143 2 2 1 4 47 46 153
144 2 2 1 4 153 109 155
145 2 2 1 4 8 108 156
146 2 2 1 4 153 46 156
147 2 2 1 4 108 153 156
148 2 2 1 4 46 8 156
149 2 2 1 4 107 38 154
150 2 2 1 4 155 110 157
151 2 2 1 4 84 155 157
152 2 2 1 4 47 153 155
153 2 2 1 4 14 84 157
154 2 2 1 4 110 14 157
155 2 2 1 4 6 17 154
156 2 2 1 4 38 6 154
157 2 2 1 4 8 46 45
158 2 2 1 4 91 8 45
159 2 2 1 4 41 40 15
160 2 2 1 4 41 15 94
161 2 2 1 4 17 107 154
162 2 2 1 4 42 41 94
163 2 2 1 4 43 42 93
164 2 2 1 4 93 42 94
165 2 2 1 4 44 43 92
166 2 2 1 4 92 43 93
167 2 2 1 4 44 91 45
168 2 2 1 4 91 44 92
169 2 2 1 4 39 38 106
170 2 2 1 4 38 107 106
171 2 2 1 4 40 39 105
172 2 2 1 4 39 106 105
173 2 2 1 5 116 159 162
174 2 2 1 5 160 113 161
175 2 2 1 5 116 117 159
176 2 2 1 5 112 113 160
177 2 2 1 5 108 8 159
178 2 2 1 5 7 111 160
179 2 2 1 5 159 51 162
180 2 2 1 5 48 160 161
181 2 2 1 5 51 50 162
182 2 2 1 5 49 48 161
183 2 2 1 5 48 7 160
184 2 2 1 5 8 51 159
185 2 2 1 5 114 115 158
186 2 2 1 5 113 114 161
187 2 2 1 5 115 116 162
188 2 2 1 5 50 49 158
189 2 2 1 5 114 158 161
190 2 2 1 5 158 115 162
191 2 2 1 5 117 18 163
192 2 2 1 5 19 112 164
193 2 2 1 5 50 158 162
194 2 2 1 5 158 49 161
195 2 2 1 5 108 159 163
196 2 2 1 5 160 111 164
197 2 2 1 5 111 19 164
198 2 2 1 5 18 108 163
199 2 2 1 5 159 117 163
200 2 2 1 5 112 160 164
201 2 2 1 6 166 181 169
202 2 2 1 6 169 180 166
203 2 2 1 6 10 189 60
204 2 2 1 6 25 172 26
205 2 2 1 6 64 174 65
206 2 2 1 6 168 184 183
207 2 2 1 6 68 189 10
208 2 2 1 6 183 184 172
209 2 2 1 6 56 173 55
210 2 2 1 6 25 185 172
211 2 2 1 6 168 182 177
212 2 2 1 6 176 178 167
213 2 2 1 6 172 184 26
214 2 2 1 6 59 175 58
215 2 2 1 6 178 190 167
216 2 2 1 6 175 199 58
217 2 2 1 6 170 193 173
218 2 2 1 6 173 193 55
219 2 2 1 6 174 180 65
220 2 2 1 6 168 194 182
221 2 2 1 6 24 191 185
222 2 2 1 6 184 195 27
223 2 2 1 6 173 197 170
224 2 2 1 6 174 192 171
225 2 2 1 6 171 196 174
226 2 2 1 6 169 199 175
227 2 2 1 6 64 192 174
228 2 2 1 6 53 176 52
229 2 2 1 6 24 185 25
230 2 2 1 6 67 175 68
231 2 2 1 6 167 186 185
232 2 2 1 6 26 184 27
233 2 2 1 6 61 177 62
234 2 2 1 6 56 181 173
235 2 2 1 6 185 186 172
236 2 2 1 6 9 189 59
237 2 2 1 6 53 178 176
238 2 2 1 6 177 182 62
239 2 2 1 6 67 198 175
240 2 2 1 6 62 182 63
241 2 2 1 6 60 189 9
242 2 2 1 6 54 178 53
243 2 2 1 6 186 190 165
244 2 2 1 6 175 198 169
245 2 2 1 6 166 180 174
246 2 2 1 6 65 180 66
247 2 2 1 6 57 181 56
248 2 2 1 6 4 188 61
249 2 2 1 6 52 187 3
250 2 2 1 6 165 196 194
251 2 2 1 6 183 186 165
252 2 2 1 6 27 188 4
253 2 2 1 6 165 194 183
254 2 2 1 6 3 187 24
255 2 2 1 6 173 181 166
256 2 2 1 6 190 197 165
257 2 2 1 6 58 199 57
258 2 2 1 6 172 186 183
259 2 2 1 6 170 190 178
260 2 2 1 6 66 198 67
261 2 2 1 6 55 193 54
262 2 2 1 6 166 179 173
263 2 2 1 6 182 192 63
264 2 2 1 6 181 199 169
265 2 2 1 6 174 179 166
266 2 2 1 6 176 187 52
267 2 2 1 6 63 192 64
268 2 2 1 6 61 188 177
269 2 2 1 6 194 196 171
270 2 2 1 6 54 193 178
271 2 2 1 6 167 191 176
272 2 2 1 6 175 189 68
273 2 2 1 6 177 195 168
274 2 2 1 6 169 198 180
275 2 2 1 6 57 199 181
276 2 2 1 6 170 197 190
277 2 2 1 6 183 194 168
278 2 2 1 6 180 198 66
279 2 2 1 6 179 197 173
280 2 2 1 6 165 197 196
281 2 2 1 6 182 194 171
282 2 2 1 6 174 196 179
283 2 2 1 6 27 195 188
284 2 2 1 6 171 192 182
285 2 2 1 6 178 193 170
286 2 2 1 6 167 190 186
287 2 2 1 6 59 189 175
288 2 2 1 6 168 195 184
289 2 2 1 6 185 191 167
290 2 2 1 6 187 191 24
291 2 2 1 6 176 191 187
292 2 2 1 6 196 197 179
293 2 2 1 6 188 195 177
294 2 2 1 7 12 202 72
295 2 2 1 7 75 202 12
296 2 2 1 7 70 201 69
297 2 2 1 7 73 201 74
298 2 2 1 7 71 200 70
299 2 2 1 7 74 200 75
300 2 2 1 7 72 202 11
301 2 2 1 7 11 202 71
302 2 2 1 7 9 203 60
303 2 2 1 7 69 203 9
304 2 2 1 7 74 201 200
305 2 2 1 7 200 201 70
306 2 2 1 7 200 202 75
307 2 2 1 7 73 204 201
308 2 2 1 7 10 204 73
309 2 2 1 7 201 204 203
310 2 2 1 7 71 202 200
311 2 2 1 7 201 203 69
312 2 2 1 7 60 204 10
313 2 2 1 7 203 204 60
314 2 2 1 8 231 250 211
315 2 2 1 8 62 221 61
316 2 2 1 8 221 231 211
317 2 2 1 8 212 229 216
318 2 2 1 8 211 233 221
319 2 2 1 8 225 233 211
320 2 2 1 8 78 249 213
321 2 2 1 8 207 246 222
322 2 2 1 8 211 269 225
323 2 2 1 8 79 249 78
324 2 2 1 8 75 252 74
325 2 2 1 8 212 251 222
326 2 2 1 8 238 270 224
327 2 2 1 8 36 225 35
328 2 2 1 8 209 248 218
329 2 2 1 8 225 243 35
330 2 2 1 8 210 226 217
331 2 2 1 8 62 231 221
332 2 2 1 8 212 238 224
333 2 2 1 8 235 239 210
334 2 2 1 8 34 226 33
335 2 2 1 8 215 250 231
336 2 2 1 8 219 248 209
337 2 2 1 8 223 252 75
338 2 2 1 8 214 243 225
339 2 2 1 8 216 254 228
340 2 2 1 8 208 223 220
341 2 2 1 8 246 249 222
342 2 2 1 8 30 229 29
343 2 2 1 8 216 251 212
344 2 2 1 8 74 252 73
345 2 2 1 8 207 239 235
346 2 2 1 8 221 245 61
347 2 2 1 8 32 254 31
348 2 2 1 8 32 242 228
349 2 2 1 8 217 247 210
350 2 2 1 8 241 246 205
351 2 2 1 8 212 261 229
352 2 2 1 8 224 261 212
353 2 2 1 8 209 236 230
354 2 2 1 8 228 254 32
355 2 2 1 8 213 240 78
356 2 2 1 8 222 251 207
357 2 2 1 8 213 246 241
358 2 2 1 8 36 233 225
359 2 2 1 8 222 238 212
360 2 2 1 8 33 242 32
361 2 2 1 8 233 245 221
362 2 2 1 8 220 227 208
363 2 2 1 8 73 252 232
364 2 2 1 8 34 243 226
365 2 2 1 8 261 265 28
366 2 2 1 8 228 239 216
367 2 2 1 8 30 259 229
368 2 2 1 8 225 269 214
369 2 2 1 8 210 239 228
370 2 2 1 8 63 231 62
371 2 2 1 8 78 240 77
372 2 2 1 8 37 233 36
373 2 2 1 8 61 245 4
374 2 2 1 8 65 234 64
375 2 2 1 8 81 238 80
376 2 2 1 8 210 247 235
377 2 2 1 8 206 250 244
378 2 2 1 8 229 259 216
379 2 2 1 8 37 245 233
380 2 2 1 8 237 250 206
381 2 2 1 8 29 261 28
382 2 2 1 8 4 245 37
383 2 2 1 8 210 242 226
384 2 2 1 8 66 266 65
385 2 2 1 8 229 261 29
386 2 2 1 8 81 270 238
387 2 2 1 8 243 267 226
388 2 2 1 8 227 268 209
389 2 2 1 8 224 265 261
390 2 2 1 8 240 253 77
391 2 2 1 8 236 257 230
392 2 2 1 8 205 246 235
393 2 2 1 8 237 255 214
394 2 2 1 8 230 232 208
395 2 2 1 8 205 247 219
396 2 2 1 8 234 264 64
397 2 2 1 8 209 268 219
398 2 2 1 8 218 236 209
399 2 2 1 8 80 271 79
400 2 2 1 8 237 269 211
401 2 2 1 8 35 243 34
402 2 2 1 8 215 264 234
403 2 2 1 8 230 263 209
404 2 2 1 8 28 265 5
405 2 2 1 8 223 253 220
406 2 2 1 8 231 264 215
407 2 2 1 8 226 242 33
408 2 2 1 8 5 265 82
409 2 2 1 8 235 246 207
410 2 2 1 8 75 262 223
411 2 2 1 8 77 253 76
412 2 2 1 8 244 250 215
413 2 2 1 8 211 250 237
414 2 2 1 8 67 257 66
415 2 2 1 8 76 262 12
416 2 2 1 8 208 252 223
417 2 2 1 8 234 244 215
418 2 2 1 8 205 268 241
419 2 2 1 8 220 253 240
420 2 2 1 8 214 269 237
421 2 2 1 8 63 264 231
422 2 2 1 8 68 258 67
423 2 2 1 8 64 264 63
424 2 2 1 8 238 271 80
425 2 2 1 8 209 263 227
426 2 2 1 8 213 241 240
427 2 2 1 8 206 255 237
428 2 2 1 8 82 270 81
429 2 2 1 8 219 268 205
430 2 2 1 8 239 251 216
431 2 2 1 8 10 260 68
432 2 2 1 8 31 259 30
433 2 2 1 8 253 262 76
434 2 2 1 8 217 256 247
435 2 2 1 8 247 256 219
436 2 2 1 8 226 267 217
437 2 2 1 8 223 262 253
438 2 2 1 8 220 241 227
439 2 2 1 8 228 242 210
440 2 2 1 8 67 258 257
441 2 2 1 8 214 267 243
442 2 2 1 8 213 249 246
443 2 2 1 8 232 252 208
444 2 2 1 8 230 258 232
445 2 2 1 8 244 248 206
446 2 2 1 8 222 271 238
447 2 2 1 8 227 263 208
448 2 2 1 8 232 260 73
449 2 2 1 8 241 268 227
450 2 2 1 8 68 260 258
451 2 2 1 8 236 266 66
452 2 2 1 8 12 262 75
453 2 2 1 8 240 241 220
454 2 2 1 8 73 260 10
455 2 2 1 8 257 258 230
456 2 2 1 8 208 263 230
457 2 2 1 8 218 244 234
458 2 2 1 8 206 256 255
459 2 2 1 8 218 266 236
460 2 2 1 8 248 256 206
461 2 2 1 8 254 259 31
462 2 2 1 8 258 260 232
463 2 2 1 8 207 251 239
464 2 2 1 8 235 247 205
465 2 2 1 8 216 259 254
466 2 2 1 8 218 248 244
467 2 2 1 8 255 267 214
468 2 2 1 8 65 266 234
469 2 2 1 8 265 270 82
470 2 2 1 8 66 257 236
471 2 2 1 8 255 256 217
472 2 2 1 8 234 266 218
473 2 2 1 8 217 267 255
474 2 2 1 8 249 271 222
475 2 2 1 8 224 270 265
476 2 2 1 8 79 271 249
477 2 2 1 8 219 256 248
478 2 2 3 10 107 17 304
479 2 2 3 10 17 276 304
480 2 2 3 10 15 105 305
481 2 2 3 10 95 15 305
482 2 2 3 10 275 16 303
483 2 2 3 10 16 100 303
484 2 2 3 10 272 273 302
485 2 2 3 10 281 272 302
486 2 2 3 10 106 107 287
487 2 2 3 10 287 107 304
488 2 2 3 10 105 106 290
489 2 2 3 10 106 287 290
490 2 2 3 10 105 290 305
491 2 2 3 10 273 274 286
492 2 2 3 10 273 286 302
493 2 2 3 10 274 275 288
494 2 2 3 10 286 274 288
495 2 2 3 10 288 275 303
496 2 2 3 10 276 277 298
497 2 2 3 10 276 298 304
498 2 2 3 10 277 278 284
499 2 2 3 10 277 284 298
500 2 2 3 10 278 279 294
501 2 2 3 10 284 278 294
502 2 2 3 10 279 280 283
503 2 2 3 10 279 283 294
504 2 2 3 10 280 281 299
505 2 2 3 10 283 280 299
506 2 2 3 10 299 281 302
507 2 2 3 10 96 95 297
508 2 2 3 10 297 95 305
509 2 2 3 10 97 96 282
510 2 2 3 10 282 96 297
511 2 2 3 10 98 97 292
512 2 2 3 10 97 282 292
513 2 2 3 10 99 98 285
514 2 2 3 10 285 98 292
515 2 2 3 10 100 99 296
516 2 2 3 10 99 285 296
517 2 2 3 10 100 296 303
518 2 2 3 10 292 282 306
519 2 2 3 10 282 297 301
520 2 2 3 10 282 301 306
521 2 2 3 10 294 283 307
522 2 2 3 10 283 299 300
523 2 2 3 10 283 300 307
524 2 2 3 10 291 284 295
525 2 2 3 10 284 291 298
526 2 2 3 10 284 294 295
527 2 2 3 10 289 285 293
528 2 2 3 10 285 289 296
529 2 2 3 10 285 292 293
530 2 2 3 10 286 288 289
531 2 2 3 10 286 289 299
532 2 2 3 10 286 299 302
533 2 2 3 10 290 287 291
534 2 2 3 10 291 287 298
535 2 2 3 10 298 287 304
536 2 2 3 10 289 288 296
537 2 2 3 10 296 288 303
538 2 2 3 10 289 293 300
539 2 2 3 10 299 289 300
540 2 2 3 10 290 291 297
541 2 2 3 10 290 297 305
542 2 2 3 10 291 295 301
543 2 2 3 10 297 291 301
544 2 2 3 10 293 292 306
545 2 2 3 10 300 293 307
546 2 2 3 10 293 306 307
547 2 2 3 10 295 294 307
548 2 2 3 10 301 295 306
549 2 2 3 10 306 295 307
550 2 2 2 9 19 324 112
551 2 2 2 9 308 324 19
552 2 2 2 9 117 322 18
553 2 2 2 9 18 322 109
554 2 2 2 9 13 325 309
555 2 2 2 9 85 325 13
556 2 2 2 9 14 323 90
557 2 2 2 9 110 323 14
558 2 2 2 9 112 320 113
559 2 2 2 9 112 324 320
560 2 2 2 9 113 317 114
561 2 2 2 9 113 320 317
562 2 2 2 9 114 312 115
563 2 2 2 9 114 317 312
564 2 2 2 9 115 319 116
565 2 2 2 9 312 319 115
566 2 2 2 9 116 321 117
567 2 2 2 9 319 321 116
568 2 2 2 9 321 322 117
569 2 2 2 9 309 310 308
570 2 2 2 9 310 324 308
571 2 2 2 9 309 325 310
572 2 2 2 9 86 316 85
573 2 2 2 9 316 325 85
574 2 2 2 9 87 313 86
575 2 2 2 9 313 316 86
576 2 2 2 9 88 318 87
577 2 2 2 9 87 318 313
578 2 2 2 9 89 314 88
579 2 2 2 9 314 318 88
580 2 2 2 9 90 315 89
581 2 2 2 9 89 315 314
582 2 2 2 9 90 323 315
583 2 2 2 9 109 311 110
584 2 2 2 9 109 322 311
585 2 2 2 9 311 323 110
586 2 2 2 9 316 320 310
587 2 2 2 9 310 325 316
588 2 2 2 9 320 324 310
589 2 2 2 9 311 321 315
590 2 2 2 9 315 323 311
591 2 2 2 9 311 322 321
592 2 2 2 9 312 317 313
593 2 2 2 9 313 318 312
594 2 2 2 9 312 318 314
595 2 2 2 9 314 319 312
596 2 2 2 9 313 320 316
597 2 2 2 9 317 320 313
598 2 2 2 9 315 321 314
599 2 2 2 9 314 321 319
$EndElements
