$MeshFormat
2.2 0 8
$EndMeshFormat
$PhysicalNames
3
2 1 "Exterior"
2 2 "SideInterface"
2 3 "RearInterface"
$EndPhysicalNames
$Nodes
327
1 581.4 4.44089209850063e-15 20
2 581.4 246.5 19.9999999999999
3 600 4.44089209850063e-15 20
4 600 269.5 19.9999999999999
5 0 269.5 19.9999999999999
6 0 246.5 19.9999999999999
7 440.848528137424 0 0
8 440.848528137424 246.5 -5.46507283871733e-14
9 600 -1.73194791841524e-13 -780
10 600 269.5 -780
11 0 -1.73194791841524e-13 -780
12 0 269.5 -780
13 581.4 2.44800908738405e-14 -49.7514718625762
14 581.4 246.5 -49.7514718625762
15 142.356553615049 246.5 -5.47339951140202e-14
16 142.356553615049 0 0
17 0 246.5 -5.47339951140202e-14
18 490.6 246.5 -49.7514718625762
19 490.6 2.44800908738405e-14 -49.7514718625762
20 0 0 0
21 581.4 197.1999920519115 19.99999999999995
22 581.4 147.9000270380955 19.99999999999996
23 581.4 98.60007340240452 19.99999999999998
24 581.4 49.30010838596566 19.99999999999999
25 600 53.86920074956697 20.00000000000003
26 600 107.738250921624 20.00000000000002
27 600 161.6073285178005 20
28 600 215.4763928343822 19.99999999999999
29 43.1772136261485 269.5 19.9999999999999
30 86.35435354747517 269.5 19.9999999999999
31 129.5314926216104 269.5 19.9999999999999
32 173.6657656395593 269.5 19.9999999999999
33 225.9337924000294 269.5 19.9999999999999
34 292.3239228120178 269.5 19.9999999999999
35 370.1880923777155 269.5 19.9999999999999
36 435.2619616741747 269.5 19.9999999999999
37 491.2774569340293 269.5 19.9999999999999
38 545.5991755059637 269.5 19.9999999999999
39 40.55285884715295 246.5 19.9999999999999
40 81.10560652677367 246.5 19.9999999999999
41 121.6583645091708 246.5 19.9999999999999
42 162.6070722591391 246.5 19.9999999999999
43 210.4678257574365 246.5 19.9999999999999
44 271.705428649086 246.5 19.9999999999999
45 348.6881927724804 246.5 19.9999999999999
46 417.2460755599744 246.5 19.9999999999999
47 474.3741804959769 246.5 19.9999999999999
48 527.9131386540491 246.5 19.9999999999999
49 440.848528137424 49.30008728280666 -1.094681840348035e-14
50 440.848528137424 98.60003284012078 -2.18936053375797e-14
51 440.848528137424 147.899967159879 -3.28403897764404e-14
52 440.848528137424 197.1999127171935 -4.378717671053983e-14
53 600 -5.93751060237043e-15 -26.74017053634378
54 600 -1.477548454032599e-14 -66.54286667003065
55 600 -2.480646854548481e-14 -111.7184024978234
56 600 -3.75330844042668e-14 -169.0339849371215
57 600 -5.385180562744931e-14 -242.5269717570094
58 600 -7.482128010320699e-14 -336.9650891921869
59 600 -1.017857733190824e-13 -458.4023707914378
60 600 -1.362084829906482e-13 -613.4284732413844
61 600 134.7499999999997 -780.0000000000001
62 600 269.5000000000002 -27.30962844792248
63 600 269.5000000000002 -69.03318560915034
64 600 269.5000000000002 -115.6555788257095
65 600 269.5000000000001 -173.7991798876424
66 600 269.5000000000001 -247.7211285857601
67 600 269.5000000000001 -342.1447991116112
68 600 269.5000000000001 -462.9522203256213
69 600 269.5000000000001 -616.2365578221041
70 449.9999999999999 -1.73194791841524e-13 -780
71 299.9999999999993 -1.73194791841524e-13 -780
72 149.9999999999994 -1.73194791841524e-13 -780
73 0 134.7499999999997 -780.0000000000001
74 449.9999999999998 269.5 -780
75 299.9999999999993 269.5 -780
76 149.9999999999994 269.5 -780
77 0 269.4999999999999 -609.6097071562725
78 0 269.5 -444.485667823685
79 0 269.5 -312.4188200011019
80 0 269.5000000000001 -210.2889595601865
81 0 269.5000000000001 -131.2392401653911
82 0 269.5000000000001 -69.89172350481897
83 0 269.5000000000001 -21.71856145699201
84 581.4 3.143111935814452e-14 -18.44682257082255
85 581.4 246.5 -18.46782894449407
86 581.4 35.21428571428561 -49.75147186257617
87 581.4 70.42857142857122 -49.75147186257617
88 581.4 105.6428571428568 -49.75147186257618
89 581.4 140.8571428571424 -49.75147186257619
90 581.4 176.0714285714282 -49.7514718625762
91 581.4 211.2857142857141 -49.7514718625762
92 380.6425045055055 246.5 -5.44009282066327e-14
93 305.1062217956605 246.5 -5.44009282066327e-14
94 236.2058328723958 246.5 -5.44009282066327e-14
95 183.1902889189639 246.5 -5.44009282066327e-14
96 142.356553615049 211.2857142857144 -4.691485295487442e-14
97 142.356553615049 176.0714285714288 -3.909571079572872e-14
98 142.356553615049 140.8571428571432 -3.127656863658301e-14
99 142.356553615049 105.6428571428576 -2.345742647743731e-14
100 142.356553615049 70.42857142857174 -1.563828431829154e-14
101 142.356553615049 35.21428571428589 -7.819142159145774e-15
102 183.1902890098689 3.5527136788005e-14 -7.888609052210119e-30
103 236.2058329609638 3.5527136788005e-14 -7.888609052210119e-30
104 305.1062218724161 3.5527136788005e-14 -7.888609052210119e-30
105 380.6425045384901 3.5527136788005e-14 -7.888609052210119e-30
106 106.7674152112868 246.5 -5.44009282066327e-14
107 71.1782768075247 246.5 -5.44009282066327e-14
108 35.58913840376238 246.5 -5.44009282066327e-14
109 468.2900611107846 246.5 -27.44153297336065
110 520.8666666666667 246.5 -49.7514718625762
111 551.1333333333333 246.5 -49.7514718625762
112 468.2896236280752 -6.093147206931743e-15 -27.44109549065129
113 490.6 35.21428571428561 -49.75147186257617
114 490.6 70.42857142857122 -49.75147186257617
115 490.6 105.6428571428568 -49.75147186257618
116 490.6 140.8571428571424 -49.75147186257619
117 490.6 176.0714285714282 -49.7514718625762
118 490.6 211.2857142857141 -49.7514718625762
119 520.8666666666667 -1.10470459141645e-14 -49.7514718625762
120 551.1333333333332 -1.10470459141645e-14 -49.7514718625762
121 35.58913840376221 3.5527136788005e-14 -7.888609052210119e-30
122 71.1782768075243 3.5527136788005e-14 -7.888609052210119e-30
123 106.7674152112866 3.5527136788005e-14 -7.888609052210119e-30
124 0 211.2857142857144 -4.69148529548745e-14
125 0 176.0714285714288 -3.909571079572879e-14
126 0 140.8571428571432 -3.127656863658308e-14
127 0 105.6428571428576 -2.345742647743738e-14
128 0 70.42857142857176 -1.563828431829161e-14
129 0 35.21428571428589 -7.819142159145839e-15
130 581.4 123.2500043575807 -13.62798658785697
131 581.4 210.2956905932274 -14.90823160694367
132 581.4 36.20614821636224 -14.90741611341464
133 581.4 80.57129382229016 -14.67305773773734
134 581.4 165.9290475782309 -14.67319365332552
135 581.4 228.8928571428569 -34.10965040353513
136 581.4 17.60714285714289 -34.09914721669939
137 20.93251811832533 258 19.99999999999998
138 287.5341278535343 123.2500000161565 -2.736699756059754e-14
139 213.4278154648888 62.97100722205818 -1.398237242035318e-14
140 213.4278154284289 183.5289928077374 -4.07516227002829e-14
141 348.7720178134219 123.2500000051802 -2.736699755816031e-14
142 201.1989538763459 123.2500000000004 -2.736699755701017e-14
143 269.0407467959812 52.0085562667895 -1.154821932898052e-14
144 269.0407467476305 194.4914437577752 -4.318577579049407e-14
145 378.8197023846756 63.63833786612287 -1.413054958956889e-14
146 378.8197023851916 182.8616621332883 -4.060344552432049e-14
147 179.9763397768747 89.02807867813343 -1.976820455732071e-14
148 179.9763397694198 157.471921327901 -3.496579055803934e-14
149 175.0981241282894 50.13849899093881 -1.113298319997707e-14
150 175.0981240984388 196.3615010235988 -4.360101191727106e-14
151 325.4081915900723 167.9179259849339 -3.728526953515524e-14
152 325.4081916106132 78.5820740246761 -1.744872558099875e-14
153 397.6216957716274 123.2500000009182 -2.736699755721396e-14
154 169.1729481305479 123.2500000012071 -2.736699755727811e-14
155 208.8975205751689 26.85020584949291 -5.961943350006411e-15
156 208.8975204940583 219.6497941915122 -4.877205177311871e-14
157 342.8743631505832 215.7365240122692 -4.790313124220378e-14
158 342.8743632054528 30.76347596913143 -6.830863867686471e-15
159 410.7455163214638 221.8499563585966 -4.926058591227997e-14
160 410.7455163379566 24.65004364140333 -5.473409201740176e-15
161 234.8795655530224 149.5525292014358 -3.320733226207198e-14
162 234.8795655530225 96.94747088466445 -2.152666287106626e-14
163 170.3798081886852 22.44059811094351 -4.98281374182585e-15
164 170.3798081483118 224.0594019001651 -4.97511813746609e-14
165 498.8587929838066 246.5 -14.72462821164352
166 19.03549931272883 246.5 9.999999999999917
167 546.8340854720745 246.5 -18.11500732640362
168 468.0190701987772 246.5 -4.273220436223937
169 565.1918547013519 246.5 -34.02144499901252
170 464.8673901481192 123.2499999999998 -24.01886201069536
171 465.7917734340758 210.108571591188 -24.94324529665202
172 465.791756614565 36.39148197853643 -24.94322847714117
173 465.5927005062554 80.60217177881532 -24.74417236883151
174 465.5927033095072 165.8978371494719 -24.74417517208333
175 479.4450305553923 228.8928571428568 -38.59650241796845
176 479.4448118140376 17.60714285714283 -38.59628367661375
177 600 134.6737157965485 -104.9571302148758
178 600 134.7165060676352 -246.8618904157018
179 600 72.8589809951016 -56.30850451379582
180 600 196.7995523628673 -58.45310321439331
181 600 135.403130871885 -361.8945855872128
182 600 67.35771149130881 -122.8589249591828
183 600 201.8978661535848 -122.8565442274616
184 600 134.8005942096215 -31.06106703321989
185 600 67.14518133776892 -191.8441005151617
186 600 201.6880364205849 -194.3804567087039
187 600 132.0240596100018 -496.523783556628
188 600 34.22562928307264 -45.67911515290533
189 600 235.242066871473 -47.46715411564752
190 600 41.76227855785299 -90.74711990618886
191 600 134.5609971085007 -184.7280527713248
192 600 204.2334444336559 -299.2585616879343
193 600 65.08663314825168 -296.2960612431808
194 600 227.8343337039807 -92.79973556592419
195 600 156.2904448561058 -61.82680515121368
196 600 172.9646114205761 -19.17386678074449
197 600 97.04372221823479 -19.22294226704684
198 600 113.95012601272 -60.85371350204392
199 600 31.05649688228596 -11.13209645300477
200 600 237.7327952942991 -11.75321410317788
201 600 113.9413721540781 -659.0438209748355
202 600 88.03329800070782 -91.74583183211155
203 600 57.81080602565243 -22.46853167735055
204 600 238.4121326164433 -144.727379356676
205 600 29.86033013478033 -140.3761937174725
206 600 180.2168340749519 -97.76135103769083
207 600 210.4132934891567 -24.46730053486847
208 600 159.7479366156767 -141.5937605541395
209 600 105.4501701398898 -144.8790283647801
210 600 210.0518612233456 -398.9064836017012
211 600 58.08289027468732 -394.8895055320153
212 231.7250231481476 130.478161719233 -780.0000000000001
213 392.2357275132272 139.8765405512853 -780.0000000000001
214 112.4999999999997 109.1189703153984 -780.0000000000001
215 497.8616860837303 103.0930033243466 -780.0000000000001
216 518.8117648394283 195.2805789996816 -780.0000000000001
217 259.1288576060236 269.5000000000001 -238.5422627574216
218 441.4801231670431 269.5000000000001 -146.7308479826573
219 154.9142670939199 269.5000000000001 -134.8084604190852
220 327.5878949389568 269.5 -505.6461505395966
221 404.6097828948826 269.5 -316.8592637408898
222 261.4130783477498 269.5000000000001 -91.38634229041458
223 503.4432379343331 269.5000000000001 -71.42448767851374
224 89.15725961114941 269.5000000000001 -66.97791918886958
225 106.1051118254792 269.5 -282.1825319348912
226 428.8039069706627 269.5000000000001 -65.16521095662131
227 531.6423053377836 269.5000000000001 -149.4335742887711
228 151.9202670755316 269.5000000000001 -47.51394187071242
229 341.2313341416253 269.5000000000001 -109.6342172910498
230 485.3252043143155 269.5 -253.0242775713432
231 353.9407239419564 269.5000000000001 -231.0719903874673
232 198.4900171813733 269.5 -446.9215424779603
233 550.5251710910164 269.5000000000001 -48.17140702853641
234 98.16291452547878 269.5000000000001 -139.40421481693
235 180.6119509553407 269.4999999999999 -605.1621556048724
236 52.43944442422362 269.5000000000001 -46.63758928906651
237 468.4047963827219 269.5000000000001 -31.55733274548078
238 330.5258406518138 269.5000000000001 -40.10628340319499
239 295.5093621496294 269.5 -371.7959052221113
240 215.533227289222 269.5000000000001 -43.09048075149599
241 114.3066904407112 269.5000000000001 -15.35555000188668
242 455.4201143061267 269.5 -454.6806405430469
243 550.6051066482096 269.5000000000001 -102.3639766477877
244 440.7515292812208 269.4999999999999 -617.7006500239809
245 518.5805096839954 269.5000000000001 -20.66439374809181
246 545.0614727451741 269.5000000000001 -203.4543341780552
247 220.3566360485594 269.5000000000001 -154.7947697942388
248 509.8987907825198 269.5 -328.6074766449882
249 458.3138738364004 269.5000000000001 -97.88248540706184
250 41.99563341015018 269.5000000000001 -95.81713275839581
251 187.8657565822185 269.5000000000001 -91.3671800526854
252 100.4550655145575 269.5 -387.9700360072356
253 206.116786923927 269.5 -317.2290915285287
254 267.1874748314377 269.5000000000001 -28.91055271385005
255 401.5753406687362 269.5000000000001 -24.57560772082348
256 487.8521550642954 269.5000000000001 -179.5905193082145
257 564.7788492394619 269.5000000000001 -12.87777374618372
258 163.6577451581583 269.5000000000001 -201.069615952678
259 299.961822540411 269.5000000000001 -173.1583449429742
260 426.7584755302267 269.5000000000001 -206.7978580813034
261 70.64284266067608 269.5000000000001 -214.9540561177573
262 495.9244809865496 269.5000000000001 -122.7227652745455
263 135.0854607072426 269.5000000000001 -93.44640631165464
264 309.0323743745633 269.4999999999999 -645.6512457025747
265 92.42617227521187 269.4999999999999 -531.492327108027
266 183.3891086756546 269.5000000000001 -16.28096615172092
267 404.4790284689828 269.5000000000001 -109.0716022405909
268 379.5642463560212 269.5000000000001 -163.7238917079896
269 540.4460817769715 269.5 -419.0109350194804
270 528.0896014197812 269.4999999999999 -539.5943890738628
271 150.5626648906134 269.5000000000001 -7.830091604864037
272 524.9999999999999 269.4999999999999 -698.1182789110521
273 71.42819980311549 269.5000000000001 -14.91847740626838
274 74.99999999999973 269.4999999999999 -694.8048535781363
275 372.6065519617005 269.5 -412.0918166659036
276 570.1350801298579 269.5000000000001 -145.8243049629122
277 29.72031226205196 269.5000000000001 -10.24637954171385
278 542.1324282120714 269.5 -273.8871808382847
279 373.5081986980278 269.5000000000001 -68.84358954737598
280 319.471349032268 269.5 -292.1217463474024
281 469.3678370474897 269.5000000000001 -66.0446174630589
282 21.94892546076995 269.5000000000001 -45.80514248090554
283 32.26088984942952 269.5000000000001 -170.7640998627889
284 537.4210646483264 48.30068550178686 -49.75147186257617
285 537.4210646483263 198.1993144982129 -49.7514718625762
286 534.7164464024789 123.2499999999997 -49.75147186257619
287 545.5486348946247 163.2514921695276 -49.7514718625762
288 545.5486348946248 83.24850783047185 -49.75147186257617
289 513.694802107226 93.10689416222118 -49.75147186257618
290 513.694802107226 153.3931058377781 -49.75147186257619
291 551.7001543863328 24.0758895397239 -49.75147186257616
292 517.0009733985169 26.73538155453741 -49.75147186257617
293 551.7001543863329 222.424110460276 -49.75147186257621
294 517.0009733985169 219.7646184454623 -49.75147186257621
295 561.1820453102249 52.82142857142844 -49.75147186257617
296 515.8109125081157 59.50572103197896 -49.75147186257617
297 515.8109125081156 186.9942789680205 -49.7514718625762
298 561.182045310225 193.6785714285712 -49.7514718625762
299 508.6612101233862 123.2499999999995 -49.75147186257619
300 560.9710850404257 123.2499999999997 -49.75147186257619
301 71.17827680752475 143.7083114425762 -3.190965523871014e-14
302 71.14950925641847 86.10833806959312 -1.911989190741381e-14
303 97.79611858906401 194.9968485766423 -4.329799820382663e-14
304 44.56043502598595 194.9968485766424 -4.329799820382666e-14
305 45.85307722215452 45.96433100057544 -1.020613171766613e-14
306 96.50347639289475 45.96433100057556 -1.020613171766616e-14
307 43.64868741969565 122.8896975408869 -2.728699433982278e-14
308 98.70786619535374 122.889697540887 -2.728699433982281e-14
309 33.51272556430513 159.7271500912537 -3.546655193781357e-14
310 108.8438280507444 159.7271500912537 -3.546655193781357e-14
311 33.90385200922867 85.91962889793899 -1.907799005394814e-14
312 108.4527016058207 85.91962889793925 -1.90779900539482e-14
313 71.16800268212955 26.6087391895307 -5.908326980892535e-15
314 71.17827680752475 219.4262876116984 -4.872242334290579e-14
315 71.17827680752475 114.7786017133868 -2.548596927129645e-14
316 28.60652021890223 218.7312369837711 -4.856809110082479e-14
317 113.750033396147 218.7312369837711 -4.856809110082479e-14
318 28.77816533349232 26.76813074597018 -5.943719016070527e-15
319 113.5749635730917 26.76813074597021 -5.943719016070533e-15
320 71.17827680752475 178.7637660650111 -3.969352981081606e-14
321 71.0632066031003 57.81549276910732 -1.283761825046242e-14
322 20.31127107614145 193.6785714285716 -4.300528187530158e-14
323 122.0452825389089 193.6785714285716 -4.300528187530158e-14
324 20.05877369290772 52.8214285714289 -1.172871323871867e-14
325 122.2977799221414 52.82142857142887 -1.172871323871866e-14
326 17.91105558294157 123.2500000000004 -2.736699755701016e-14
327 124.4454980321077 123.2500000000004 -2.736699755701016e-14
$EndNodes
$Elements
603
1 2 2 1 1 131 90 134
2 2 2 1 1 87 132 133
3 2 2 1 1 91 90 131
4 2 2 1 1 87 86 132
5 2 2 1 1 2 85 131
6 2 2 1 1 84 1 132
7 2 2 1 1 21 131 134
8 2 2 1 1 132 24 133
9 2 2 1 1 22 21 134
10 2 2 1 1 24 23 133
11 2 2 1 1 1 24 132
12 2 2 1 1 21 2 131
13 2 2 1 1 89 88 130
14 2 2 1 1 88 87 133
15 2 2 1 1 90 89 134
16 2 2 1 1 23 22 130
17 2 2 1 1 130 88 133
18 2 2 1 1 89 130 134
19 2 2 1 1 14 91 135
20 2 2 1 1 86 13 136
21 2 2 1 1 130 22 134
22 2 2 1 1 23 130 133
23 2 2 1 1 131 85 135
24 2 2 1 1 84 132 136
25 2 2 1 1 13 84 136
26 2 2 1 1 85 14 135
27 2 2 1 1 91 131 135
28 2 2 1 1 132 86 136
29 2 2 1 2 29 137 39
30 2 2 1 2 6 137 5
31 2 2 1 2 2 28 4
32 2 2 1 2 4 38 2
33 2 2 1 2 21 28 2
34 2 2 1 2 2 38 48
35 2 2 1 2 5 137 29
36 2 2 1 2 39 137 6
37 2 2 1 2 22 27 21
38 2 2 1 2 21 27 28
39 2 2 1 2 23 26 22
40 2 2 1 2 26 27 22
41 2 2 1 2 23 25 26
42 2 2 1 2 32 43 33
43 2 2 1 2 33 44 34
44 2 2 1 2 43 44 33
45 2 2 1 2 34 45 35
46 2 2 1 2 44 45 34
47 2 2 1 2 35 46 36
48 2 2 1 2 45 46 35
49 2 2 1 2 36 47 37
50 2 2 1 2 46 47 36
51 2 2 1 2 48 38 37
52 2 2 1 2 37 47 48
53 2 2 1 2 24 1 3
54 2 2 1 2 3 25 24
55 2 2 1 2 24 25 23
56 2 2 1 2 29 40 30
57 2 2 1 2 39 40 29
58 2 2 1 2 30 41 31
59 2 2 1 2 40 41 30
60 2 2 1 2 31 42 32
61 2 2 1 2 41 42 31
62 2 2 1 2 42 43 32
63 2 2 1 3 49 50 145
64 2 2 1 3 51 52 146
65 2 2 1 3 145 50 153
66 2 2 1 3 51 146 153
67 2 2 1 3 141 138 152
68 2 2 1 3 138 141 151
69 2 2 1 3 93 94 144
70 2 2 1 3 103 104 143
71 2 2 1 3 99 100 147
72 2 2 1 3 97 98 148
73 2 2 1 3 144 94 156
74 2 2 1 3 103 143 155
75 2 2 1 3 140 144 156
76 2 2 1 3 143 139 155
77 2 2 1 3 92 93 157
78 2 2 1 3 104 105 158
79 2 2 1 3 155 149 163
80 2 2 1 3 150 156 164
81 2 2 1 3 148 142 161
82 2 2 1 3 142 147 162
83 2 2 1 3 8 92 159
84 2 2 1 3 105 7 160
85 2 2 1 3 138 144 161
86 2 2 1 3 143 138 162
87 2 2 1 3 94 95 156
88 2 2 1 3 102 103 155
89 2 2 1 3 100 101 149
90 2 2 1 3 96 97 150
91 2 2 1 3 140 148 161
92 2 2 1 3 147 139 162
93 2 2 1 3 49 145 160
94 2 2 1 3 146 52 159
95 2 2 1 3 144 138 151
96 2 2 1 3 138 143 152
97 2 2 1 3 16 102 163
98 2 2 1 3 95 15 164
99 2 2 1 3 102 155 163
100 2 2 1 3 156 95 164
101 2 2 1 3 93 144 157
102 2 2 1 3 143 104 158
103 2 2 1 3 139 143 162
104 2 2 1 3 144 140 161
105 2 2 1 3 147 100 149
106 2 2 1 3 97 148 150
107 2 2 1 3 99 147 154
108 2 2 1 3 148 98 154
109 2 2 1 3 98 99 154
110 2 2 1 3 50 51 153
111 2 2 1 3 145 105 160
112 2 2 1 3 92 146 159
113 2 2 1 3 141 145 153
114 2 2 1 3 146 141 153
115 2 2 1 3 144 151 157
116 2 2 1 3 152 143 158
117 2 2 1 3 96 150 164
118 2 2 1 3 149 101 163
119 2 2 1 3 101 16 163
120 2 2 1 3 15 96 164
121 2 2 1 3 52 8 159
122 2 2 1 3 7 49 160
123 2 2 1 3 161 142 162
124 2 2 1 3 105 145 158
125 2 2 1 3 146 92 157
126 2 2 1 3 139 149 155
127 2 2 1 3 150 140 156
128 2 2 1 3 142 148 154
129 2 2 1 3 147 142 154
130 2 2 1 3 141 146 151
131 2 2 1 3 145 141 152
132 2 2 1 3 139 147 149
133 2 2 1 3 148 140 150
134 2 2 1 3 138 161 162
135 2 2 1 3 151 146 157
136 2 2 1 3 145 152 158
137 2 2 1 4 15 41 106
138 2 2 1 4 85 2 167
139 2 2 1 4 110 111 167
140 2 2 1 4 18 110 165
141 2 2 1 4 109 18 165
142 2 2 1 4 2 48 167
143 2 2 1 4 48 47 165
144 2 2 1 4 165 110 167
145 2 2 1 4 8 109 168
146 2 2 1 4 165 47 168
147 2 2 1 4 109 165 168
148 2 2 1 4 47 8 168
149 2 2 1 4 108 39 166
150 2 2 1 4 167 111 169
151 2 2 1 4 85 167 169
152 2 2 1 4 48 165 167
153 2 2 1 4 14 85 169
154 2 2 1 4 111 14 169
155 2 2 1 4 6 17 166
156 2 2 1 4 39 6 166
157 2 2 1 4 8 47 46
158 2 2 1 4 92 8 46
159 2 2 1 4 42 41 15
160 2 2 1 4 42 15 95
161 2 2 1 4 17 108 166
162 2 2 1 4 43 42 95
163 2 2 1 4 44 43 94
164 2 2 1 4 94 43 95
165 2 2 1 4 45 44 93
166 2 2 1 4 93 44 94
167 2 2 1 4 45 92 46
168 2 2 1 4 92 45 93
169 2 2 1 4 40 39 107
170 2 2 1 4 39 108 107
171 2 2 1 4 41 40 106
172 2 2 1 4 40 107 106
173 2 2 1 5 117 171 174
174 2 2 1 5 172 114 173
175 2 2 1 5 117 118 171
176 2 2 1 5 113 114 172
177 2 2 1 5 109 8 171
178 2 2 1 5 7 112 172
179 2 2 1 5 171 52 174
180 2 2 1 5 49 172 173
181 2 2 1 5 52 51 174
182 2 2 1 5 50 49 173
183 2 2 1 5 49 7 172
184 2 2 1 5 8 52 171
185 2 2 1 5 115 116 170
186 2 2 1 5 114 115 173
187 2 2 1 5 116 117 174
188 2 2 1 5 51 50 170
189 2 2 1 5 115 170 173
190 2 2 1 5 170 116 174
191 2 2 1 5 118 18 175
192 2 2 1 5 19 113 176
193 2 2 1 5 51 170 174
194 2 2 1 5 170 50 173
195 2 2 1 5 109 171 175
196 2 2 1 5 172 112 176
197 2 2 1 5 112 19 176
198 2 2 1 5 18 109 175
199 2 2 1 5 171 118 175
200 2 2 1 5 113 172 176
201 2 2 1 6 178 193 181
202 2 2 1 6 181 192 178
203 2 2 1 6 10 201 61
204 2 2 1 6 26 184 27
205 2 2 1 6 65 186 66
206 2 2 1 6 180 196 195
207 2 2 1 6 69 201 10
208 2 2 1 6 195 196 184
209 2 2 1 6 57 185 56
210 2 2 1 6 26 197 184
211 2 2 1 6 180 194 189
212 2 2 1 6 188 190 179
213 2 2 1 6 184 196 27
214 2 2 1 6 60 187 59
215 2 2 1 6 190 202 179
216 2 2 1 6 187 211 59
217 2 2 1 6 182 205 185
218 2 2 1 6 185 205 56
219 2 2 1 6 186 192 66
220 2 2 1 6 180 206 194
221 2 2 1 6 25 203 197
222 2 2 1 6 196 207 28
223 2 2 1 6 185 209 182
224 2 2 1 6 186 204 183
225 2 2 1 6 183 208 186
226 2 2 1 6 181 211 187
227 2 2 1 6 65 204 186
228 2 2 1 6 54 188 53
229 2 2 1 6 25 197 26
230 2 2 1 6 68 187 69
231 2 2 1 6 179 198 197
232 2 2 1 6 27 196 28
233 2 2 1 6 62 189 63
234 2 2 1 6 57 193 185
235 2 2 1 6 197 198 184
236 2 2 1 6 9 201 60
237 2 2 1 6 54 190 188
238 2 2 1 6 189 194 63
239 2 2 1 6 68 210 187
240 2 2 1 6 63 194 64
241 2 2 1 6 61 201 9
242 2 2 1 6 55 190 54
243 2 2 1 6 198 202 177
244 2 2 1 6 187 210 181
245 2 2 1 6 178 192 186
246 2 2 1 6 66 192 67
247 2 2 1 6 58 193 57
248 2 2 1 6 4 200 62
249 2 2 1 6 53 199 3
250 2 2 1 6 177 208 206
251 2 2 1 6 195 198 177
252 2 2 1 6 28 200 4
253 2 2 1 6 177 206 195
254 2 2 1 6 3 199 25
255 2 2 1 6 185 193 178
256 2 2 1 6 202 209 177
257 2 2 1 6 59 211 58
258 2 2 1 6 184 198 195
259 2 2 1 6 182 202 190
260 2 2 1 6 67 210 68
261 2 2 1 6 56 205 55
262 2 2 1 6 178 191 185
263 2 2 1 6 194 204 64
264 2 2 1 6 193 211 181
265 2 2 1 6 186 191 178
266 2 2 1 6 188 199 53
267 2 2 1 6 64 204 65
268 2 2 1 6 62 200 189
269 2 2 1 6 206 208 183
270 2 2 1 6 55 205 190
271 2 2 1 6 179 203 188
272 2 2 1 6 187 201 69
273 2 2 1 6 189 207 180
274 2 2 1 6 181 210 192
275 2 2 1 6 58 211 193
276 2 2 1 6 182 209 202
277 2 2 1 6 195 206 180
278 2 2 1 6 192 210 67
279 2 2 1 6 191 209 185
280 2 2 1 6 177 209 208
281 2 2 1 6 194 206 183
282 2 2 1 6 186 208 191
283 2 2 1 6 28 207 200
284 2 2 1 6 183 204 194
285 2 2 1 6 190 205 182
286 2 2 1 6 179 202 198
287 2 2 1 6 60 201 187
288 2 2 1 6 180 207 196
289 2 2 1 6 197 203 179
290 2 2 1 6 199 203 25
291 2 2 1 6 188 203 199
292 2 2 1 6 208 209 191
293 2 2 1 6 200 207 189
294 2 2 1 7 12 214 73
295 2 2 1 7 76 214 12
296 2 2 1 7 71 213 70
297 2 2 1 7 74 213 75
298 2 2 1 7 72 212 71
299 2 2 1 7 75 212 76
300 2 2 1 7 73 214 11
301 2 2 1 7 11 214 72
302 2 2 1 7 9 215 61
303 2 2 1 7 70 215 9
304 2 2 1 7 75 213 212
305 2 2 1 7 212 213 71
306 2 2 1 7 212 214 76
307 2 2 1 7 74 216 213
308 2 2 1 7 10 216 74
309 2 2 1 7 213 216 215
310 2 2 1 7 72 214 212
311 2 2 1 7 213 215 70
312 2 2 1 7 61 216 10
313 2 2 1 7 215 216 61
314 2 2 1 8 243 262 223
315 2 2 1 8 63 233 62
316 2 2 1 8 233 243 223
317 2 2 1 8 224 241 228
318 2 2 1 8 223 245 233
319 2 2 1 8 237 245 223
320 2 2 1 8 79 261 225
321 2 2 1 8 219 258 234
322 2 2 1 8 223 281 237
323 2 2 1 8 80 261 79
324 2 2 1 8 76 264 75
325 2 2 1 8 224 263 234
326 2 2 1 8 250 282 236
327 2 2 1 8 37 237 36
328 2 2 1 8 221 260 230
329 2 2 1 8 237 255 36
330 2 2 1 8 222 238 229
331 2 2 1 8 63 243 233
332 2 2 1 8 224 250 236
333 2 2 1 8 247 251 222
334 2 2 1 8 35 238 34
335 2 2 1 8 227 262 243
336 2 2 1 8 231 260 221
337 2 2 1 8 235 264 76
338 2 2 1 8 226 255 237
339 2 2 1 8 228 266 240
340 2 2 1 8 220 235 232
341 2 2 1 8 258 261 234
342 2 2 1 8 31 241 30
343 2 2 1 8 228 263 224
344 2 2 1 8 75 264 74
345 2 2 1 8 219 251 247
346 2 2 1 8 233 257 62
347 2 2 1 8 33 266 32
348 2 2 1 8 33 254 240
349 2 2 1 8 229 259 222
350 2 2 1 8 253 258 217
351 2 2 1 8 224 273 241
352 2 2 1 8 236 273 224
353 2 2 1 8 221 248 242
354 2 2 1 8 240 266 33
355 2 2 1 8 225 252 79
356 2 2 1 8 234 263 219
357 2 2 1 8 225 258 253
358 2 2 1 8 37 245 237
359 2 2 1 8 234 250 224
360 2 2 1 8 34 254 33
361 2 2 1 8 245 257 233
362 2 2 1 8 232 239 220
363 2 2 1 8 74 264 244
364 2 2 1 8 35 255 238
365 2 2 1 8 273 277 29
366 2 2 1 8 240 251 228
367 2 2 1 8 31 271 241
368 2 2 1 8 237 281 226
369 2 2 1 8 222 251 240
370 2 2 1 8 64 243 63
371 2 2 1 8 79 252 78
372 2 2 1 8 38 245 37
373 2 2 1 8 62 257 4
374 2 2 1 8 66 246 65
375 2 2 1 8 82 250 81
376 2 2 1 8 222 259 247
377 2 2 1 8 218 262 256
378 2 2 1 8 241 271 228
379 2 2 1 8 38 257 245
380 2 2 1 8 249 262 218
381 2 2 1 8 30 273 29
382 2 2 1 8 4 257 38
383 2 2 1 8 222 254 238
384 2 2 1 8 67 278 66
385 2 2 1 8 241 273 30
386 2 2 1 8 82 282 250
387 2 2 1 8 255 279 238
388 2 2 1 8 239 280 221
389 2 2 1 8 236 277 273
390 2 2 1 8 252 265 78
391 2 2 1 8 248 269 242
392 2 2 1 8 217 258 247
393 2 2 1 8 249 267 226
394 2 2 1 8 242 244 220
395 2 2 1 8 217 259 231
396 2 2 1 8 246 276 65
397 2 2 1 8 221 280 231
398 2 2 1 8 230 248 221
399 2 2 1 8 81 283 80
400 2 2 1 8 249 281 223
401 2 2 1 8 36 255 35
402 2 2 1 8 227 276 246
403 2 2 1 8 242 275 221
404 2 2 1 8 29 277 5
405 2 2 1 8 235 265 232
406 2 2 1 8 243 276 227
407 2 2 1 8 238 254 34
408 2 2 1 8 5 277 83
409 2 2 1 8 247 258 219
410 2 2 1 8 76 274 235
411 2 2 1 8 78 265 77
412 2 2 1 8 256 262 227
413 2 2 1 8 223 262 249
414 2 2 1 8 68 269 67
415 2 2 1 8 77 274 12
416 2 2 1 8 220 264 235
417 2 2 1 8 246 256 227
418 2 2 1 8 217 280 253
419 2 2 1 8 232 265 252
420 2 2 1 8 226 281 249
421 2 2 1 8 64 276 243
422 2 2 1 8 69 270 68
423 2 2 1 8 65 276 64
424 2 2 1 8 250 283 81
425 2 2 1 8 221 275 239
426 2 2 1 8 225 253 252
427 2 2 1 8 218 267 249
428 2 2 1 8 83 282 82
429 2 2 1 8 231 280 217
430 2 2 1 8 251 263 228
431 2 2 1 8 10 272 69
432 2 2 1 8 32 271 31
433 2 2 1 8 265 274 77
434 2 2 1 8 229 268 259
435 2 2 1 8 259 268 231
436 2 2 1 8 238 279 229
437 2 2 1 8 235 274 265
438 2 2 1 8 232 253 239
439 2 2 1 8 240 254 222
440 2 2 1 8 68 270 269
441 2 2 1 8 226 279 255
442 2 2 1 8 225 261 258
443 2 2 1 8 244 264 220
444 2 2 1 8 242 270 244
445 2 2 1 8 256 260 218
446 2 2 1 8 234 283 250
447 2 2 1 8 239 275 220
448 2 2 1 8 244 272 74
449 2 2 1 8 253 280 239
450 2 2 1 8 69 272 270
451 2 2 1 8 248 278 67
452 2 2 1 8 12 274 76
453 2 2 1 8 252 253 232
454 2 2 1 8 74 272 10
455 2 2 1 8 269 270 242
456 2 2 1 8 220 275 242
457 2 2 1 8 230 256 246
458 2 2 1 8 218 268 267
459 2 2 1 8 230 278 248
460 2 2 1 8 260 268 218
461 2 2 1 8 266 271 32
462 2 2 1 8 270 272 244
463 2 2 1 8 219 263 251
464 2 2 1 8 247 259 217
465 2 2 1 8 228 271 266
466 2 2 1 8 230 260 256
467 2 2 1 8 267 279 226
468 2 2 1 8 66 278 246
469 2 2 1 8 277 282 83
470 2 2 1 8 67 269 248
471 2 2 1 8 267 268 229
472 2 2 1 8 246 278 230
473 2 2 1 8 229 279 267
474 2 2 1 8 261 283 234
475 2 2 1 8 236 282 277
476 2 2 1 8 80 283 261
477 2 2 1 8 231 268 260
478 2 2 2 9 111 110 293
479 2 2 2 9 119 120 291
480 2 2 2 9 89 90 287
481 2 2 2 9 87 88 288
482 2 2 2 9 293 110 294
483 2 2 2 9 119 291 292
484 2 2 2 9 89 287 300
485 2 2 2 9 288 88 300
486 2 2 2 9 284 288 296
487 2 2 2 9 287 285 297
488 2 2 2 9 287 286 300
489 2 2 2 9 286 288 300
490 2 2 2 9 290 287 297
491 2 2 2 9 288 289 296
492 2 2 2 9 288 286 289
493 2 2 2 9 286 287 290
494 2 2 2 9 286 290 299
495 2 2 2 9 289 286 299
496 2 2 2 9 287 90 298
497 2 2 2 9 87 288 295
498 2 2 2 9 19 119 292
499 2 2 2 9 120 13 291
500 2 2 2 9 14 111 293
501 2 2 2 9 110 18 294
502 2 2 2 9 285 287 298
503 2 2 2 9 288 284 295
504 2 2 2 9 113 19 292
505 2 2 2 9 13 86 291
506 2 2 2 9 18 118 294
507 2 2 2 9 91 14 293
508 2 2 2 9 285 293 294
509 2 2 2 9 291 284 292
510 2 2 2 9 117 116 290
511 2 2 2 9 115 114 289
512 2 2 2 9 117 290 297
513 2 2 2 9 289 114 296
514 2 2 2 9 115 289 299
515 2 2 2 9 290 116 299
516 2 2 2 9 90 91 298
517 2 2 2 9 118 117 297
518 2 2 2 9 86 87 295
519 2 2 2 9 114 113 296
520 2 2 2 9 88 89 300
521 2 2 2 9 116 115 299
522 2 2 2 9 291 86 295
523 2 2 2 9 91 293 298
524 2 2 2 9 113 292 296
525 2 2 2 9 294 118 297
526 2 2 2 9 293 285 298
527 2 2 2 9 285 294 297
528 2 2 2 9 292 284 296
529 2 2 2 9 284 291 295
530 2 2 3 10 121 313 318
531 2 2 3 10 313 123 319
532 2 2 3 10 314 108 316
533 2 2 3 10 106 314 317
534 2 2 3 10 304 309 320
535 2 2 3 10 310 303 320
536 2 2 3 10 301 308 310
537 2 2 3 10 307 301 309
538 2 2 3 10 301 307 315
539 2 2 3 10 308 301 315
540 2 2 3 10 306 312 321
541 2 2 3 10 311 302 315
542 2 2 3 10 307 311 315
543 2 2 3 10 302 312 315
544 2 2 3 10 312 308 315
545 2 2 3 10 311 305 321
546 2 2 3 10 309 301 320
547 2 2 3 10 301 310 320
548 2 2 3 10 121 122 313
549 2 2 3 10 122 123 313
550 2 2 3 10 107 108 314
551 2 2 3 10 106 107 314
552 2 2 3 10 312 302 321
553 2 2 3 10 302 311 321
554 2 2 3 10 313 305 318
555 2 2 3 10 306 313 319
556 2 2 3 10 304 314 316
557 2 2 3 10 314 303 317
558 2 2 3 10 127 128 311
559 2 2 3 10 100 99 312
560 2 2 3 10 309 304 322
561 2 2 3 10 303 310 323
562 2 2 3 10 125 126 309
563 2 2 3 10 98 97 310
564 2 2 3 10 127 311 326
565 2 2 3 10 312 99 327
566 2 2 3 10 312 306 325
567 2 2 3 10 305 311 324
568 2 2 3 10 311 307 326
569 2 2 3 10 308 312 327
570 2 2 3 10 309 126 326
571 2 2 3 10 98 310 327
572 2 2 3 10 125 309 322
573 2 2 3 10 310 97 323
574 2 2 3 10 307 309 326
575 2 2 3 10 310 308 327
576 2 2 3 10 96 15 317
577 2 2 3 10 17 124 316
578 2 2 3 10 15 106 317
579 2 2 3 10 108 17 316
580 2 2 3 10 20 121 318
581 2 2 3 10 123 16 319
582 2 2 3 10 129 20 318
583 2 2 3 10 16 101 319
584 2 2 3 10 311 128 324
585 2 2 3 10 100 312 325
586 2 2 3 10 124 125 322
587 2 2 3 10 97 96 323
588 2 2 3 10 128 129 324
589 2 2 3 10 101 100 325
590 2 2 3 10 126 127 326
591 2 2 3 10 99 98 327
592 2 2 3 10 314 304 320
593 2 2 3 10 303 314 320
594 2 2 3 10 313 306 321
595 2 2 3 10 305 313 321
596 2 2 3 10 316 124 322
597 2 2 3 10 96 317 323
598 2 2 3 10 129 318 324
599 2 2 3 10 319 101 325
600 2 2 3 10 304 316 322
601 2 2 3 10 317 303 323
602 2 2 3 10 318 305 324
603 2 2 3 10 306 319 325
$EndElements
