$MeshFormat
2.2 0 8
$EndMeshFormat
$PhysicalNames
3
2 1 "Exterior"
2 2 "RearChamberInterface"
2 3 "FrontChamberInterface"
$EndPhysicalNames
$Nodes
557
1 0 -651.700000000001 2.09321723474286e-11
2 304.5 -651.700000000001 2.09321723474286e-11
3 304.5 262.700000000001 -7.93365373397137e-12
4 0 262.700000000001 -7.93365373397137e-12
5 0 262.699999999975 -812.799999999997
6 304.5 262.699999999975 -812.799999999997
7 0 -651.700000000028 -812.799999999979
8 304.5 -651.700000000028 -812.799999999979
9 0 91.7 1.63656856460673e-12
10 289 91.7000000000002 1.58174995015176e-12
11 289 -91.6999999999997 4.688153973052945e-12
12 0 -91.7 4.742972587507915e-12
13 0 244.7 -7.774739771767004e-13
14 289 244.7 -8.307646823587052e-13
15 289 109.7 1.300863524921595e-12
16 0 109.7 1.3541542301036e-12
17 152.2500000000004 -651.700000000001 2.09321723474286e-11
18 304.5 234.4792813524766 -7.276446515759675e-12
19 304.5 206.8861376939684 -6.398109040399019e-12
20 304.5 179.2930186014438 -5.519772347016098e-12
21 304.5 151.6999024466248 -4.641435747145425e-12
22 304.5 124.10676800645 -3.763098565220258e-12
23 304.5 96.30375609353212 -2.87808062042785e-12
24 304.5 68.68176136660202 -1.998824765671471e-12
25 304.5 41.08746599105416 -1.120450629165949e-12
26 304.5 13.4931560457394 -2.420760288795541e-13
27 304.5 -14.10116368363856 6.362988828504939e-13
28 304.5 -41.69548820140449 1.514673947003207e-12
29 304.5 -69.28981331789112 2.393049030214239e-12
30 304.5 -96.92043596235271 3.272579526504616e-12
31 304.5 -127.81369114975 4.255965258220769e-12
32 304.5 -167.2864395784082 5.512451095045077e-12
33 304.5 -218.9926461857045 7.158349059191167e-12
34 304.5 -287.1198507996757 9.326955784273883e-12
35 304.5 -377.0430401106983 1.218936639081121e-11
36 304.5 -495.8168421091729 1.597014188625423e-11
37 27.64330996379141 262.700000000001 -7.93365373397137e-12
38 55.28502500372802 262.700000000001 -7.93365373397137e-12
39 82.92656241278102 262.700000000001 -7.93365373397137e-12
40 110.5683551155745 262.700000000001 -7.93365373397137e-12
41 138.2098364316812 262.700000000001 -7.93365373397137e-12
42 165.8516787804301 262.700000000001 -7.93365373397137e-12
43 193.4931284496001 262.700000000001 -7.93365373397137e-12
44 221.1349926699526 262.700000000001 -7.93365373397137e-12
45 248.7764352785363 262.700000000001 -7.93365373397137e-12
46 276.4182934464972 262.700000000001 -7.93365373397137e-12
47 0 262.6999999999802 -649.3576955563951
48 0 262.6999999999853 -487.123900803353
49 0 262.6999999999895 -352.6204370281209
50 0 262.6999999999928 -249.7640231129177
51 0 262.6999999999953 -171.079444692337
52 0 262.6999999999972 -110.8353132080032
53 0 262.6999999999987 -64.60673861487203
54 0 262.6999999999998 -28.85994391988334
55 304.5 262.6999999999801 -650.960897912924
56 304.5 262.6999999999852 -490.1246751023446
57 304.5 262.6999999999894 -355.993014665209
58 304.5 262.6999999999927 -253.1202924902685
59 304.5 262.6999999999952 -174.1704928198852
60 304.5 262.6999999999971 -113.4916649997001
61 304.5 262.6999999999986 -66.67955010451487
62 304.5 262.6999999999998 -30.12582591029616
63 152.2500000000004 262.699999999975 -812.799999999997
64 0 -499.3000000000277 -812.8000000004309
65 0 -346.9000000000274 -812.8000000003443
66 0 -194.5000000000271 -812.8000000002577
67 0 -42.10000000002688 -812.8000000001711
68 0 110.2999999999734 -812.8000000000844
69 304.5 -499.3000000000277 -812.8000000004309
70 304.5 -346.9000000000274 -812.8000000003443
71 304.5 -194.5000000000271 -812.8000000002577
72 304.5 -42.10000000002688 -812.8000000001711
73 304.5 110.2999999999734 -812.8000000000844
74 152.2500000000004 -651.700000000028 -812.799999999979
75 0 -651.700000000007 -162.5599999999795
76 0 -651.7000000000122 -325.1199999999796
77 0 -651.7000000000173 -487.6799999999799
78 0 -651.7000000000224 -650.2399999999795
79 304.5 -651.700000000007 -162.5599999999795
80 304.5 -651.7000000000122 -325.1199999999796
81 304.5 -651.7000000000173 -487.6799999999799
82 304.5 -651.7000000000224 -650.2399999999795
83 22.23076923076927 91.70000000000002 -2.73153510338156e-12
84 44.46153846153855 91.70000000000003 -2.731535103381561e-12
85 66.69230769230776 91.70000000000005 -2.731535103381561e-12
86 88.92307692307699 91.70000000000007 -2.731535103381562e-12
87 111.1538461538463 91.70000000000009 -2.731535103381562e-12
88 133.3846153846156 91.7000000000001 -2.731535103381563e-12
89 155.6153846153849 91.70000000000012 -2.731535103381564e-12
90 177.8461538461543 91.70000000000013 -2.731535103381564e-12
91 200.0769230769235 91.70000000000014 -2.731535103381565e-12
92 222.3076923076927 91.70000000000017 -2.731535103381565e-12
93 244.5384615384617 91.70000000000019 -2.731535103381566e-12
94 266.7692307692309 91.7000000000002 -2.731535103381566e-12
95 289.0000000000001 68.7750000000002 -2.00179271259622e-12
96 289.0000000000001 45.85000000000019 -1.272050321810881e-12
97 289.0000000000001 22.92500000000018 -5.42307931025543e-13
98 289.0000000000001 1.989519660128281e-13 1.874344597597953e-13
99 289.0000000000002 -22.92499999999981 9.171768505451344e-13
100 289.0000000000002 -45.84999999999977 1.646919241330471e-12
101 289.0000000000002 -68.77499999999978 2.376661632115809e-12
102 266.7692307692307 -91.69999999999982 3.106404022901147e-12
103 244.5384615384615 -91.69999999999983 3.106404022901148e-12
104 222.3076923076922 -91.69999999999985 3.106404022901148e-12
105 200.076923076923 -91.69999999999986 3.106404022901149e-12
106 177.8461538461537 -91.69999999999987 3.106404022901149e-12
107 155.6153846153844 -91.69999999999989 3.10640402290115e-12
108 133.384615384615 -91.69999999999992 3.10640402290115e-12
109 111.1538461538457 -91.69999999999993 3.106404022901151e-12
110 88.92307692307648 -91.69999999999995 3.106404022901151e-12
111 66.69230769230734 -91.69999999999996 3.106404022901152e-12
112 44.46153846153821 -91.69999999999997 3.106404022901152e-12
113 22.23076923076913 -91.69999999999999 3.106404022901153e-12
114 0 -116.0856417158999 3.882641165173599e-12
115 0 -147.4883841996246 4.882244758512295e-12
116 0 -188.0099292722806 6.172115606042756e-12
117 0 -240.3131109856553 7.837016320075386e-12
118 0 -307.828503369273 9.986148003950256e-12
119 0 -394.9829165351385 1.276042367815536e-11
120 0 -507.4903475082671 1.634172974836025e-11
121 22.23076923076927 244.7 -7.60178966347565e-12
122 44.46153846153855 244.7 -7.601789663475652e-12
123 66.69230769230776 244.7 -7.601789663475652e-12
124 88.92307692307699 244.7 -7.601789663475652e-12
125 111.1538461538463 244.7000000000001 -7.601789663475653e-12
126 133.3846153846156 244.7000000000001 -7.601789663475653e-12
127 155.6153846153849 244.7000000000001 -7.601789663475653e-12
128 177.8461538461543 244.7000000000001 -7.601789663475655e-12
129 200.0769230769235 244.7000000000001 -7.601789663475655e-12
130 222.3076923076927 244.7000000000002 -7.601789663475655e-12
131 244.5384615384617 244.7000000000002 -7.601789663475657e-12
132 266.7692307692309 244.7000000000002 -7.601789663475657e-12
133 289 222.2 -6.885575757579445e-12
134 289.0000000000001 199.7 -6.169361851683257e-12
135 289.0000000000001 177.2 -5.453147945787068e-12
136 289.0000000000001 154.7 -4.73693403989088e-12
137 289.0000000000001 132.2 -4.020720133994692e-12
138 266.7692307692307 109.7000000000001 -3.304506228098523e-12
139 244.5384615384615 109.7000000000001 -3.304506228098522e-12
140 222.3076923076922 109.7000000000001 -3.304506228098522e-12
141 200.076923076923 109.7 -3.304506228098521e-12
142 177.8461538461537 109.7 -3.304506228098521e-12
143 155.6153846153844 109.7 -3.30450622809852e-12
144 133.384615384615 109.7 -3.304506228098519e-12
145 111.1538461538457 109.7 -3.304506228098519e-12
146 88.92307692307648 109.7 -3.304506228098519e-12
147 66.69230769230734 109.6999999999999 -3.304506228098518e-12
148 44.46153846153821 109.6999999999999 -3.304506228098517e-12
149 22.23076923076913 109.6999999999999 -3.304506228098517e-12
150 0 222.2 6.37870577961797e-12
151 0 199.7 6.37870577961797e-12
152 0 177.2 6.37870577961797e-12
153 0 154.7 6.37870577961797e-12
154 0 132.2 6.37870577961797e-12
155 0 68.77499999999995 6.37870577961797e-12
156 0 45.84999999999991 6.37870577961797e-12
157 0 22.92499999999987 6.37870577961797e-12
158 0 -1.70530256582424e-13 6.37870577961797e-12
159 0 -22.92500000000018 6.37870577961797e-12
160 0 -45.85000000000014 6.37870577961797e-12
161 0 -68.77500000000003 6.37870577961797e-12
162 144.1240251818789 -234.8734575639324 7.663862745680091e-12
163 78.1082479524305 -170.960625314144 5.629406780235255e-12
164 234.2386677995949 -157.6307418673712 5.205093540743964e-12
165 166.7307692307691 -157.612071727763 5.204499237916743e-12
166 152.3769048754336 -388.1669805944644 1.254346065138163e-11
167 113.8222258635029 -138.3352815675701 4.590885674637944e-12
168 33.43381221830128 -138.8987439005991 4.608821655009684e-12
169 211.0957392569462 -253.8024968903094 8.26640679860485e-12
170 209.1692772850176 -132.6043133431942 4.408459046346959e-12
171 256.3667281640577 -128.4304786832176 4.275598671929771e-12
172 79.24054663423446 -131.8368809585281 4.384030346536605e-12
173 84.41203186971586 -241.8029752291251 7.884441275145174e-12
174 233.489223629203 -329.3042366694092 1.066975772967804e-11
175 166.8010507871096 -120.6935746803086 4.029319639242335e-12
176 76.52384104174401 -342.6311788296894 1.109397734293434e-11
177 277.8846153846156 -115.5138828073446 3.864441090456811e-12
178 132.6449113930084 -519.9240188702483 1.673751500750664e-11
179 129.1865817816205 -177.2322740756229 5.82904420494049e-12
180 34.70270650272976 -168.0848992522763 5.537867447121577e-12
181 203.1516496469932 -198.8999921190835 6.518765137018901e-12
182 266.8832748439059 -193.1395428820562 6.3354000771181e-12
183 99.73415471408302 -114.9285714603583 3.84580961819057e-12
184 233.3524258487111 -117.1470476660715 3.916427551898642e-12
185 144.4999999999997 -113.4974854218011 3.800255675019522e-12
186 190.0863920877392 -113.7194163135364 3.807320119055469e-12
187 55.24704304104306 -115.7601152918094 3.872279096210459e-12
188 274.0622143653623 -148.3024628280245 4.908158288919073e-12
189 120.5189684232093 -110.0322676899459 3.689951802730066e-12
190 296.75 -56.4025753798237 1.982825962665918e-12
191 157.3298643290449 -309.5110986880922 1.003970792240953e-11
192 46.35252774471449 -213.0410008519368 6.968897896924189e-12
193 296.75 81.36512936503368 -2.402558300519288e-12
194 225.8728505012843 -447.2299545409136 1.442353724089413e-11
195 296.75 56.09855683941419 -1.598279607311143e-12
196 296.7500000000001 -81.67131232006079 2.78717355293394e-12
197 22.72325850792595 -114.474948192196 3.831370005181862e-12
198 277.8846153846154 100.7000000000001 -3.018020665740036e-12
199 198.3953277624643 -161.5790971672523 5.330776517241464e-12
200 234.1893954486608 253.7000000000006 -7.888275225834131e-12
201 78.55436970018802 -444.4673396882812 1.433559843315677e-11
202 123.3291632714294 253.7000000000006 -7.888275225834129e-12
203 11.1153846153846 100.6999999999999 -3.01802066574003e-12
204 255.6538461538462 100.7000000000001 -3.018020665740036e-12
205 33.34615384615378 100.7 -3.018020665740032e-12
206 233.4230769230771 100.7000000000001 -3.018020665740035e-12
207 144.5 100.7 -3.018020665740034e-12
208 55.57692307692297 100.7 -3.018020665740032e-12
209 122.2692307692307 100.7 -3.018020665740034e-12
210 166.7307692307694 100.7 -3.018020665740032e-12
211 77.80769230769214 100.7 -3.018020665740032e-12
212 100.0384615384612 100.7000000000002 -3.018020665740039e-12
213 211.1923076923078 100.7000000000001 -3.018020665740035e-12
214 188.9615384615387 100.7 -3.018020665740033e-12
215 77.80769230769189 -109.4478901779533 3.671350056046418e-12
216 12.46851979864017 253.7000000000005 -7.888275225834129e-12
217 227.726063110061 -573.1246088914893 1.843098177973308e-11
218 53.27476967939757 -270.8345625034652 8.808566898083892e-12
219 210.9985421212166 -109.3741554645603 3.669002952620671e-12
220 255.6538461538463 -108.9818998843591 3.656516779233759e-12
221 292.2363629649157 -107.7116608009574 3.616082872773976e-12
222 98.3929601513197 253.7000000000005 -7.888275225834129e-12
223 209.2531841260422 253.7000000000006 -7.888275225834131e-12
224 264.093647546011 -256.471754685431 8.3513738897732e-12
225 105.7692809917433 -279.7763549035039 9.093199611885873e-12
226 144.2081255326003 -141.4741374946131 4.690800886351407e-12
227 96.43668290607205 -207.5820666069523 6.795130580585041e-12
228 57.54249669372053 -148.5454792607102 4.915893922183553e-12
229 187.2031081834908 -138.9589948244769 4.610739546099656e-12
230 162.5712261495362 -192.9108382570206 6.328120013438398e-12
231 151.3941031672773 262.699999999996 -148.8787832843635
232 217.4293088618421 262.6999999999978 -90.08560755210704
233 84.63827786235815 262.6999999999979 -87.72102591143721
234 151.7521776278366 262.6999999999987 -63.8743526793088
235 161.1518337358123 262.6999999999911 -304.5566535777389
236 260.3582765358294 262.6999999999991 -49.82923034995747
237 43.40681130065379 262.6999999999991 -49.01474852537694
238 241.2367423148659 262.6999999999942 -205.5025114871733
239 207.3140605597763 262.6999999999993 -44.550494745837
240 68.7300147863605 262.6999999999941 -207.2051095462343
241 96.74745876417776 262.6999999999993 -43.60752392953498
242 151.7594524324598 262.6999999999857 -472.5428458294477
243 256.2098191833564 262.6999999999964 -137.2036440177289
244 48.44069222328537 262.6999999999964 -136.2296990308749
245 151.9750384457182 262.7 -22.79676983847867
246 266.328763413077 262.6999999999982 -80.09619048394961
247 37.51456551753081 262.6999999999982 -78.74412890655765
248 236.308672048437 262.6999999999998 -28.16558268138806
249 67.58278853866601 262.6999999999998 -27.86535329636979
250 152.4324444866006 262.6999999999812 -615.5071856373552
251 73.52551109806446 262.6999999999913 -297.896444802583
252 180.6350379097109 262.6999999999997 -32.05197226910002
253 123.2701328717127 262.6999999999997 -31.82111295197205
254 129.1168051012504 262.6999999999973 -107.9119759745095
255 173.7286951550697 262.6999999999973 -107.0575079446326
256 154.4580060683161 262.6999999999937 -219.4689737460914
257 276.2413459568339 262.6999999999999 -26.28566571735314
258 26.68765738930269 262.6999999999999 -26.7535888571324
259 236.4756881021769 262.6999999999916 -289.0100326594367
260 209.7765145747643 262.6999999999886 -382.3445247838472
261 116.9687264880431 262.6999999999985 -70.71694945452793
262 186.5958953820547 262.6999999999985 -71.58252285808078
263 102.1514325217003 262.6999999999958 -152.8162749158002
264 207.4346139145553 262.7 -20.34543428483528
265 67.49242775072409 262.6999999999989 -57.01269316359981
266 200.9987228202712 262.699999999996 -149.8859796954006
267 96.60991211080537 262.7 -19.88565585300535
268 86.24272447436097 262.6999999999883 -391.7382399285055
269 236.0556660438391 262.6999999999989 -57.52700036081478
270 284.2693833769785 262.6999999999991 -49.97454836869747
271 84.06088319901104 262.6999999999776 -729.3582673564564
272 220.8712686217001 262.6999999999776 -729.9033616035048
273 21.52180684149746 262.6999999999991 -49.5958297647644
274 155.4031157635468 -116.1999917979273 -812.8000000002125
275 158.0720644415402 -434.7632653061501 -812.8000000003937
276 157.2477744546096 51.62857611545905 -812.8000000001172
277 153.7458633675145 -272.2938761840311 -812.8000000003013
278 112.5645142319685 -543.957854295432 -812.8000000004557
279 107.8569326241036 159.9232885111043 -812.8000000000557
280 211.8721010112448 174.3216949466337 -812.8000000000475
281 206.3773157347018 -556.2842239203331 -812.8000000004628
282 156.8721578700446 -651.7000000000205 -586.3771428571225
283 156.8721578700446 -651.7000000000091 -226.4228571428366
284 153.7907192900148 -651.7000000000148 -406.3999999999797
285 116.3887594293684 -651.7000000000056 -114.6658796929644
286 116.3887594293683 -651.700000000024 -698.1341203069944
287 213.0372738999163 -651.7000000000049 -95.17267669081389
288 213.0372738999162 -651.7000000000246 -717.6273233091448
289 304.5 -110.9924652853297 -370.9773862374159
290 304.5 59.52479376257216 -202.7839268723378
291 304.5 -116.9343580423918 -177.1483121922159
292 304.5 -311.8595639332083 -228.8516121127795
293 304.5 178.9216502707569 -101.4554686715779
294 304.5 -29.97816981762955 -108.2826713881992
295 304.5 82.07523270053824 -78.77523040523664
296 304.5 -365.104508323384 -512.7418015279327
297 304.5 -106.5529691928763 -85.36279098474387
298 304.5 -218.9053450221697 -133.2782161111091
299 304.5 76.38819515905968 -402.8001494191118
300 304.5 23.73799450065616 -48.77409410055401
301 304.5 155.0421160929767 -203.1269044011053
302 304.5 -72.83044196508833 -589.8073099998541
303 304.5 211.7302513227445 -50.14986179632353
304 304.5 -48.59443877140876 -56.75777782048908
305 304.5 139.9353172980398 -48.12185402963456
306 304.5 -216.4671838231011 -256.6410244785435
307 304.5 -185.0086145112538 -73.18460755991077
308 304.5 -337.9147582785488 -74.99856974873632
309 304.5 -473.8209533189475 -163.7112360505965
310 304.5 21.97179276837537 -130.8250654649876
311 304.5 -470.0664653669271 -351.1459398145063
312 304.5 -34.85212868576616 -269.2492914637469
313 304.5 82.48463679024186 -44.43765155525153
314 304.5 -112.3872038581579 -47.59939186904955
315 304.5 -11.2836639832382 -45.57021692915549
316 304.5 115.0592753191715 -153.5975558041786
317 304.5 209.3992419952213 -148.6149707506981
318 304.5 -253.0562484926922 -59.76072273578978
319 304.5 174.6352818840415 -304.556653577736
320 304.5 177.2963513588651 -44.68314140822571
321 304.5 -17.89960559976137 -177.7568016659134
322 304.5 -310.3581401380568 -357.3370897927535
323 304.5 -218.9514225255302 -630.2459974636643
324 304.5 115.2059419484219 -557.9521654436867
325 304.5 -491.6886893012324 -644.1053203889622
326 304.5 223.4094655572247 -85.97947973371032
327 304.5 -145.6939454385811 -121.857680446822
328 304.5 -83.14705824415077 -29.49593841863071
329 304.5 -147.5500653640801 -30.85243032628938
330 304.5 110.1409881364031 -27.48934258855115
331 304.5 54.75207673844133 -27.50828518555517
332 304.5 -212.7612944874378 -482.3325040692467
333 304.5 -54.79488246160105 -22.94688320915083
334 304.5 26.76390164196187 -20.87630979113766
335 304.5 -78.49204088486741 -136.1735947410947
336 304.5 123.8062819278404 -91.40459717872477
337 304.5 49.53577908234809 -304.961699665359
338 304.5 -127.4227005688273 -251.8463097886412
339 304.5 138.1694438378034 -20.45240514551512
340 304.5 233.1524312339124 -24.47171702529153
341 304.5 -83.39235960072374 -62.24261857826275
342 304.5 27.14673447769096 -697.4796760080815
343 304.5 -508.315337106731 -477.721958804966
344 304.5 107.6884913706126 -58.04573515147973
345 304.5 179.9476752837811 -422.8574930402307
346 304.5 -439.9486573525302 -80.68445298570697
347 304.5 -28.18605428139202 -23.24929193978437
348 304.5 190.8937604524387 -69.65761240749873
349 304.5 -176.4441647250615 -193.081485293198
350 304.5 1.737361706681412 -23.0783187934386
351 304.5 -30.81513131432729 -464.4380856934803
352 304.5 -100.2470260025963 -708.6265966944056
353 304.5 195.6424417891612 -23.14137256832163
354 304.5 -1.006539564536666 -79.50266115499113
355 304.5 -194.3788028264278 -32.75955212439544
356 304.5 109.6844927054846 -253.8572961291345
357 304.5 57.45609981498043 -57.45868955748944
358 304.5 -556.0071937524455 -98.50154063772237
359 304.5 214.6003648949544 -215.8400141928349
360 304.5 -350.2122903771552 -679.6081620002132
361 304.5 -66.28012793702493 -91.99719379840082
362 304.5 165.4964605240337 -19.54351518007678
363 304.5 -549.965362384082 -234.2261430698421
364 304.5 -207.6395108749015 -350.578730741989
365 304.5 -139.4385596729899 -71.77138023736308
366 304.5 158.5673108100897 -141.9367310971814
367 304.5 74.36530659352533 -124.3452216818762
368 304.5 -381.4439236966616 -158.2944979757064
369 304.5 -244.2167459184101 -192.8862257906778
370 304.5 -295.8001449683271 -149.6545362517442
371 304.5 -10.14715020880308 -362.4853224958228
372 304.5 -72.74449487854906 -205.6523952273583
373 304.5 82.47264382504412 -19.88705586587247
374 304.5 153.9170696296305 -701.1978850742189
375 304.5 -416.2524014729805 -248.9277531360307
376 304.5 -113.5636909156983 -21.58955212279238
377 304.5 43.75446308265458 -88.68495436579161
378 304.5 238.7384296227761 -51.48128691402729
379 304.5 162.4393612590207 -69.62327065013915
380 304.5 -575.5000000000742 -731.5200000002512
381 77.80769230769188 177.2 6.37870577961797e-12
382 212.2107803219894 178.2084352967241 6.37870577961797e-12
383 144.5000000000003 178.9180582949813 6.37870577961797e-12
384 248.0583915717968 203.2858065365254 6.37870577961797e-12
385 40.90824833280436 151.1335955814641 6.37870577961797e-12
386 41.06387490397695 202.2485013657547 6.37870577961797e-12
387 247.4661694182036 152.2898993370485 6.37870577961797e-12
388 112.080962049884 153.5621302102342 6.37870577961797e-12
389 177.5872655531654 153.5772658004664 6.37870577961797e-12
390 110.9438115147897 201.495091857069 6.37870577961797e-12
391 178.7214255189651 201.4995002509872 6.37870577961797e-12
392 77.80769230769191 142.5348016655709 6.37870577961797e-12
393 211.1923076923076 142.534801665571 6.37870577961797e-12
394 144.4999999999997 141.8619132330622 6.37870577961797e-12
395 211.1923076923081 212.5150431041718 6.37870577961797e-12
396 77.80769230769245 212.5150431041719 6.37870577961797e-12
397 144.5000000000003 212.7481301526113 6.37870577961797e-12
398 260.4836386613181 177.2000000000002 6.37870577961797e-12
399 28.516361338682 177.2 6.37870577961797e-12
400 167.620951939438 177.9767194541123 6.37870577961797e-12
401 101.0415589530679 177.4426496658016 6.37870577961797e-12
402 25.03017676495968 134.6982903631698 6.37870577961797e-12
403 263.9698232350403 219.7017096368303 6.37870577961797e-12
404 263.9698232350405 134.69829036317 6.37870577961797e-12
405 25.03017676495969 219.7017096368301 6.37870577961797e-12
406 231.7724367482612 131.8105667758128 6.37870577961797e-12
407 57.11906120326616 131.5055178336076 6.37870577961797e-12
408 231.861486846064 222.9889691982864 6.37870577961797e-12
409 57.20980555963527 222.7078220135613 6.37870577961797e-12
410 98.24862400213983 132.3950863116214 6.37870577961797e-12
411 190.8245866443819 132.414652449412 6.37870577961797e-12
412 124.8718375788733 221.9223165532293 6.37870577961797e-12
413 164.2231962830921 221.9229463237891 6.37870577961797e-12
414 236.5359948124065 178.0871653150604 6.37870577961797e-12
415 53.16202682318695 174.9794490041315 6.37870577961797e-12
416 164.8684433775177 131.8489299320652 6.37870577961797e-12
417 124.7172489127909 132.5313222936765 6.37870577961797e-12
418 191.025232798354 222.4087948702771 6.37870577961797e-12
419 98.34284562115081 222.8561023258502 6.37870577961797e-12
420 64.6173273445113 195.5240497229519 6.37870577961797e-12
421 225.1859641850439 159.8612949643215 6.37870577961797e-12
422 156.3309637135493 159.6787794296859 6.37870577961797e-12
423 132.8050097685179 159.6680882408934 6.37870577961797e-12
424 267.4468672039776 197.6955773685706 6.37870577961797e-12
425 21.55313279602241 197.6955773685704 6.37870577961797e-12
426 21.5531327960224 156.7044226314296 6.37870577961797e-12
427 267.4468672039777 156.7044226314298 6.37870577961797e-12
428 198.6044460831873 159.2148226040669 6.37870577961797e-12
429 90.56593340125094 158.9021526976511 6.37870577961797e-12
430 90.41354191981883 194.8575215520857 6.37870577961797e-12
431 199.3496527106371 195.7569075563952 6.37870577961797e-12
432 132.2153746231625 196.6693728827893 6.37870577961797e-12
433 157.3318083524895 196.4724182041037 6.37870577961797e-12
434 225.8110247160875 197.677555755743 6.37870577961797e-12
435 62.95096995890742 156.8323272328533 6.37870577961797e-12
436 123.1438316170223 177.8900402120361 6.37870577961797e-12
437 77.78963841483639 124.5753063036143 6.37870577961797e-12
438 211.2077893255458 124.5989662948678 6.37870577961797e-12
439 189.5709641530268 177.6373697276278 6.37870577961797e-12
440 144.5304921017442 124.2533187422309 6.37870577961797e-12
441 211.2184480640179 230.2498617491729 6.37870577961797e-12
442 77.80442630214272 230.2585123255395 6.37870577961797e-12
443 144.5096973328538 229.9131884479315 6.37870577961797e-12
444 249.4318524290506 125.9475479328352 6.37870577961797e-12
445 39.56814757094931 125.9475479328349 6.37870577961797e-12
446 39.56366291373644 228.4559380254095 6.37870577961797e-12
447 249.4363370862637 228.4559380254098 6.37870577961797e-12
448 277.8846153846155 233.4500000000001 6.37870577961797e-12
449 11.11538461538456 120.9499999999999 6.37870577961797e-12
450 11.11538461538461 233.45 6.37870577961797e-12
451 277.8846153846155 120.95 6.37870577961797e-12
452 98.91851748204679 -0.4890507073811237 6.37870577961797e-12
453 197.2566406042056 1.511752071495135e-13 6.37870577961797e-12
454 150.9494759804213 32.66722370867373 6.37870577961797e-12
455 149.8889387733899 -32.58561299567749 6.37870577961797e-12
456 59.58709650524774 33.04795680368566 6.37870577961797e-12
457 53.48289445066787 -34.37800916551091 6.37870577961797e-12
458 233.82253094568 40.53599773065355 6.37870577961797e-12
459 233.3591210916341 -40.3782496111211 6.37870577961797e-12
460 97.70056668501267 45.81755492664662 6.37870577961797e-12
461 100.3949499620924 -45.62917861683589 6.37870577961797e-12
462 192.0622574784488 46.52945684493643 6.37870577961797e-12
463 192.0622574784488 -46.52945684493609 6.37870577961797e-12
464 250.3698949404172 1.123165743990717 6.37870577961797e-12
465 36.73723070974548 1.4974514125091 6.37870577961797e-12
466 162.4968227430176 -0.5551373581011002 6.37870577961797e-12
467 37.07407984648243 60.66892414191953 6.37870577961797e-12
468 37.07407984648221 -60.66892414191959 6.37870577961797e-12
469 256.8519140901013 62.18263184659174 6.37870577961797e-12
470 256.8519140901014 -62.18263184659131 6.37870577961797e-12
471 131.321516636509 -60.36086275859949 6.37870577961797e-12
472 129.9310559754037 59.57190677300727 6.37870577961797e-12
473 166.5723353641635 -60.60748661489907 6.37870577961797e-12
474 166.5723353641636 60.60748661489929 6.37870577961797e-12
475 126.8929742601294 10.07540686714149 6.37870577961797e-12
476 75.62582608475864 60.74717659287806 6.37870577961797e-12
477 76.20889648559067 -60.54411569988933 6.37870577961797e-12
478 70.47468524293591 -9.531823694367597 6.37870577961797e-12
479 116.2610819552048 -25.29745686913142 6.37870577961797e-12
480 216.3731244641971 61.20969088722073 6.37870577961797e-12
481 216.3530195663228 -61.20284703224961 6.37870577961797e-12
482 82.2588487357026 23.65051850330689 6.37870577961797e-12
483 27.66004011039769 25.10557178113039 6.37870577961797e-12
484 29.14814470867212 -26.02099512299544 6.37870577961797e-12
485 259.2880260673426 25.88801873003235 6.37870577961797e-12
486 256.4593420361159 -24.7515399134891 6.37870577961797e-12
487 211.472091460068 24.77287805739188 6.37870577961797e-12
488 210.280132439426 -24.60323671766442 6.37870577961797e-12
489 178.3183138722406 21.29682519238109 6.37870577961797e-12
490 181.5919989611015 -18.19283143891077 6.37870577961797e-12
491 127.1614087485099 36.79054070570582 6.37870577961797e-12
492 222.8640441691611 3.419375985588336 6.37870577961797e-12
493 91.13970680746513 -19.89775752274532 6.37870577961797e-12
494 98.02022524697652 72.00986110173035 6.37870577961797e-12
495 98.93129823616694 -71.6505010208499 6.37870577961797e-12
496 190.1191094650126 -72.62487923415958 6.37870577961797e-12
497 190.1219815932807 72.62585692772713 6.37870577961797e-12
498 60.73148359500999 9.804382815554536 6.37870577961797e-12
499 236.4000924966061 68.54042517892854 6.37870577961797e-12
500 236.339653152616 -68.51985118211529 6.37870577961797e-12
501 56.24246091032857 73.54635344201979 6.37870577961797e-12
502 56.32575668187572 -73.5173447430214 6.37870577961797e-12
503 139.102452907992 -12.31980958802131 6.37870577961797e-12
504 234.6665069353509 -17.03809690253912 6.37870577961797e-12
505 145.9135581366659 72.89428841843015 6.37870577961797e-12
506 146.1121953739663 -73.00699641637173 6.37870577961797e-12
507 76.82191055776653 -40.42135461216791 6.37870577961797e-12
508 104.6770583030322 16.50834948196631 6.37870577961797e-12
509 17.08075802950948 7.507804287077008 6.37870577961797e-12
510 271.7108789139277 -6.899418706807005 6.37870577961797e-12
511 167.0177161650383 -38.7884386082526 6.37870577961797e-12
512 168.7988922746937 40.5277076731291 6.37870577961797e-12
513 237.2276651042419 18.13466596527268 6.37870577961797e-12
514 19.25989266286271 46.33968975022021 6.37870577961797e-12
515 19.33736583020304 -46.38734819159178 6.37870577961797e-12
516 270.4288395236271 -46.56565651844492 6.37870577961797e-12
517 270.63501182911 46.64849025142954 6.37870577961797e-12
518 52.65788179502967 -14.76964097408865 6.37870577961797e-12
519 18.92276160454253 72.80033828958906 6.37870577961797e-12
520 18.93567379909916 -72.808281363151 6.37870577961797e-12
521 74.61850246785444 41.93868980346286 6.37870577961797e-12
522 16.02553346579603 -9.689871369735766 6.37870577961797e-12
523 122.2670365868992 -76.10909801674053 6.37870577961797e-12
524 122.1143020816301 75.86173170652081 6.37870577961797e-12
525 128.0745419510711 -41.01324370321095 6.37870577961797e-12
526 271.1015407933378 -73.11591792132494 6.37870577961797e-12
527 271.1359028442516 73.12972354348938 6.37870577961797e-12
528 148.6475510713333 14.09408981233845 6.37870577961797e-12
529 272.7805669763869 10.2966237568815 6.37870577961797e-12
530 213.4325010870985 43.26200588005064 6.37870577961797e-12
531 213.0136326439579 -43.17844755149282 6.37870577961797e-12
532 160.6149210986158 -19.26736808410554 6.37870577961797e-12
533 147.3554460447883 -51.53258909425608 6.37870577961797e-12
534 147.2376228283806 51.46661902937964 6.37870577961797e-12
535 82.2847648728272 5.161703997989494 6.37870577961797e-12
536 166.7307692307696 78.23214199172722 6.37870577961797e-12
537 166.730769230769 -78.2321419917271 6.37870577961797e-12
538 40.99845331436435 40.28914614304598 6.37870577961797e-12
539 38.53013384922254 -43.14570139254036 6.37870577961797e-12
540 117.5223273369964 -5.448227919645038 6.37870577961797e-12
541 77.80769230769242 78.36266091115967 6.37870577961797e-12
542 77.80769230769189 -78.36266091115971 6.37870577961797e-12
543 211.6730896116656 -78.07613233189842 6.37870577961797e-12
544 211.67743240478 78.07761065058645 6.37870577961797e-12
545 179.5526629196158 2.905246533609903 6.37870577961797e-12
546 57.35773652150604 51.70637448783532 6.37870577961797e-12
547 57.06395409237906 -54.02729660278674 6.37870577961797e-12
548 254.7052671689465 -77.68669777263197 6.37870577961797e-12
549 254.7102026851327 77.68848763201261 6.37870577961797e-12
550 35.38738611346298 77.85551142157375 6.37870577961797e-12
551 35.27566743408386 -77.78623443293968 6.37870577961797e-12
552 251.5148577952693 45.84585651119092 6.37870577961797e-12
553 251.3295857453556 -45.77309335699055 6.37870577961797e-12
554 115.1874312833104 -58.99368870607127 6.37870577961797e-12
555 112.6613378052176 59.09646841313103 6.37870577961797e-12
556 45.14286084695306 21.94890179118514 6.37870577961797e-12
557 68.62000000291772 -25.51783662262675 6.37870577961797e-12
$EndNodes
$Elements
1068
1 2 2 1 1 39 38 123
2 2 2 1 1 14 18 3
3 2 2 1 1 167 172 163
4 2 2 1 1 42 128 43
5 2 2 1 1 115 197 114
6 2 2 1 1 1 178 120
7 2 2 1 1 39 222 40
8 2 2 1 1 107 175 106
9 2 2 1 1 14 3 46
10 2 2 1 1 181 182 164
11 2 2 1 1 45 131 132
12 2 2 1 1 43 223 44
13 2 2 1 1 15 22 137
14 2 2 1 1 162 191 169
15 2 2 1 1 119 176 118
16 2 2 1 1 127 41 126
17 2 2 1 1 163 179 167
18 2 2 1 1 134 19 133
19 2 2 1 1 167 183 172
20 2 2 1 1 122 37 121
21 2 2 1 1 169 181 162
22 2 2 1 1 11 196 101
23 2 2 1 1 168 197 115
24 2 2 1 1 124 39 123
25 2 2 1 1 179 226 167
26 2 2 1 1 12 197 113
27 2 2 1 1 99 27 98
28 2 2 1 1 96 195 95
29 2 2 1 1 164 188 171
30 2 2 1 1 17 178 1
31 2 2 1 1 95 193 10
32 2 2 1 1 10 23 15
33 2 2 1 1 164 184 170
34 2 2 1 1 171 184 164
35 2 2 1 1 128 129 43
36 2 2 1 1 98 26 97
37 2 2 1 1 112 197 187
38 2 2 1 1 113 197 112
39 2 2 1 1 14 46 132
40 2 2 1 1 101 190 100
41 2 2 1 1 114 197 12
42 2 2 1 1 102 177 11
43 2 2 1 1 169 182 181
44 2 2 1 1 133 18 14
45 2 2 1 1 165 226 179
46 2 2 1 1 182 188 164
47 2 2 1 1 30 221 31
48 2 2 1 1 34 174 35
49 2 2 1 1 169 191 174
50 2 2 1 1 119 201 176
51 2 2 1 1 174 224 169
52 2 2 1 1 34 224 174
53 2 2 1 1 175 186 106
54 2 2 1 1 107 185 175
55 2 2 1 1 127 128 42
56 2 2 1 1 123 38 122
57 2 2 1 1 32 188 182
58 2 2 1 1 180 192 163
59 2 2 1 1 115 180 168
60 2 2 1 1 110 183 109
61 2 2 1 1 104 184 103
62 2 2 1 1 32 182 33
63 2 2 1 1 162 227 173
64 2 2 1 1 112 187 111
65 2 2 1 1 10 198 94
66 2 2 1 1 181 230 162
67 2 2 1 1 176 218 118
68 2 2 1 1 116 180 115
69 2 2 1 1 178 194 166
70 2 2 1 1 117 192 116
71 2 2 1 1 192 227 163
72 2 2 1 1 106 186 105
73 2 2 1 1 31 188 32
74 2 2 1 1 108 185 107
75 2 2 1 1 120 201 119
76 2 2 1 1 164 199 181
77 2 2 1 1 35 194 36
78 2 2 1 1 130 223 129
79 2 2 1 1 85 208 84
80 2 2 1 1 140 206 139
81 2 2 1 1 93 206 92
82 2 2 1 1 148 208 147
83 2 2 1 1 88 209 87
84 2 2 1 1 90 210 89
85 2 2 1 1 143 210 142
86 2 2 1 1 145 209 144
87 2 2 1 1 163 228 180
88 2 2 1 1 138 198 15
89 2 2 1 1 83 203 9
90 2 2 1 1 16 203 149
91 2 2 1 1 91 214 90
92 2 2 1 1 146 212 145
93 2 2 1 1 87 212 86
94 2 2 1 1 142 214 141
95 2 2 1 1 86 211 85
96 2 2 1 1 141 213 140
97 2 2 1 1 92 213 91
98 2 2 1 1 147 211 146
99 2 2 1 1 84 205 83
100 2 2 1 1 139 204 138
101 2 2 1 1 94 204 93
102 2 2 1 1 149 205 148
103 2 2 1 1 144 207 143
104 2 2 1 1 89 207 88
105 2 2 1 1 174 194 35
106 2 2 1 1 125 222 124
107 2 2 1 1 177 221 11
108 2 2 1 1 36 217 2
109 2 2 1 1 33 224 34
110 2 2 1 1 121 216 13
111 2 2 1 1 176 201 166
112 2 2 1 1 126 202 125
113 2 2 1 1 169 224 182
114 2 2 1 1 131 200 130
115 2 2 1 1 218 225 173
116 2 2 1 1 165 230 199
117 2 2 1 1 166 201 178
118 2 2 1 1 109 189 108
119 2 2 1 1 182 224 33
120 2 2 1 1 166 194 174
121 2 2 1 1 185 189 167
122 2 2 1 1 178 201 120
123 2 2 1 1 173 225 162
124 2 2 1 1 187 228 172
125 2 2 1 1 118 218 117
126 2 2 1 1 179 227 162
127 2 2 1 1 116 192 180
128 2 2 1 1 187 197 168
129 2 2 1 1 168 228 187
130 2 2 1 1 163 227 179
131 2 2 1 1 194 217 36
132 2 2 1 1 179 230 165
133 2 2 1 1 178 217 194
134 2 2 1 1 174 191 166
135 2 2 1 1 183 189 109
136 2 2 1 1 170 199 164
137 2 2 1 1 110 215 183
138 2 2 1 1 111 215 110
139 2 2 1 1 176 225 218
140 2 2 1 1 177 188 31
141 2 2 1 1 104 219 184
142 2 2 1 1 184 220 103
143 2 2 1 1 102 220 177
144 2 2 1 1 117 218 192
145 2 2 1 1 105 219 104
146 2 2 1 1 167 189 183
147 2 2 1 1 103 220 102
148 2 2 1 1 172 228 163
149 2 2 1 1 187 215 111
150 2 2 1 1 2 217 17
151 2 2 1 1 199 230 181
152 2 2 1 1 166 191 176
153 2 2 1 1 108 189 185
154 2 2 1 1 129 223 43
155 2 2 1 1 162 225 191
156 2 2 1 1 30 196 11
157 2 2 1 1 31 221 177
158 2 2 1 1 186 219 105
159 2 2 1 1 124 222 39
160 2 2 1 1 25 195 96
161 2 2 1 1 167 226 185
162 2 2 1 1 10 193 23
163 2 2 1 1 37 216 121
164 2 2 1 1 100 190 28
165 2 2 1 1 41 202 126
166 2 2 1 1 180 228 168
167 2 2 1 1 171 188 177
168 2 2 1 1 45 200 131
169 2 2 1 1 192 218 173
170 2 2 1 1 162 230 179
171 2 2 1 1 11 221 30
172 2 2 1 1 165 229 175
173 2 2 1 1 175 226 165
174 2 2 1 1 15 198 10
175 2 2 1 1 173 227 192
176 2 2 1 1 17 217 178
177 2 2 1 1 170 219 186
178 2 2 1 1 130 200 44
179 2 2 1 1 172 215 187
180 2 2 1 1 186 229 170
181 2 2 1 1 125 202 40
182 2 2 1 1 84 208 148
183 2 2 1 1 92 206 140
184 2 2 1 1 147 208 85
185 2 2 1 1 139 206 93
186 2 2 1 1 87 209 145
187 2 2 1 1 89 210 143
188 2 2 1 1 142 210 90
189 2 2 1 1 144 209 88
190 2 2 1 1 13 216 4
191 2 2 1 1 94 198 138
192 2 2 1 1 9 203 16
193 2 2 1 1 149 203 83
194 2 2 1 1 145 212 87
195 2 2 1 1 90 214 142
196 2 2 1 1 141 214 91
197 2 2 1 1 86 212 146
198 2 2 1 1 140 213 92
199 2 2 1 1 85 211 147
200 2 2 1 1 146 211 86
201 2 2 1 1 91 213 141
202 2 2 1 1 83 205 149
203 2 2 1 1 138 204 94
204 2 2 1 1 93 204 139
205 2 2 1 1 148 205 84
206 2 2 1 1 143 207 89
207 2 2 1 1 88 207 144
208 2 2 1 1 29 190 101
209 2 2 1 1 40 222 125
210 2 2 1 1 191 225 176
211 2 2 1 1 44 223 130
212 2 2 1 1 24 193 95
213 2 2 1 1 95 195 24
214 2 2 1 1 170 229 199
215 2 2 1 1 183 215 172
216 2 2 1 1 101 196 29
217 2 2 1 1 184 219 170
218 2 2 1 1 171 220 184
219 2 2 1 1 177 220 171
220 2 2 1 1 175 229 186
221 2 2 1 1 185 226 175
222 2 2 1 1 199 229 165
223 2 2 1 1 4 216 37
224 2 2 1 1 23 193 24
225 2 2 1 1 24 195 25
226 2 2 1 1 28 190 29
227 2 2 1 1 29 196 30
228 2 2 1 1 40 202 41
229 2 2 1 1 44 200 45
230 2 2 1 1 15 23 22
231 2 2 1 1 133 19 18
232 2 2 1 1 134 20 19
233 2 2 1 1 136 21 20
234 2 2 1 1 135 20 134
235 2 2 1 1 136 20 135
236 2 2 1 1 137 22 21
237 2 2 1 1 137 21 136
238 2 2 1 1 97 26 25
239 2 2 1 1 97 25 96
240 2 2 1 1 98 27 26
241 2 2 1 1 28 27 99
242 2 2 1 1 100 28 99
243 2 2 1 1 38 37 122
244 2 2 1 1 42 41 127
245 2 2 1 1 46 45 132
246 2 2 1 2 234 253 245
247 2 2 1 2 245 252 234
248 2 2 1 2 249 258 38
249 2 2 1 2 45 257 248
250 2 2 1 2 58 238 59
251 2 2 1 2 51 240 50
252 2 2 1 2 46 257 45
253 2 2 1 2 38 258 37
254 2 2 1 2 238 243 59
255 2 2 1 2 3 257 46
256 2 2 1 2 51 244 240
257 2 2 1 2 242 250 48
258 2 2 1 2 234 261 253
259 2 2 1 2 252 262 234
260 2 2 1 2 48 250 47
261 2 2 1 2 56 250 242
262 2 2 1 2 55 250 56
263 2 2 1 2 62 257 3
264 2 2 1 2 37 258 4
265 2 2 1 2 42 245 41
266 2 2 1 2 4 258 54
267 2 2 1 2 253 261 241
268 2 2 1 2 239 262 252
269 2 2 1 2 59 243 60
270 2 2 1 2 52 244 51
271 2 2 1 2 237 258 249
272 2 2 1 2 232 246 243
273 2 2 1 2 56 260 57
274 2 2 1 2 244 247 233
275 2 2 1 2 248 257 236
276 2 2 1 2 243 246 60
277 2 2 1 2 231 266 256
278 2 2 1 2 52 247 244
279 2 2 1 2 45 248 44
280 2 2 1 2 39 249 38
281 2 2 1 2 246 269 236
282 2 2 1 2 254 263 233
283 2 2 1 2 232 269 246
284 2 2 1 2 233 263 244
285 2 2 1 2 238 259 256
286 2 2 1 2 240 256 251
287 2 2 1 2 60 246 61
288 2 2 1 2 53 247 52
289 2 2 1 2 245 253 41
290 2 2 1 2 42 252 245
291 2 2 1 2 256 263 231
292 2 2 1 2 49 268 48
293 2 2 1 2 242 260 56
294 2 2 1 2 50 251 49
295 2 2 1 2 240 251 50
296 2 2 1 2 237 265 247
297 2 2 1 2 57 259 58
298 2 2 1 2 236 270 246
299 2 2 1 2 256 266 238
300 2 2 1 2 246 270 61
301 2 2 1 2 53 273 247
302 2 2 1 2 247 265 233
303 2 2 1 2 247 273 237
304 2 2 1 2 41 253 40
305 2 2 1 2 43 252 42
306 2 2 1 2 243 266 232
307 2 2 1 2 48 268 242
308 2 2 1 2 232 266 255
309 2 2 1 2 239 269 232
310 2 2 1 2 240 263 256
311 2 2 1 2 233 265 241
312 2 2 1 2 251 256 235
313 2 2 1 2 248 264 44
314 2 2 1 2 58 259 238
315 2 2 1 2 54 273 53
316 2 2 1 2 39 267 249
317 2 2 1 2 256 259 235
318 2 2 1 2 234 255 254
319 2 2 1 2 61 270 62
320 2 2 1 2 232 262 239
321 2 2 1 2 238 266 243
322 2 2 1 2 260 268 235
323 2 2 1 2 241 261 233
324 2 2 1 2 244 263 240
325 2 2 1 2 43 264 252
326 2 2 1 2 44 264 43
327 2 2 1 2 253 267 40
328 2 2 1 2 254 261 234
329 2 2 1 2 40 267 39
330 2 2 1 2 252 264 239
331 2 2 1 2 47 271 5
332 2 2 1 2 241 267 253
333 2 2 1 2 6 272 55
334 2 2 1 2 235 268 251
335 2 2 1 2 234 262 255
336 2 2 1 2 233 261 254
337 2 2 1 2 239 264 248
338 2 2 1 2 249 267 241
339 2 2 1 2 5 271 63
340 2 2 1 2 63 272 6
341 2 2 1 2 250 272 271
342 2 2 1 2 55 272 250
343 2 2 1 2 250 271 47
344 2 2 1 2 57 260 259
345 2 2 1 2 255 262 232
346 2 2 1 2 254 255 231
347 2 2 1 2 251 268 49
348 2 2 1 2 242 268 260
349 2 2 1 2 241 265 249
350 2 2 1 2 271 272 63
351 2 2 1 2 248 269 239
352 2 2 1 2 249 265 237
353 2 2 1 2 231 263 254
354 2 2 1 2 255 266 231
355 2 2 1 2 236 269 248
356 2 2 1 2 257 270 236
357 2 2 1 2 259 260 235
358 2 2 1 2 62 270 257
359 2 2 1 2 237 273 258
360 2 2 1 2 258 273 54
361 2 2 1 3 66 277 65
362 2 2 1 3 72 276 73
363 2 2 1 3 68 276 67
364 2 2 1 3 67 274 66
365 2 2 1 3 71 274 72
366 2 2 1 3 65 275 64
367 2 2 1 3 69 275 70
368 2 2 1 3 274 277 66
369 2 2 1 3 65 277 275
370 2 2 1 3 67 276 274
371 2 2 1 3 274 276 72
372 2 2 1 3 70 277 71
373 2 2 1 3 275 277 70
374 2 2 1 3 71 277 274
375 2 2 1 3 69 281 275
376 2 2 1 3 64 278 7
377 2 2 1 3 7 278 74
378 2 2 1 3 5 279 68
379 2 2 1 3 63 279 5
380 2 2 1 3 276 280 73
381 2 2 1 3 275 278 64
382 2 2 1 3 68 279 276
383 2 2 1 3 275 281 278
384 2 2 1 3 73 280 6
385 2 2 1 3 8 281 69
386 2 2 1 3 74 281 8
387 2 2 1 3 6 280 63
388 2 2 1 3 279 280 276
389 2 2 1 3 63 280 279
390 2 2 1 3 278 281 74
391 2 2 1 4 80 284 81
392 2 2 1 4 78 282 77
393 2 2 1 4 81 282 82
394 2 2 1 4 76 283 75
395 2 2 1 4 79 283 80
396 2 2 1 4 283 284 80
397 2 2 1 4 81 284 282
398 2 2 1 4 77 284 76
399 2 2 1 4 76 284 283
400 2 2 1 4 282 284 77
401 2 2 1 4 1 285 17
402 2 2 1 4 74 286 7
403 2 2 1 4 75 285 1
404 2 2 1 4 7 286 78
405 2 2 1 4 282 288 82
406 2 2 1 4 79 287 283
407 2 2 1 4 283 287 285
408 2 2 1 4 286 288 282
409 2 2 1 4 78 286 282
410 2 2 1 4 283 285 75
411 2 2 1 4 2 287 79
412 2 2 1 4 82 288 8
413 2 2 1 4 17 287 2
414 2 2 1 4 8 288 74
415 2 2 1 4 285 287 17
416 2 2 1 4 74 288 286
417 2 2 1 5 19 353 340
418 2 2 1 5 290 321 312
419 2 2 1 5 304 354 315
420 2 2 1 5 301 316 290
421 2 2 1 5 290 367 310
422 2 2 1 5 327 335 297
423 2 2 1 5 35 308 34
424 2 2 1 5 82 343 81
425 2 2 1 5 292 322 306
426 2 2 1 5 19 340 18
427 2 2 1 5 326 348 293
428 2 2 1 5 294 335 321
429 2 2 1 5 325 343 82
430 2 2 1 5 334 350 300
431 2 2 1 5 18 340 3
432 2 2 1 5 294 321 310
433 2 2 1 5 308 318 34
434 2 2 1 5 319 356 337
435 2 2 1 5 310 321 290
436 2 2 1 5 3 340 62
437 2 2 1 5 71 360 70
438 2 2 1 5 300 350 315
439 2 2 1 5 294 354 304
440 2 2 1 5 292 375 322
441 2 2 1 5 297 365 327
442 2 2 1 5 316 367 290
443 2 2 1 5 80 343 311
444 2 2 1 5 81 343 80
445 2 2 1 5 323 360 71
446 2 2 1 5 304 347 333
447 2 2 1 5 305 362 339
448 2 2 1 5 70 360 69
449 2 2 1 5 315 347 304
450 2 2 1 5 317 326 293
451 2 2 1 5 340 353 303
452 2 2 1 5 312 337 290
453 2 2 1 5 60 317 59
454 2 2 1 5 327 365 307
455 2 2 1 5 318 370 298
456 2 2 1 5 306 369 292
457 2 2 1 5 296 322 311
458 2 2 1 5 34 318 33
459 2 2 1 5 335 372 321
460 2 2 1 5 56 324 55
461 2 2 1 5 302 351 332
462 2 2 1 5 332 351 289
463 2 2 1 5 298 327 307
464 2 2 1 5 320 362 305
465 2 2 1 5 302 332 323
466 2 2 1 5 69 360 325
467 2 2 1 5 58 319 57
468 2 2 1 5 30 328 29
469 2 2 1 5 290 356 301
470 2 2 1 5 322 364 306
471 2 2 1 5 291 335 327
472 2 2 1 5 60 326 317
473 2 2 1 5 319 337 299
474 2 2 1 5 331 334 300
475 2 2 1 5 291 372 335
476 2 2 1 5 318 355 33
477 2 2 1 5 298 349 327
478 2 2 1 5 304 361 294
479 2 2 1 5 310 354 294
480 2 2 1 5 312 338 289
481 2 2 1 5 307 318 298
482 2 2 1 5 23 330 22
483 2 2 1 5 25 331 24
484 2 2 1 5 321 372 312
485 2 2 1 5 303 353 320
486 2 2 1 5 322 375 311
487 2 2 1 5 58 359 319
488 2 2 1 5 308 370 318
489 2 2 1 5 306 364 338
490 2 2 1 5 32 329 31
491 2 2 1 5 61 326 60
492 2 2 1 5 336 366 293
493 2 2 1 5 299 351 324
494 2 2 1 5 338 364 289
495 2 2 1 5 319 359 301
496 2 2 1 5 307 355 318
497 2 2 1 5 307 365 329
498 2 2 1 5 36 346 35
499 2 2 1 5 311 343 296
500 2 2 1 5 326 378 303
501 2 2 1 5 296 360 323
502 2 2 1 5 71 352 323
503 2 2 1 5 61 378 326
504 2 2 1 5 323 332 296
505 2 2 1 5 295 367 336
506 2 2 1 5 304 333 328
507 2 2 1 5 29 333 28
508 2 2 1 5 56 345 324
509 2 2 1 5 26 334 25
510 2 2 1 5 22 339 21
511 2 2 1 5 329 376 31
512 2 2 1 5 328 333 29
513 2 2 1 5 316 366 336
514 2 2 1 5 324 345 299
515 2 2 1 5 300 357 331
516 2 2 1 5 315 354 300
517 2 2 1 5 329 355 307
518 2 2 1 5 325 360 296
519 2 2 1 5 35 346 308
520 2 2 1 5 33 355 32
521 2 2 1 5 30 376 328
522 2 2 1 5 310 377 354
523 2 2 1 5 2 358 36
524 2 2 1 5 320 348 303
525 2 2 1 5 330 339 22
526 2 2 1 5 311 363 80
527 2 2 1 5 25 334 331
528 2 2 1 5 57 345 56
529 2 2 1 5 296 343 325
530 2 2 1 5 299 345 319
531 2 2 1 5 36 358 346
532 2 2 1 5 323 352 302
533 2 2 1 5 296 332 322
534 2 2 1 5 336 379 305
535 2 2 1 5 317 366 301
536 2 2 1 5 305 339 330
537 2 2 1 5 23 373 330
538 2 2 1 5 336 367 316
539 2 2 1 5 331 373 24
540 2 2 1 5 324 351 302
541 2 2 1 5 317 359 59
542 2 2 1 5 59 359 58
543 2 2 1 5 28 347 27
544 2 2 1 5 62 378 61
545 2 2 1 5 55 374 6
546 2 2 1 5 319 345 57
547 2 2 1 5 27 350 26
548 2 2 1 5 289 364 332
549 2 2 1 5 301 356 319
550 2 2 1 5 32 355 329
551 2 2 1 5 354 377 300
552 2 2 1 5 6 374 73
553 2 2 1 5 325 380 69
554 2 2 1 5 20 353 19
555 2 2 1 5 324 374 55
556 2 2 1 5 328 341 304
557 2 2 1 5 335 361 297
558 2 2 1 5 313 357 295
559 2 2 1 5 295 344 313
560 2 2 1 5 293 366 317
561 2 2 1 5 301 359 317
562 2 2 1 5 291 349 338
563 2 2 1 5 333 347 28
564 2 2 1 5 73 342 72
565 2 2 1 5 297 341 314
566 2 2 1 5 26 350 334
567 2 2 1 5 302 342 324
568 2 2 1 5 314 376 329
569 2 2 1 5 82 380 325
570 2 2 1 5 303 348 326
571 2 2 1 5 327 349 291
572 2 2 1 5 337 356 290
573 2 2 1 5 305 379 320
574 2 2 1 5 31 376 30
575 2 2 1 5 298 369 349
576 2 2 1 5 21 362 20
577 2 2 1 5 339 362 21
578 2 2 1 5 332 364 322
579 2 2 1 5 79 358 2
580 2 2 1 5 330 344 305
581 2 2 1 5 72 352 71
582 2 2 1 5 301 366 316
583 2 2 1 5 347 350 27
584 2 2 1 5 297 361 341
585 2 2 1 5 289 371 312
586 2 2 1 5 8 380 82
587 2 2 1 5 346 358 309
588 2 2 1 5 24 373 23
589 2 2 1 5 338 372 291
590 2 2 1 5 294 361 335
591 2 2 1 5 305 344 336
592 2 2 1 5 20 362 353
593 2 2 1 5 314 365 297
594 2 2 1 5 293 379 336
595 2 2 1 5 80 363 79
596 2 2 1 5 295 377 367
597 2 2 1 5 358 363 309
598 2 2 1 5 342 352 72
599 2 2 1 5 314 341 328
600 2 2 1 5 328 376 314
601 2 2 1 5 342 374 324
602 2 2 1 5 330 373 313
603 2 2 1 5 313 373 331
604 2 2 1 5 313 344 330
605 2 2 1 5 69 380 8
606 2 2 1 5 336 344 295
607 2 2 1 5 331 357 313
608 2 2 1 5 299 371 351
609 2 2 1 5 302 352 342
610 2 2 1 5 341 361 304
611 2 2 1 5 79 363 358
612 2 2 1 5 329 365 314
613 2 2 1 5 337 371 299
614 2 2 1 5 312 371 337
615 2 2 1 5 338 349 306
616 2 2 1 5 351 371 289
617 2 2 1 5 363 375 309
618 2 2 1 5 357 377 295
619 2 2 1 5 315 350 347
620 2 2 1 5 369 370 292
621 2 2 1 5 368 370 308
622 2 2 1 5 353 362 320
623 2 2 1 5 367 377 310
624 2 2 1 5 346 368 308
625 2 2 1 5 312 372 338
626 2 2 1 5 311 375 363
627 2 2 1 5 320 379 348
628 2 2 1 5 292 370 368
629 2 2 1 5 303 378 340
630 2 2 1 5 73 374 342
631 2 2 1 5 340 378 62
632 2 2 1 5 298 370 369
633 2 2 1 5 300 377 357
634 2 2 1 5 368 375 292
635 2 2 1 5 309 375 368
636 2 2 1 5 349 369 306
637 2 2 1 5 309 368 346
638 2 2 1 5 348 379 293
639 2 2 2 6 133 403 134
640 2 2 2 6 154 402 153
641 2 2 2 6 151 405 150
642 2 2 2 6 136 404 137
643 2 2 2 6 403 424 134
644 2 2 2 6 402 426 153
645 2 2 2 6 151 425 405
646 2 2 2 6 136 427 404
647 2 2 2 6 399 425 152
648 2 2 2 6 152 426 399
649 2 2 2 6 135 424 398
650 2 2 2 6 398 427 135
651 2 2 2 6 398 414 387
652 2 2 2 6 399 415 386
653 2 2 2 6 134 424 135
654 2 2 2 6 152 425 151
655 2 2 2 6 153 426 152
656 2 2 2 6 135 427 136
657 2 2 2 6 417 423 388
658 2 2 2 6 389 422 416
659 2 2 2 6 394 423 417
660 2 2 2 6 416 422 394
661 2 2 2 6 393 428 411
662 2 2 2 6 410 429 392
663 2 2 2 6 411 428 389
664 2 2 2 6 388 429 410
665 2 2 2 6 384 414 398
666 2 2 2 6 385 415 399
667 2 2 2 6 406 421 393
668 2 2 2 6 387 421 406
669 2 2 2 6 386 420 409
670 2 2 2 6 409 420 396
671 2 2 2 6 419 430 390
672 2 2 2 6 396 430 419
673 2 2 2 6 418 431 395
674 2 2 2 6 391 431 418
675 2 2 2 6 397 433 413
676 2 2 2 6 412 432 397
677 2 2 2 6 381 435 429
678 2 2 2 6 413 433 391
679 2 2 2 6 390 432 412
680 2 2 2 6 389 439 400
681 2 2 2 6 388 436 401
682 2 2 2 6 401 436 390
683 2 2 2 6 415 420 386
684 2 2 2 6 414 421 387
685 2 2 2 6 400 439 391
686 2 2 2 6 139 406 140
687 2 2 2 6 147 407 148
688 2 2 2 6 382 434 431
689 2 2 2 6 130 408 131
690 2 2 2 6 122 409 123
691 2 2 2 6 386 425 399
692 2 2 2 6 387 427 398
693 2 2 2 6 399 426 385
694 2 2 2 6 398 424 384
695 2 2 2 6 429 435 392
696 2 2 2 6 428 439 389
697 2 2 2 6 144 417 145
698 2 2 2 6 142 416 143
699 2 2 2 6 128 418 129
700 2 2 2 6 124 419 125
701 2 2 2 6 145 417 410
702 2 2 2 6 411 416 142
703 2 2 2 6 145 410 146
704 2 2 2 6 141 411 142
705 2 2 2 6 413 418 128
706 2 2 2 6 125 419 412
707 2 2 2 6 423 436 388
708 2 2 2 6 390 436 432
709 2 2 2 6 125 412 126
710 2 2 2 6 127 413 128
711 2 2 2 6 382 428 421
712 2 2 2 6 421 428 393
713 2 2 2 6 391 439 431
714 2 2 2 6 392 435 407
715 2 2 2 6 408 434 384
716 2 2 2 6 395 434 408
717 2 2 2 6 407 435 385
718 2 2 2 6 431 434 395
719 2 2 2 6 383 433 432
720 2 2 2 6 432 433 397
721 2 2 2 6 383 422 400
722 2 2 2 6 400 422 389
723 2 2 2 6 403 447 384
724 2 2 2 6 386 446 405
725 2 2 2 6 402 445 385
726 2 2 2 6 387 444 404
727 2 2 2 6 410 417 388
728 2 2 2 6 389 416 411
729 2 2 2 6 401 430 381
730 2 2 2 6 390 430 401
731 2 2 2 6 381 429 401
732 2 2 2 6 420 430 396
733 2 2 2 6 381 430 420
734 2 2 2 6 391 433 400
735 2 2 2 6 400 433 383
736 2 2 2 6 414 434 382
737 2 2 2 6 401 429 388
738 2 2 2 6 415 435 381
739 2 2 2 6 384 447 408
740 2 2 2 6 409 446 386
741 2 2 2 6 406 444 387
742 2 2 2 6 385 445 407
743 2 2 2 6 412 419 390
744 2 2 2 6 391 418 413
745 2 2 2 6 381 420 415
746 2 2 2 6 149 445 402
747 2 2 2 6 404 444 138
748 2 2 2 6 132 447 403
749 2 2 2 6 405 446 121
750 2 2 2 6 385 426 402
751 2 2 2 6 404 427 387
752 2 2 2 6 405 425 386
753 2 2 2 6 384 424 403
754 2 2 2 6 382 421 414
755 2 2 2 6 406 438 140
756 2 2 2 6 147 437 407
757 2 2 2 6 130 441 408
758 2 2 2 6 409 442 123
759 2 2 2 6 383 423 422
760 2 2 2 6 422 423 394
761 2 2 2 6 410 437 146
762 2 2 2 6 141 438 411
763 2 2 2 6 411 438 393
764 2 2 2 6 392 437 410
765 2 2 2 6 393 438 406
766 2 2 2 6 407 437 392
767 2 2 2 6 148 445 149
768 2 2 2 6 138 444 139
769 2 2 2 6 412 443 126
770 2 2 2 6 127 443 413
771 2 2 2 6 121 446 122
772 2 2 2 6 131 447 132
773 2 2 2 6 397 443 412
774 2 2 2 6 413 443 397
775 2 2 2 6 396 442 409
776 2 2 2 6 408 441 395
777 2 2 2 6 384 434 414
778 2 2 2 6 403 448 132
779 2 2 2 6 402 449 149
780 2 2 2 6 121 450 405
781 2 2 2 6 138 451 404
782 2 2 2 6 385 435 415
783 2 2 2 6 404 451 137
784 2 2 2 6 133 448 403
785 2 2 2 6 405 450 150
786 2 2 2 6 154 449 402
787 2 2 2 6 416 440 143
788 2 2 2 6 144 440 417
789 2 2 2 6 418 441 129
790 2 2 2 6 124 442 419
791 2 2 2 6 139 444 406
792 2 2 2 6 407 445 148
793 2 2 2 6 408 447 131
794 2 2 2 6 122 446 409
795 2 2 2 6 394 440 416
796 2 2 2 6 417 440 394
797 2 2 2 6 419 442 396
798 2 2 2 6 395 441 418
799 2 2 2 6 146 437 147
800 2 2 2 6 140 438 141
801 2 2 2 6 383 436 423
802 2 2 2 6 143 440 144
803 2 2 2 6 129 441 130
804 2 2 2 6 123 442 124
805 2 2 2 6 382 439 428
806 2 2 2 6 126 443 127
807 2 2 2 6 431 439 382
808 2 2 2 6 432 436 383
809 2 2 2 6 14 448 133
810 2 2 2 6 16 449 154
811 2 2 2 6 150 450 13
812 2 2 2 6 137 451 15
813 2 2 2 6 15 451 138
814 2 2 2 6 132 448 14
815 2 2 2 6 13 450 121
816 2 2 2 6 149 449 16
817 2 2 3 7 454 528 489
818 2 2 3 7 488 490 463
819 2 2 3 7 453 490 488
820 2 2 3 7 462 489 487
821 2 2 3 7 487 489 453
822 2 2 3 7 488 492 453
823 2 2 3 7 458 499 480
824 2 2 3 7 481 500 459
825 2 2 3 7 489 512 454
826 2 2 3 7 479 493 461
827 2 2 3 7 516 526 101
828 2 2 3 7 95 527 517
829 2 2 3 7 100 516 101
830 2 2 3 7 95 517 96
831 2 2 3 7 479 540 493
832 2 2 3 7 493 540 452
833 2 2 3 7 461 525 479
834 2 2 3 7 462 497 474
835 2 2 3 7 473 496 463
836 2 2 3 7 463 496 481
837 2 2 3 7 480 497 462
838 2 2 3 7 458 552 499
839 2 2 3 7 500 553 459
840 2 2 3 7 460 494 476
841 2 2 3 7 477 495 461
842 2 2 3 7 491 528 454
843 2 2 3 7 475 528 491
844 2 2 3 7 161 515 160
845 2 2 3 7 156 514 155
846 2 2 3 7 488 504 492
847 2 2 3 7 489 528 466
848 2 2 3 7 161 520 515
849 2 2 3 7 514 519 155
850 2 2 3 7 491 534 472
851 2 2 3 7 483 514 157
852 2 2 3 7 159 515 484
853 2 2 3 7 508 540 475
854 2 2 3 7 454 534 491
855 2 2 3 7 463 511 473
856 2 2 3 7 474 512 462
857 2 2 3 7 491 508 475
858 2 2 3 7 97 517 485
859 2 2 3 7 486 516 99
860 2 2 3 7 464 504 486
861 2 2 3 7 486 504 459
862 2 2 3 7 461 554 525
863 2 2 3 7 157 514 156
864 2 2 3 7 160 515 159
865 2 2 3 7 453 492 487
866 2 2 3 7 479 525 503
867 2 2 3 7 503 525 455
868 2 2 3 7 487 513 458
869 2 2 3 7 476 521 460
870 2 2 3 7 461 507 477
871 2 2 3 7 465 518 498
872 2 2 3 7 498 518 478
873 2 2 3 7 459 531 481
874 2 2 3 7 480 530 458
875 2 2 3 7 456 498 482
876 2 2 3 7 482 508 460
877 2 2 3 7 470 526 516
878 2 2 3 7 517 527 469
879 2 2 3 7 452 540 508
880 2 2 3 7 481 531 463
881 2 2 3 7 462 530 480
882 2 2 3 7 99 510 486
883 2 2 3 7 96 517 97
884 2 2 3 7 99 516 100
885 2 2 3 7 460 521 482
886 2 2 3 7 157 509 483
887 2 2 3 7 452 535 493
888 2 2 3 7 493 535 478
889 2 2 3 7 492 513 487
890 2 2 3 7 465 522 484
891 2 2 3 7 464 529 485
892 2 2 3 7 472 555 491
893 2 2 3 7 459 504 488
894 2 2 3 7 482 521 456
895 2 2 3 7 496 543 481
896 2 2 3 7 480 544 497
897 2 2 3 7 500 543 104
898 2 2 3 7 92 544 499
899 2 2 3 7 457 518 484
900 2 2 3 7 484 518 465
901 2 2 3 7 463 531 488
902 2 2 3 7 487 530 462
903 2 2 3 7 484 522 159
904 2 2 3 7 484 539 457
905 2 2 3 7 485 529 97
906 2 2 3 7 499 552 469
907 2 2 3 7 470 553 500
908 2 2 3 7 491 555 460
909 2 2 3 7 485 513 464
910 2 2 3 7 458 513 485
911 2 2 3 7 103 500 104
912 2 2 3 7 92 499 93
913 2 2 3 7 460 508 491
914 2 2 3 7 462 512 489
915 2 2 3 7 490 511 463
916 2 2 3 7 483 509 465
917 2 2 3 7 466 545 489
918 2 2 3 7 489 545 453
919 2 2 3 7 490 545 466
920 2 2 3 7 453 545 490
921 2 2 3 7 458 530 487
922 2 2 3 7 488 531 459
923 2 2 3 7 465 556 483
924 2 2 3 7 494 541 476
925 2 2 3 7 477 542 495
926 2 2 3 7 486 510 464
927 2 2 3 7 466 532 490
928 2 2 3 7 459 553 486
929 2 2 3 7 485 552 458
930 2 2 3 7 98 510 99
931 2 2 3 7 9 519 83
932 2 2 3 7 113 520 12
933 2 2 3 7 155 519 9
934 2 2 3 7 12 520 161
935 2 2 3 7 86 494 87
936 2 2 3 7 109 495 110
937 2 2 3 7 111 502 112
938 2 2 3 7 84 501 85
939 2 2 3 7 105 496 106
940 2 2 3 7 90 497 91
941 2 2 3 7 510 529 464
942 2 2 3 7 481 543 500
943 2 2 3 7 499 544 480
944 2 2 3 7 515 520 468
945 2 2 3 7 467 519 514
946 2 2 3 7 497 536 474
947 2 2 3 7 473 537 496
948 2 2 3 7 158 509 157
949 2 2 3 7 503 540 479
950 2 2 3 7 501 541 85
951 2 2 3 7 111 542 502
952 2 2 3 7 493 507 461
953 2 2 3 7 94 527 10
954 2 2 3 7 11 526 102
955 2 2 3 7 492 504 464
956 2 2 3 7 10 527 95
957 2 2 3 7 101 526 11
958 2 2 3 7 509 522 465
959 2 2 3 7 466 528 503
960 2 2 3 7 503 528 475
961 2 2 3 7 482 535 508
962 2 2 3 7 508 535 452
963 2 2 3 7 464 513 492
964 2 2 3 7 475 540 503
965 2 2 3 7 498 535 482
966 2 2 3 7 476 541 501
967 2 2 3 7 502 542 477
968 2 2 3 7 494 524 87
969 2 2 3 7 109 523 495
970 2 2 3 7 525 554 471
971 2 2 3 7 86 541 494
972 2 2 3 7 495 542 110
973 2 2 3 7 496 537 106
974 2 2 3 7 90 536 497
975 2 2 3 7 105 543 496
976 2 2 3 7 497 544 91
977 2 2 3 7 478 535 498
978 2 2 3 7 478 557 493
979 2 2 3 7 88 505 89
980 2 2 3 7 107 506 108
981 2 2 3 7 467 546 501
982 2 2 3 7 502 547 468
983 2 2 3 7 511 533 473
984 2 2 3 7 455 533 511
985 2 2 3 7 512 534 454
986 2 2 3 7 474 534 512
987 2 2 3 7 538 546 467
988 2 2 3 7 468 547 539
989 2 2 3 7 498 556 465
990 2 2 3 7 457 547 507
991 2 2 3 7 507 547 477
992 2 2 3 7 473 533 506
993 2 2 3 7 505 534 474
994 2 2 3 7 159 522 158
995 2 2 3 7 511 532 455
996 2 2 3 7 490 532 511
997 2 2 3 7 97 529 98
998 2 2 3 7 88 524 505
999 2 2 3 7 506 523 108
1000 2 2 3 7 506 537 473
1001 2 2 3 7 474 536 505
1002 2 2 3 7 108 523 109
1003 2 2 3 7 87 524 88
1004 2 2 3 7 505 536 89
1005 2 2 3 7 107 537 506
1006 2 2 3 7 83 550 84
1007 2 2 3 7 112 551 113
1008 2 2 3 7 506 533 471
1009 2 2 3 7 472 534 505
1010 2 2 3 7 102 548 103
1011 2 2 3 7 93 549 94
1012 2 2 3 7 505 524 472
1013 2 2 3 7 471 523 506
1014 2 2 3 7 456 556 498
1015 2 2 3 7 89 536 90
1016 2 2 3 7 106 537 107
1017 2 2 3 7 85 541 86
1018 2 2 3 7 110 542 111
1019 2 2 3 7 104 543 105
1020 2 2 3 7 91 544 92
1021 2 2 3 7 494 555 524
1022 2 2 3 7 523 554 495
1023 2 2 3 7 493 557 507
1024 2 2 3 7 460 555 494
1025 2 2 3 7 495 554 461
1026 2 2 3 7 503 532 466
1027 2 2 3 7 455 532 503
1028 2 2 3 7 84 550 501
1029 2 2 3 7 502 551 112
1030 2 2 3 7 158 522 509
1031 2 2 3 7 98 529 510
1032 2 2 3 7 499 549 93
1033 2 2 3 7 103 548 500
1034 2 2 3 7 501 550 467
1035 2 2 3 7 468 551 502
1036 2 2 3 7 486 553 516
1037 2 2 3 7 517 552 485
1038 2 2 3 7 476 546 521
1039 2 2 3 7 521 546 456
1040 2 2 3 7 483 556 538
1041 2 2 3 7 500 548 470
1042 2 2 3 7 469 549 499
1043 2 2 3 7 501 546 476
1044 2 2 3 7 477 547 502
1045 2 2 3 7 525 533 455
1046 2 2 3 7 471 533 525
1047 2 2 3 7 538 556 456
1048 2 2 3 7 456 546 538
1049 2 2 3 7 539 547 457
1050 2 2 3 7 515 539 484
1051 2 2 3 7 483 538 514
1052 2 2 3 7 507 557 457
1053 2 2 3 7 514 538 467
1054 2 2 3 7 468 539 515
1055 2 2 3 7 518 557 478
1056 2 2 3 7 457 557 518
1057 2 2 3 7 519 550 83
1058 2 2 3 7 113 551 520
1059 2 2 3 7 524 555 472
1060 2 2 3 7 471 554 523
1061 2 2 3 7 94 549 527
1062 2 2 3 7 526 548 102
1063 2 2 3 7 516 553 470
1064 2 2 3 7 469 552 517
1065 2 2 3 7 467 550 519
1066 2 2 3 7 520 551 468
1067 2 2 3 7 470 548 526
1068 2 2 3 7 527 549 469
$EndElements
