$MeshFormat
2.2 0 8
$EndMeshFormat
$PhysicalNames
3
2 1 "Exterior"
2 2 "RearChamberInterface"
2 3 "FrontChamberInterface"
$EndPhysicalNames
$Nodes
552
1 0.0000000000000000e+00 -6.5170000000000095e+02 2.0932172347428600e-11
2 3.0450000000000000e+02 -6.5170000000000095e+02 2.0932172347428600e-11
3 3.0450000000000000e+02 2.6270000000000101e+02 -7.9336537339713703e-12
4 0.0000000000000000e+00 2.6270000000000101e+02 -7.9336537339713703e-12
5 0.0000000000000000e+00 2.6269999999997498e+02 -8.1279999999999700e+02
6 3.0450000000000000e+02 2.6269999999997498e+02 -8.1279999999999700e+02
7 0.0000000000000000e+00 -6.5170000000002801e+02 -8.1279999999997904e+02
8 3.0450000000000000e+02 -6.5170000000002801e+02 -8.1279999999997904e+02
9 0.0000000000000000e+00 9.1700000000000003e+01 -3.1055686504045100e-12
10 2.8900000000000000e+02 9.1700000000000202e+01 -3.2152058793144501e-12
11 2.8900000000000000e+02 -9.1699999999999704e+01 2.9976021664879198e-12
12 0.0000000000000000e+00 -9.1700000000000003e+01 3.1072393953978600e-12
13 0.0000000000000000e+00 2.4469999999999999e+02 -7.9336537339713703e-12
14 2.8900000000000000e+02 2.4469999999999999e+02 -8.0402351443353804e-12
15 2.8900000000000000e+02 1.0970000000000000e+02 -3.7769787297747801e-12
16 0.0000000000000000e+00 1.0970000000000000e+02 -3.6703973194107699e-12
17 1.5225000000000040e+02 -6.5170000000000095e+02 2.0932172347428600e-11
18 3.0450000000000000e+02 2.3447928135247659e+02 -7.2764465157596746e-12
19 3.0450000000000000e+02 2.0688613769396841e+02 -6.3981090403990188e-12
20 3.0450000000000000e+02 1.7929301860144380e+02 -5.5197723470160980e-12
21 3.0450000000000000e+02 1.5169990244662480e+02 -4.6414357471454252e-12
22 3.0450000000000000e+02 1.2410676800645000e+02 -3.7630985652202577e-12
23 3.0450000000000000e+02 9.6303756093532115e+01 -2.8780806204278502e-12
24 3.0450000000000000e+02 6.8681761366602018e+01 -1.9988247656714711e-12
25 3.0450000000000000e+02 4.1087465991054160e+01 -1.1204506291659490e-12
26 3.0450000000000000e+02 1.3493156045739401e+01 -2.4207602887955411e-13
27 3.0450000000000000e+02 -1.4101163683638561e+01 6.3629888285049390e-13
28 3.0450000000000000e+02 -4.1695488201404487e+01 1.5146739470032069e-12
29 3.0450000000000000e+02 -6.9289813317891117e+01 2.3930490302142388e-12
30 3.0450000000000000e+02 -9.6920435962352713e+01 3.2725795265046160e-12
31 3.0450000000000000e+02 -1.2781369114975000e+02 4.2559652582207687e-12
32 3.0450000000000000e+02 -1.6728643957840819e+02 5.5124510950450769e-12
33 3.0450000000000000e+02 -2.1899264618570450e+02 7.1583490591911668e-12
34 3.0450000000000000e+02 -2.8711985079967570e+02 9.3269557842738834e-12
35 3.0450000000000000e+02 -3.7704304011069831e+02 1.2189366390811211e-11
36 3.0450000000000000e+02 -4.9581684210917291e+02 1.5970141886254231e-11
37 2.7643309963791410e+01 2.6270000000000101e+02 -7.9336537339713703e-12
38 5.5285025003728023e+01 2.6270000000000101e+02 -7.9336537339713703e-12
39 8.2926562412781024e+01 2.6270000000000101e+02 -7.9336537339713703e-12
40 1.1056835511557451e+02 2.6270000000000101e+02 -7.9336537339713703e-12
41 1.3820983643168120e+02 2.6270000000000101e+02 -7.9336537339713703e-12
42 1.6585167878043009e+02 2.6270000000000101e+02 -7.9336537339713703e-12
43 1.9349312844960011e+02 2.6270000000000101e+02 -7.9336537339713703e-12
44 2.2113499266995260e+02 2.6270000000000101e+02 -7.9336537339713703e-12
45 2.4877643527853630e+02 2.6270000000000101e+02 -7.9336537339713703e-12
46 2.7641829344649722e+02 2.6270000000000101e+02 -7.9336537339713703e-12
47 0.0000000000000000e+00 2.6269999999998021e+02 -6.4935769555639513e+02
48 0.0000000000000000e+00 2.6269999999998532e+02 -4.8712390080335302e+02
49 0.0000000000000000e+00 2.6269999999998947e+02 -3.5262043702812088e+02
50 0.0000000000000000e+00 2.6269999999999283e+02 -2.4976402311291770e+02
51 0.0000000000000000e+00 2.6269999999999533e+02 -1.7107944469233701e+02
52 0.0000000000000000e+00 2.6269999999999720e+02 -1.1083531320800320e+02
53 0.0000000000000000e+00 2.6269999999999868e+02 -6.4606738614872029e+01
54 0.0000000000000000e+00 2.6269999999999982e+02 -2.8859943919883339e+01
55 3.0450000000000000e+02 2.6269999999998009e+02 -6.5096089791292400e+02
56 3.0450000000000000e+02 2.6269999999998521e+02 -4.9012467510234461e+02
57 3.0450000000000000e+02 2.6269999999998942e+02 -3.5599301466520899e+02
58 3.0450000000000000e+02 2.6269999999999271e+02 -2.5312029249026853e+02
59 3.0450000000000000e+02 2.6269999999999521e+02 -1.7417049281988520e+02
60 3.0450000000000000e+02 2.6269999999999709e+02 -1.1349166499970011e+02
61 3.0450000000000000e+02 2.6269999999999862e+02 -6.6679550104514874e+01
62 3.0450000000000000e+02 2.6269999999999982e+02 -3.0125825910296161e+01
63 1.5225000000000040e+02 2.6269999999997498e+02 -8.1279999999999700e+02
64 0.0000000000000000e+00 -4.9930000000002769e+02 -8.1280000000043094e+02
65 0.0000000000000000e+00 -3.4690000000002738e+02 -8.1280000000034431e+02
66 0.0000000000000000e+00 -1.9450000000002709e+02 -8.1280000000025768e+02
67 0.0000000000000000e+00 -4.2100000000026881e+01 -8.1280000000017105e+02
68 0.0000000000000000e+00 1.1029999999997339e+02 -8.1280000000008442e+02
69 3.0450000000000000e+02 -4.9930000000002769e+02 -8.1280000000043094e+02
70 3.0450000000000000e+02 -3.4690000000002738e+02 -8.1280000000034431e+02
71 3.0450000000000000e+02 -1.9450000000002709e+02 -8.1280000000025768e+02
72 3.0450000000000000e+02 -4.2100000000026881e+01 -8.1280000000017105e+02
73 3.0450000000000000e+02 1.1029999999997339e+02 -8.1280000000008442e+02
74 1.5225000000000040e+02 -6.5170000000002801e+02 -8.1279999999997904e+02
75 0.0000000000000000e+00 -6.5170000000000698e+02 -1.6255999999997951e+02
76 0.0000000000000000e+00 -6.5170000000001221e+02 -3.2511999999997960e+02
77 0.0000000000000000e+00 -6.5170000000001733e+02 -4.8767999999997988e+02
78 0.0000000000000000e+00 -6.5170000000002244e+02 -6.5023999999997955e+02
79 3.0450000000000000e+02 -6.5170000000000698e+02 -1.6255999999997951e+02
80 3.0450000000000000e+02 -6.5170000000001221e+02 -3.2511999999997960e+02
81 3.0450000000000000e+02 -6.5170000000001733e+02 -4.8767999999997988e+02
82 3.0450000000000000e+02 -6.5170000000002244e+02 -6.5023999999997955e+02
83 2.2230769230769280e+01 9.1700000000000031e+01 -3.1140445680941919e-12
84 4.4461538461538510e+01 9.1700000000000045e+01 -3.1225204857838718e-12
85 6.6692307692307793e+01 9.1700000000000060e+01 -3.1309964034735530e-12
86 8.8923076923076962e+01 9.1700000000000088e+01 -3.1394723211632321e-12
87 1.1115384615384630e+02 9.1700000000000102e+01 -3.1479482388529132e-12
88 1.3338461538461561e+02 9.1700000000000117e+01 -3.1564241565425931e-12
89 1.5561538461538490e+02 9.1700000000000131e+01 -3.1649000742322730e-12
90 1.7784615384615429e+02 9.1700000000000145e+01 -3.1733759919219529e-12
91 2.0007692307692349e+02 9.1700000000000159e+01 -3.1818519096116340e-12
92 2.2230769230769269e+02 9.1700000000000188e+01 -3.1903278273013140e-12
93 2.4453846153846180e+02 9.1700000000000202e+01 -3.1988037449909931e-12
94 2.6676923076923077e+02 9.1700000000000216e+01 -3.2072796626806742e-12
95 2.8900000000000000e+02 6.8775000000000205e+01 -2.4387597756099680e-12
96 2.8900000000000011e+02 4.5850000000000207e+01 -1.6623136719054849e-12
97 2.8900000000000011e+02 2.2925000000000210e+01 -8.8586756820100264e-13
98 2.8900000000000011e+02 2.1316282072803011e-13 -1.0942146449652020e-13
99 2.8900000000000011e+02 -2.2924999999999770e+01 6.6702463920796193e-13
100 2.8900000000000011e+02 -4.5849999999999753e+01 1.4434707429124440e-12
101 2.8900000000000011e+02 -6.8774999999999736e+01 2.2199168466169261e-12
102 2.6676923076923077e+02 -9.1699999999999790e+01 3.0055283831216962e-12
103 2.4453846153846180e+02 -9.1699999999999804e+01 3.0140043008113761e-12
104 2.2230769230769269e+02 -9.1699999999999818e+01 3.0224802185010560e-12
105 2.0007692307692349e+02 -9.1699999999999847e+01 3.0309561361907359e-12
106 1.7784615384615429e+02 -9.1699999999999861e+01 3.0394320538804170e-12
107 1.5561538461538490e+02 -9.1699999999999875e+01 3.0479079715700969e-12
108 1.3338461538461561e+02 -9.1699999999999889e+01 3.0563838892597768e-12
109 1.1115384615384630e+02 -9.1699999999999903e+01 3.0648598069494572e-12
110 8.8923076923076962e+01 -9.1699999999999918e+01 3.0733357246391371e-12
111 6.6692307692307793e+01 -9.1699999999999946e+01 3.0818116423288170e-12
112 4.4461538461538510e+01 -9.1699999999999960e+01 3.0902875600184981e-12
113 2.2230769230769280e+01 -9.1699999999999974e+01 3.0987634777081780e-12
114 0.0000000000000000e+00 -1.1608564171589990e+02 3.8826411651735992e-12
115 0.0000000000000000e+00 -1.4748838419962459e+02 4.8822447585122947e-12
116 0.0000000000000000e+00 -1.8800992927228060e+02 6.1721156060427560e-12
117 0.0000000000000000e+00 -2.4031311098565530e+02 7.8370163200753862e-12
118 0.0000000000000000e+00 -3.0782850336927299e+02 9.9861480039502562e-12
119 0.0000000000000000e+00 -3.9498291653513849e+02 1.2760423678155361e-11
120 0.0000000000000000e+00 -5.0749034750826712e+02 1.6341729748360250e-11
121 2.2230769230769280e+01 2.4470000000000019e+02 -7.9418523039993668e-12
122 4.4461538461538510e+01 2.4470000000000019e+02 -7.9500508740273682e-12
123 6.6692307692307793e+01 2.4470000000000019e+02 -7.9582494440553696e-12
124 8.8923076923076962e+01 2.4470000000000030e+02 -7.9664480140833694e-12
125 1.1115384615384630e+02 2.4470000000000030e+02 -7.9746465841113708e-12
126 1.3338461538461561e+02 2.4470000000000030e+02 -7.9828451541393722e-12
127 1.5561538461538490e+02 2.4470000000000030e+02 -7.9910437241673736e-12
128 1.7784615384615429e+02 2.4470000000000030e+02 -7.9992422941953750e-12
129 2.0007692307692349e+02 2.4470000000000039e+02 -8.0074408642233764e-12
130 2.2230769230769269e+02 2.4470000000000039e+02 -8.0156394342513762e-12
131 2.4453846153846180e+02 2.4470000000000039e+02 -8.0238380042793776e-12
132 2.6676923076923077e+02 2.4470000000000039e+02 -8.0320365743073790e-12
133 2.8900000000000000e+02 2.2219999999999999e+02 -7.3296924085752819e-12
134 2.8900000000000011e+02 1.9969999999999999e+02 -6.6191496728151817e-12
135 2.8900000000000011e+02 1.7719999999999999e+02 -5.9086069370550831e-12
136 2.8900000000000011e+02 1.5469999999999999e+02 -5.1980642012949837e-12
137 2.8900000000000011e+02 1.3219999999999999e+02 -4.4875214655348844e-12
138 2.6676923076923077e+02 1.0970000000000040e+02 -3.7687801597467787e-12
139 2.4453846153846180e+02 1.0970000000000040e+02 -3.7605815897187781e-12
140 2.2230769230769269e+02 1.0970000000000040e+02 -3.7523830196907767e-12
141 2.0007692307692349e+02 1.0970000000000040e+02 -3.7441844496627753e-12
142 1.7784615384615429e+02 1.0970000000000030e+02 -3.7359858796347747e-12
143 1.5561538461538490e+02 1.0970000000000030e+02 -3.7277873096067733e-12
144 1.3338461538461561e+02 1.0970000000000030e+02 -3.7195887395787719e-12
145 1.1115384615384630e+02 1.0970000000000030e+02 -3.7113901695507713e-12
146 8.8923076923076962e+01 1.0970000000000030e+02 -3.7031915995227699e-12
147 6.6692307692307793e+01 1.0970000000000030e+02 -3.6949930294947693e-12
148 4.4461538461538510e+01 1.0970000000000020e+02 -3.6867944594667671e-12
149 2.2230769230769280e+01 1.0970000000000020e+02 -3.6785958894387673e-12
150 1.4412402518187889e+02 -2.3487345756393239e+02 7.6638627456800908e-12
151 7.8108247952430503e+01 -1.7096062531414401e+02 5.6294067802352553e-12
152 2.3423866779959491e+02 -1.5763074186737120e+02 5.2050935407439641e-12
153 1.6673076923076911e+02 -1.5761207172776301e+02 5.2044992379167434e-12
154 1.5237690487543361e+02 -3.8816698059446441e+02 1.2543460651381629e-11
155 1.1382222586350289e+02 -1.3833528156757009e+02 4.5908856746379441e-12
156 3.3433812218301277e+01 -1.3889874390059910e+02 4.6088216550096844e-12
157 2.1109573925694619e+02 -2.5380249689030941e+02 8.2664067986048495e-12
158 2.0916927728501761e+02 -1.3260431334319421e+02 4.4084590463469586e-12
159 2.5636672816405769e+02 -1.2843047868321759e+02 4.2755986719297706e-12
160 7.9240546634234462e+01 -1.3183688095852810e+02 4.3840303465366049e-12
161 8.4412031869715861e+01 -2.4180297522912511e+02 7.8844412751451736e-12
162 2.3348922362920300e+02 -3.2930423666940919e+02 1.0669757729678039e-11
163 1.6680105078710960e+02 -1.2069357468030860e+02 4.0293196392423346e-12
164 7.6523841041744006e+01 -3.4263117882968942e+02 1.1093977342934340e-11
165 2.7788461538461559e+02 -1.1551388280734460e+02 3.8644410904568107e-12
166 1.3264491139300841e+02 -5.1992401887024835e+02 1.6737515007506640e-11
167 1.2918658178162050e+02 -1.7723227407562291e+02 5.8290442049404897e-12
168 3.4702706502729761e+01 -1.6808489925227630e+02 5.5378674471215773e-12
169 2.0315164964699321e+02 -1.9889999211908349e+02 6.5187651370189013e-12
170 2.6688327484390589e+02 -1.9313954288205619e+02 6.3354000771181001e-12
171 9.9734154714083019e+01 -1.1492857146035830e+02 3.8458096181905704e-12
172 2.3335242584871111e+02 -1.1714704766607150e+02 3.9164275518986423e-12
173 1.4449999999999969e+02 -1.1349748542180110e+02 3.8002556750195217e-12
174 1.9008639208773920e+02 -1.1371941631353640e+02 3.8073201190554690e-12
175 5.5247043041043057e+01 -1.1576011529180940e+02 3.8722790962104586e-12
176 2.7406221436536231e+02 -1.4830246282802449e+02 4.9081582889190730e-12
177 1.2051896842320930e+02 -1.1003226768994590e+02 3.6899518027300663e-12
178 2.9675000000000000e+02 -5.6402575379823702e+01 1.9828259626659180e-12
179 1.5732986432904491e+02 -3.0951109868809220e+02 1.0039707922409531e-11
180 4.6352527744714493e+01 -2.1304100085193679e+02 6.9688978969241894e-12
181 2.9675000000000000e+02 8.1365129365033681e+01 -2.4025583005192881e-12
182 2.2587285050128429e+02 -4.4722995454091358e+02 1.4423537240894129e-11
183 2.9675000000000000e+02 5.6098556839414186e+01 -1.5982796073111430e-12
184 2.9675000000000011e+02 -8.1671312320060792e+01 2.7871735529339399e-12
185 2.2723258507925951e+01 -1.1447494819219600e+02 3.8313700051818621e-12
186 2.7788461538461542e+02 1.0070000000000010e+02 -3.0180206657400358e-12
187 1.9839532776246429e+02 -1.6157909716725231e+02 5.3307765172414643e-12
188 2.3418939544866080e+02 2.5370000000000059e+02 -7.8882752258341309e-12
189 7.8554369700188019e+01 -4.4446733968828119e+02 1.4335598433156769e-11
190 1.2332916327142939e+02 2.5370000000000059e+02 -7.8882752258341293e-12
191 1.1115384615384601e+01 1.0069999999999990e+02 -3.0180206657400302e-12
192 2.5565384615384616e+02 1.0070000000000010e+02 -3.0180206657400358e-12
193 3.3346153846153783e+01 1.0070000000000000e+02 -3.0180206657400318e-12
194 2.3342307692307710e+02 1.0070000000000010e+02 -3.0180206657400350e-12
195 1.4450000000000000e+02 1.0070000000000000e+02 -3.0180206657400338e-12
196 5.5576923076922967e+01 1.0070000000000000e+02 -3.0180206657400318e-12
197 1.2226923076923070e+02 1.0070000000000000e+02 -3.0180206657400338e-12
198 1.6673076923076940e+02 1.0070000000000000e+02 -3.0180206657400318e-12
199 7.7807692307692136e+01 1.0070000000000000e+02 -3.0180206657400318e-12
200 1.0003846153846121e+02 1.0070000000000020e+02 -3.0180206657400391e-12
201 2.1119230769230779e+02 1.0070000000000010e+02 -3.0180206657400350e-12
202 1.8896153846153871e+02 1.0070000000000000e+02 -3.0180206657400330e-12
203 7.7807692307691894e+01 -1.0944789017795330e+02 3.6713500560464182e-12
204 1.2468519798640170e+01 2.5370000000000047e+02 -7.8882752258341293e-12
205 2.2772606311006101e+02 -5.7312460889148929e+02 1.8430981779733079e-11
206 5.3274769679397572e+01 -2.7083456250346518e+02 8.8085668980838924e-12
207 2.1099854212121659e+02 -1.0937415546456030e+02 3.6690029526206713e-12
208 2.5565384615384627e+02 -1.0898189988435909e+02 3.6565167792337592e-12
209 2.9223636296491571e+02 -1.0771166080095740e+02 3.6160828727739759e-12
210 9.8392960151319699e+01 2.5370000000000047e+02 -7.8882752258341293e-12
211 2.0925318412604221e+02 2.5370000000000059e+02 -7.8882752258341309e-12
212 2.6409364754601103e+02 -2.5647175468543099e+02 8.3513738897731998e-12
213 1.0576928099174330e+02 -2.7977635490350389e+02 9.0931996118858728e-12
214 1.4420812553260029e+02 -1.4147413749461310e+02 4.6908008863514067e-12
215 9.6436682906072051e+01 -2.0758206660695231e+02 6.7951305805850414e-12
216 5.7542496693720530e+01 -1.4854547926071021e+02 4.9158939221835532e-12
217 1.8720310818349080e+02 -1.3895899482447689e+02 4.6107395460996564e-12
218 1.6257122614953619e+02 -1.9291083825702060e+02 6.3281200134383983e-12
219 1.5139410316727731e+02 2.6269999999999601e+02 -1.4887878328436349e+02
220 2.1742930886184209e+02 2.6269999999999777e+02 -9.0085607552107035e+01
221 8.4638277862358152e+01 2.6269999999999789e+02 -8.7721025911437209e+01
222 1.5175217762783660e+02 2.6269999999999868e+02 -6.3874352679308799e+01
223 1.6115183373581229e+02 2.6269999999999112e+02 -3.0455665357773893e+02
224 2.6035827653582942e+02 2.6269999999999908e+02 -4.9829230349957470e+01
225 4.3406811300653793e+01 2.6269999999999908e+02 -4.9014748525376937e+01
226 2.4123674231486589e+02 2.6269999999999419e+02 -2.0550251148717331e+02
227 2.0731406055977629e+02 2.6269999999999931e+02 -4.4550494745837000e+01
228 6.8730014786360499e+01 2.6269999999999408e+02 -2.0720510954623430e+02
229 9.6747458764177765e+01 2.6269999999999931e+02 -4.3607523929534977e+01
230 1.5175945243245980e+02 2.6269999999998572e+02 -4.7254284582944769e+02
231 2.5620981918335639e+02 2.6269999999999641e+02 -1.3720364401772889e+02
232 4.8440692223285367e+01 2.6269999999999641e+02 -1.3622969903087491e+02
233 1.5197503844571821e+02 2.6269999999999999e+02 -2.2796769838478671e+01
234 2.6632876341307701e+02 2.6269999999999823e+02 -8.0096190483949613e+01
235 3.7514565517530812e+01 2.6269999999999823e+02 -7.8744128906557648e+01
236 2.3630867204843699e+02 2.6269999999999982e+02 -2.8165582681388059e+01
237 6.7582788538666009e+01 2.6269999999999982e+02 -2.7865353296369790e+01
238 1.5243244448660059e+02 2.6269999999998117e+02 -6.1550718563735518e+02
239 7.3525511098064456e+01 2.6269999999999129e+02 -2.9789644480258301e+02
240 1.8063503790971089e+02 2.6269999999999970e+02 -3.2051972269100020e+01
241 1.2327013287171270e+02 2.6269999999999970e+02 -3.1821112951972047e+01
242 1.2911680510125041e+02 2.6269999999999732e+02 -1.0791197597450950e+02
243 1.7372869515506969e+02 2.6269999999999732e+02 -1.0705750794463260e+02
244 1.5445800606831611e+02 2.6269999999999368e+02 -2.1946897374609139e+02
245 2.7624134595683392e+02 2.6269999999999987e+02 -2.6285665717353140e+01
246 2.6687657389302689e+01 2.6269999999999987e+02 -2.6753588857132399e+01
247 2.3647568810217689e+02 2.6269999999999158e+02 -2.8901003265943672e+02
248 2.0977651457476429e+02 2.6269999999998862e+02 -3.8234452478384719e+02
249 1.1696872648804310e+02 2.6269999999999851e+02 -7.0716949454527935e+01
250 1.8659589538205469e+02 2.6269999999999851e+02 -7.1582522858080779e+01
251 1.0215143252170030e+02 2.6269999999999578e+02 -1.5281627491580019e+02
252 2.0743461391455531e+02 2.6269999999999999e+02 -2.0345434284835282e+01
253 6.7492427750724090e+01 2.6269999999999891e+02 -5.7012693163599813e+01
254 2.0099872282027121e+02 2.6269999999999601e+02 -1.4988597969540061e+02
255 9.6609912110805368e+01 2.6269999999999999e+02 -1.9885655853005350e+01
256 8.6242724474360969e+01 2.6269999999998828e+02 -3.9173823992850549e+02
257 2.3605566604383910e+02 2.6269999999999891e+02 -5.7527000360814782e+01
258 2.8426938337697851e+02 2.6269999999999908e+02 -4.9974548368697469e+01
259 8.4060883199011045e+01 2.6269999999997759e+02 -7.2935826735645639e+02
260 2.2087126862170010e+02 2.6269999999997759e+02 -7.2990336160350478e+02
261 2.1521806841497462e+01 2.6269999999999908e+02 -4.9595829764764403e+01
262 1.5540311576354679e+02 -1.1619999179792730e+02 -8.1280000000021255e+02
263 1.5807206444154019e+02 -4.3476326530615012e+02 -8.1280000000039365e+02
264 1.5724777445460961e+02 5.1628576115459047e+01 -8.1280000000011717e+02
265 1.5374586336751449e+02 -2.7229387618403109e+02 -8.1280000000030134e+02
266 1.1256451423196850e+02 -5.4395785429543196e+02 -8.1280000000045573e+02
267 1.0785693262410361e+02 1.5992328851110429e+02 -8.1280000000005566e+02
268 2.1187210101124481e+02 1.7432169494663370e+02 -8.1280000000004748e+02
269 2.0637731573470180e+02 -5.5628422392033315e+02 -8.1280000000046277e+02
270 1.5687215787004459e+02 -6.5170000000002051e+02 -5.8637714285712252e+02
271 1.5687215787004459e+02 -6.5170000000000914e+02 -2.2642285714283659e+02
272 1.5379071929001481e+02 -6.5170000000001482e+02 -4.0639999999997968e+02
273 1.1638875942936841e+02 -6.5170000000000562e+02 -1.1466587969296440e+02
274 1.1638875942936831e+02 -6.5170000000002403e+02 -6.9813412030699442e+02
275 2.1303727389991630e+02 -6.5170000000000493e+02 -9.5172676690813887e+01
276 2.1303727389991619e+02 -6.5170000000002460e+02 -7.1762732330914480e+02
277 3.0450000000000000e+02 -1.1099246528532970e+02 -3.7097738623741589e+02
278 3.0450000000000000e+02 5.9524793762572159e+01 -2.0278392687233779e+02
279 3.0450000000000000e+02 -1.1693435804239181e+02 -1.7714831219221591e+02
280 3.0450000000000000e+02 -3.1185956393320828e+02 -2.2885161211277949e+02
281 3.0450000000000000e+02 1.7892165027075691e+02 -1.0145546867157790e+02
282 3.0450000000000000e+02 -2.9978169817629549e+01 -1.0828267138819920e+02
283 3.0450000000000000e+02 8.2075232700538237e+01 -7.8775230405236641e+01
284 3.0450000000000000e+02 -3.6510450832338398e+02 -5.1274180152793269e+02
285 3.0450000000000000e+02 -1.0655296919287630e+02 -8.5362790984743867e+01
286 3.0450000000000000e+02 -2.1890534502216971e+02 -1.3327821611110909e+02
287 3.0450000000000000e+02 7.6388195159059677e+01 -4.0280014941911179e+02
288 3.0450000000000000e+02 2.3737994500656161e+01 -4.8774094100554009e+01
289 3.0450000000000000e+02 1.5504211609297670e+02 -2.0312690440110529e+02
290 3.0450000000000000e+02 -7.2830441965088326e+01 -5.8980730999985406e+02
291 3.0450000000000000e+02 2.1173025132274449e+02 -5.0149861796323528e+01
292 3.0450000000000000e+02 -4.8594438771408761e+01 -5.6757777820489082e+01
293 3.0450000000000000e+02 1.3993531729803979e+02 -4.8121854029634562e+01
294 3.0450000000000000e+02 -2.1646718382310110e+02 -2.5664102447854350e+02
295 3.0450000000000000e+02 -1.8500861451125380e+02 -7.3184607559910773e+01
296 3.0450000000000000e+02 -3.3791475827854879e+02 -7.4998569748736315e+01
297 3.0450000000000000e+02 -4.7382095331894749e+02 -1.6371123605059651e+02
298 3.0450000000000000e+02 2.1971792768375369e+01 -1.3082506546498760e+02
299 3.0450000000000000e+02 -4.7006646536692710e+02 -3.5114593981450628e+02
300 3.0450000000000000e+02 -3.4852128685766161e+01 -2.6924929146374689e+02
301 3.0450000000000000e+02 8.2484636790241865e+01 -4.4437651555251527e+01
302 3.0450000000000000e+02 -1.1238720385815790e+02 -4.7599391869049548e+01
303 3.0450000000000000e+02 -1.1283663983238201e+01 -4.5570216929155492e+01
304 3.0450000000000000e+02 1.1505927531917150e+02 -1.5359755580417860e+02
305 3.0450000000000000e+02 2.0939924199522130e+02 -1.4861497075069809e+02
306 3.0450000000000000e+02 -2.5305624849269219e+02 -5.9760722735789777e+01
307 3.0450000000000000e+02 1.7463528188404149e+02 -3.0455665357773597e+02
308 3.0450000000000000e+02 1.7729635135886511e+02 -4.4683141408225708e+01
309 3.0450000000000000e+02 -1.7899605599761369e+01 -1.7775680166591340e+02
310 3.0450000000000000e+02 -3.1035814013805680e+02 -3.5733708979275349e+02
311 3.0450000000000000e+02 -2.1895142252553021e+02 -6.3024599746366425e+02
312 3.0450000000000000e+02 1.1520594194842189e+02 -5.5795216544368668e+02
313 3.0450000000000000e+02 -4.9168868930123239e+02 -6.4410532038896224e+02
314 3.0450000000000000e+02 2.2340946555722471e+02 -8.5979479733710320e+01
315 3.0450000000000000e+02 -1.4569394543858110e+02 -1.2185768044682200e+02
316 3.0450000000000000e+02 -8.3147058244150770e+01 -2.9495938418630711e+01
317 3.0450000000000000e+02 -1.4755006536408010e+02 -3.0852430326289380e+01
318 3.0450000000000000e+02 1.1014098813640310e+02 -2.7489342588551150e+01
319 3.0450000000000000e+02 5.4752076738441332e+01 -2.7508285185555170e+01
320 3.0450000000000000e+02 -2.1276129448743779e+02 -4.8233250406924668e+02
321 3.0450000000000000e+02 -5.4794882461601048e+01 -2.2946883209150830e+01
322 3.0450000000000000e+02 2.6763901641961869e+01 -2.0876309791137661e+01
323 3.0450000000000000e+02 -7.8492040884867407e+01 -1.3617359474109469e+02
324 3.0450000000000000e+02 1.2380628192784040e+02 -9.1404597178724771e+01
325 3.0450000000000000e+02 4.9535779082348093e+01 -3.0496169966535899e+02
326 3.0450000000000000e+02 -1.2742270056882728e+02 -2.5184630978864121e+02
327 3.0450000000000000e+02 1.3816944383780341e+02 -2.0452405145515119e+01
328 3.0450000000000000e+02 2.3315243123391241e+02 -2.4471717025291529e+01
329 3.0450000000000000e+02 -8.3392359600723736e+01 -6.2242618578262750e+01
330 3.0450000000000000e+02 2.7146734477690959e+01 -6.9747967600808147e+02
331 3.0450000000000000e+02 -5.0831533710673102e+02 -4.7772195880496599e+02
332 3.0450000000000000e+02 1.0768849137061260e+02 -5.8045735151479732e+01
333 3.0450000000000000e+02 1.7994767528378111e+02 -4.2285749304023068e+02
334 3.0450000000000000e+02 -4.3994865735253018e+02 -8.0684452985706969e+01
335 3.0450000000000000e+02 -2.8186054281392021e+01 -2.3249291939784371e+01
336 3.0450000000000000e+02 1.9089376045243870e+02 -6.9657612407498732e+01
337 3.0450000000000000e+02 -1.7644416472506151e+02 -1.9308148529319800e+02
338 3.0450000000000000e+02 1.7373617066814120e+00 -2.3078318793438601e+01
339 3.0450000000000000e+02 -3.0815131314327289e+01 -4.6443808569348028e+02
340 3.0450000000000000e+02 -1.0024702600259630e+02 -7.0862659669440563e+02
341 3.0450000000000000e+02 1.9564244178916121e+02 -2.3141372568321628e+01
342 3.0450000000000000e+02 -1.0065395645366659e+00 -7.9502661154991131e+01
343 3.0450000000000000e+02 -1.9437880282642780e+02 -3.2759552124395441e+01
344 3.0450000000000000e+02 1.0968449270548460e+02 -2.5385729612913448e+02
345 3.0450000000000000e+02 5.7456099814980433e+01 -5.7458689557489443e+01
346 3.0450000000000000e+02 -5.5600719375244546e+02 -9.8501540637722371e+01
347 3.0450000000000000e+02 2.1460036489495440e+02 -2.1584001419283490e+02
348 3.0450000000000000e+02 -3.5021229037715523e+02 -6.7960816200021316e+02
349 3.0450000000000000e+02 -6.6280127937024929e+01 -9.1997193798400815e+01
350 3.0450000000000000e+02 1.6549646052403369e+02 -1.9543515180076781e+01
351 3.0450000000000000e+02 -5.4996536238408203e+02 -2.3422614306984210e+02
352 3.0450000000000000e+02 -2.0763951087490150e+02 -3.5057873074198898e+02
353 3.0450000000000000e+02 -1.3943855967298990e+02 -7.1771380237363076e+01
354 3.0450000000000000e+02 1.5856731081008971e+02 -1.4193673109718139e+02
355 3.0450000000000000e+02 7.4365306593525332e+01 -1.2434522168187620e+02
356 3.0450000000000000e+02 -3.8144392369666161e+02 -1.5829449797570641e+02
357 3.0450000000000000e+02 -2.4421674591841011e+02 -1.9288622579067780e+02
358 3.0450000000000000e+02 -2.9580014496832712e+02 -1.4965453625174419e+02
359 3.0450000000000000e+02 -1.0147150208803080e+01 -3.6248532249582280e+02
360 3.0450000000000000e+02 -7.2744494878549062e+01 -2.0565239522735831e+02
361 3.0450000000000000e+02 8.2472643825044116e+01 -1.9887055865872469e+01
362 3.0450000000000000e+02 1.5391706962963050e+02 -7.0119788507421890e+02
363 3.0450000000000000e+02 -4.1625240147298052e+02 -2.4892775313603070e+02
364 3.0450000000000000e+02 -1.1356369091569830e+02 -2.1589552122792380e+01
365 3.0450000000000000e+02 4.3754463082654581e+01 -8.8684954365791612e+01
366 3.0450000000000000e+02 2.3873842962277610e+02 -5.1481286914027287e+01
367 3.0450000000000000e+02 1.6243936125902070e+02 -6.9623270650139148e+01
368 3.0450000000000000e+02 -5.7550000000007424e+02 -7.3152000000025123e+02
369 0.0000000000000000e+00 6.8775000000000006e+01 -2.3293735912890020e-12
370 0.0000000000000000e+00 4.5850000000000037e+01 -1.5529274875845209e-12
371 0.0000000000000000e+00 2.2925000000000050e+01 -7.7648138388003805e-13
372 0.0000000000000000e+00 7.8159700933611020e-14 -3.5280175556371778e-17
373 0.0000000000000000e+00 -2.2924999999999940e+01 7.7641082352892672e-13
374 0.0000000000000000e+00 -4.5849999999999973e+01 1.5528569272334100e-12
375 0.0000000000000000e+00 -6.8774999999999977e+01 2.3293030309378929e-12
376 1.9028201810358300e+02 7.3339528463100507e+01 -2.5562671767801072e-12
377 9.8144903142217004e+01 -7.0393660309200314e+01 2.3469567573615658e-12
378 1.2192719627550430e+02 7.0072210513404713e+01 -2.4195448686842510e-12
379 1.6664359615311980e+02 -7.1851128505215584e+01 2.3702032288614891e-12
380 1.9882030817492758e+01 1.2339628375943830e+01 -4.2529513581417459e-13
381 2.6901517876522502e+02 -1.1043863063824620e+01 2.7169269095484661e-13
382 2.0940662652853541e+02 -7.0698869864052867e+01 2.3148731714084929e-12
383 7.6121031316434085e+01 7.2382843369762696e+01 -2.4803391195375240e-12
384 5.4445305044965487e+01 -7.1523320016815020e+01 2.4018784970963822e-12
385 2.3374903142226950e+02 7.3562026916585779e+01 -2.5803756230230580e-12
386 2.6914636761824170e+02 3.4387500000000188e+01 -1.2670707335630690e-12
387 2.0104791339079899e+01 -3.4219734300040493e+01 1.1515375219218731e-12
388 2.6741738950805308e+02 -5.8758088066186289e+01 1.8883334648712052e-12
389 1.8627683009894891e+01 5.8604044533039691e+01 -1.9917449462545070e-12
390 1.8357101127731539e+01 -5.7299906591359118e+01 1.9339054923207359e-12
391 4.1643650479037319e+01 -4.9425659423979099e+01 1.6583344081475339e-12
392 4.0777962253594922e+01 -2.2693888563351610e+01 7.5328696258799313e-13
393 6.1243064907436292e+01 -3.3575918258989532e+01 1.1140473613602299e-12
394 6.1126365921020643e+01 -9.7101567049804913e+00 3.0578312796460938e-13
395 8.1879223635652238e+01 -2.1273855814032959e+01 6.8952125437980865e-13
396 8.1508348417174034e+01 2.7192340786170059e+00 -1.2295854882705760e-13
397 1.0243695437563890e+02 -8.9303999978739199e+00 2.6362309882442712e-13
398 1.0206008386948530e+02 1.5065850057220599e+01 -5.4896145000358796e-13
399 1.2302385306289931e+02 3.3991539628558201e+00 -1.6181533607997880e-13
400 1.2340197941897760e+02 -2.0598125849927019e+01 6.5080361076131692e-13
401 1.4399376264843940e+02 -8.2706972396237433e+00 2.2543529695592000e-13
402 1.4361484229208821e+02 1.5726503943444568e+01 -5.8718068404983847e-13
403 1.6458598026707369e+02 4.0561538756133046e+00 -1.9991362330665809e-13
404 1.6496473398000731e+02 -1.9940864827062821e+01 6.1269624081251772e-13
405 1.8555727509450350e+02 -7.6142453736138256e+00 1.8735504335659470e-13
406 1.8517844514250569e+02 1.6382795420017910e+01 -6.2525553989281980e-13
407 2.0614986172025681e+02 4.7123108140132084e+00 -2.3798402870325581e-13
408 2.0652863948098559e+02 -1.9284692753043739e+01 5.7462531361941495e-13
409 2.0577108201780339e+02 2.8709325864877322e+01 -1.0505937592303089e-12
410 6.0715360907648183e+01 1.4391506003488930e+01 -5.1035862425218134e-13
411 2.2659594918890130e+02 1.7036533099352791e+01 -6.6318819821704278e-13
412 1.8413846313463080e+02 3.9191641128353027e+01 -1.3973711039673341e-12
413 8.4428163677269822e+01 -4.8195344758852947e+01 1.6003524829264000e-12
414 2.2550285060727239e+02 3.9794013977797754e+01 -1.4335438367464231e-12
415 1.0280652730417221e+02 -3.2925400993521421e+01 1.0761681256422239e-12
416 1.2410497617594010e+02 -4.4376465656435030e+01 1.4558834221933641e-12
417 8.1227902734732936e+01 2.6563824728644480e+01 -9.3044331389571836e-13
418 6.0528360822420893e+01 3.8241101257614098e+01 -1.3180485180700700e-12
419 1.0232209296583559e+02 3.7440246765170443e+01 -1.3068590842508790e-12
420 4.0741523691185357e+01 2.5828378054569509e+01 -8.9009826590701308e-13
421 1.4451433498509769e+02 -3.2721133954695922e+01 1.0533478903333440e-12
422 1.6604954953853519e+02 -4.6023850253707643e+01 1.4956864463189750e-12
423 1.2261614756879651e+02 2.6878252496296000e+01 -9.5687273984718003e-13
424 1.4223725279445060e+02 3.8157610960055287e+01 -1.3463739087684720e-12
425 1.6393054120143901e+02 2.7594166603164211e+01 -9.9687193676749429e-13
426 1.5995821664218579e+02 5.2041300808708932e+01 -1.8233566291785179e-12
427 2.2693517891996260e+02 -6.9611016069258511e+00 1.4945759860365241e-13
428 2.2730735858549090e+02 -3.0958215643235629e+01 9.6207319805944437e-13
429 2.0766983011483100e+02 -4.4720178002735317e+01 1.4356638618996660e-12
430 2.4760387766189379e+02 3.5336025383813880e+00 -2.1386755351111831e-13
431 2.2787880204169460e+02 -5.4952185624735947e+01 1.7745063383853199e-12
432 1.8744452606455019e+02 -5.7193903006921701e+01 1.8658473562767320e-12
433 1.4486582359385591e+02 -5.6769375060907791e+01 1.8677029997830791e-12
434 2.4787333275701860e+02 -4.3815472806615148e+01 1.3896940545408700e-12
435 2.0354664990183969e+02 5.2822474682907277e+01 -1.8664331294067081e-12
436 1.8636909237890220e+02 -3.2462955702847509e+01 1.0286457103806490e-12
437 1.2307771471495410e+02 -6.9320995806403133e+01 2.3011205926277449e-12
438 2.0286941550845430e+01 -1.0899253957866931e+01 3.6162745860322942e-13
439 2.7037172303936200e+02 5.8438912775609701e+01 -2.0821344669613060e-12
440 9.7447728078688954e+01 7.1925934881023991e+01 -2.4729953226008129e-12
441 7.6059942061558729e+01 -7.1216492157600825e+01 2.3832455488128171e-12
442 1.4588883771770981e+02 7.2527299825071808e+01 -2.5118320580745718e-12
443 5.4701809346734422e+01 7.3203316466166271e+01 -2.4999611976784890e-12
444 2.6920470843546229e+02 1.1912778521114390e+01 -5.0589734250615540e-13
445 2.6951938472114341e+02 -3.4387499999999790e+01 1.0621253574486709e-12
446 2.4670760086125060e+02 2.8617070990192321e+01 -1.0630770341519601e-12
447 2.4777961762064800e+02 -2.0045004647606550e+01 5.8464854709772485e-13
448 2.4620710808155670e+02 5.2414191911007727e+01 -1.8688701511748868e-12
449 4.0822571635208703e+01 1.8991090278026379e+00 -7.9669507254116606e-14
450 8.3870536916931258e+01 5.1257315008924081e+01 -1.7677939154804280e-12
451 2.0441773433343432e+01 3.6509018818946117e+01 -1.2441008731535031e-12
452 1.6834070948353821e+02 7.3092656556245046e+01 -2.5395403247913951e-12
453 2.4650922754626231e+02 -6.3109419734767776e+01 2.0436802279213000e-12
454 2.1141473261625950e+02 7.3418186007169368e+01 -2.5669884894127442e-12
455 1.2184912865267090e+02 4.8171215473781231e+01 -1.6777509919486791e-12
456 2.5565384615384656e+02 7.3655703139668844e+01 -2.5918999812058970e-12
457 3.3346153846153982e+01 7.3655703139669200e+01 -2.5071408043091120e-12
458 4.2982237029463143e+01 5.3052133161396469e+01 -1.8129930870706023e-12
459 3.2865297308768731e+01 -7.2849648023433062e+01 2.4550276607018068e-12
460 6.3683759629763813e+01 -5.4047123243522790e+01 1.8064553960583288e-12
461 1.0651245700291069e+02 -5.3042373504882598e+01 1.7560962761502599e-12
462 2.3438244268608219e+02 -7.5305137036985158e+01 2.4613601685790129e-12
463 1.4465530492313289e+02 -7.6575388094153297e+01 2.5385924964248069e-12
464 2.7261729493051928e+02 -7.5668264105259581e+01 2.4590811189485699e-12
465 1.8828356513385671e+02 -7.6628780275237986e+01 2.5237667028569699e-12
466 6.3640795086396750e+01 5.7627341852772723e+01 -1.9758271675674220e-12
467 1.6053419508570240e+01 -7.5449002108445299e+01 2.5494749612525362e-12
468 1.4840921217363590e+01 7.6886949534541799e+01 -2.6095243031524710e-12
469 2.7415895999248778e+02 7.6853923183055841e+01 -2.7072758335768199e-12
470 2.2231833686865451e+02 5.8444115577199447e+01 -2.0639893825724960e-12
471 1.3837212641650419e+02 5.6193927516204390e+01 -1.9557716913308980e-12
472 1.8125321145315539e+02 5.8097520327862959e+01 -2.0365936728248131e-12
473 1.0548333657792620e+02 5.5773384528460888e+01 -1.9289888365930102e-12
474 2.5558056809503148e+02 -7.8725377322224560e+01 2.5691179772506630e-12
475 0.0000000000000000e+00 2.2219999999999999e+02 -7.2191141953226227e-12
476 0.0000000000000000e+00 1.9969999999999999e+02 -6.5085714595625234e-12
477 0.0000000000000000e+00 1.7719999999999999e+02 -5.7980287238024232e-12
478 0.0000000000000000e+00 1.5469999999999999e+02 -5.0874859880423246e-12
479 0.0000000000000000e+00 1.3219999999999999e+02 -4.3769432522822260e-12
480 2.1289161444432881e+02 2.2533762462937290e+02 -7.4007092800818970e-12
481 8.0134257963930338e+01 1.3197000925127361e+02 -4.4032300396845061e-12
482 1.4406659872101241e+02 1.2525479928719241e+02 -4.2147437284280731e-12
483 9.8716436764922719e+01 2.2655294478183231e+02 -7.3969815996272493e-12
484 1.9113231817246941e+02 1.3018119571805610e+02 -4.3876752830811647e-12
485 1.6705805084980619e+02 2.2308231281051121e+02 -7.3125841265524159e-12
486 1.9485571585149842e+01 1.8844999999999999e+02 -6.1644830527070771e-12
487 2.6916451739073892e+02 1.6618396791668181e+02 -5.5534089972912651e-12
488 5.5257606524021703e+01 2.2684622906425230e+02 -7.3902160751042306e-12
489 2.3463333640212559e+02 1.2965295629741641e+02 -4.3870365588646724e-12
490 2.7083905765386510e+02 2.1115907394549180e+02 -6.9743258853178599e-12
491 2.1617332316210479e+01 1.4237384046013369e+02 -4.7101989905181661e-12
492 2.7073801277268660e+02 1.4354492763908419e+02 -4.8390557098074707e-12
493 2.4757072396825569e+02 1.5141947747851080e+02 -5.0791874987505757e-12
494 2.4869398176336941e+02 1.7758377810530371e+02 -5.9058619157856752e-12
495 2.2819903427126209e+02 1.6708535611132140e+02 -5.5667667289649887e-12
496 2.2769068862232771e+02 1.8953806947488451e+02 -6.2756286932857508e-12
497 2.0741998975912139e+02 1.7913160218437750e+02 -5.9395201078184459e-12
498 2.0482197821646810e+02 1.5269455450836111e+02 -5.1036885469769832e-12
499 1.8664078377611119e+02 1.6799924021840130e+02 -5.5803004685817762e-12
500 1.8650749998911610e+02 1.9035062305411250e+02 -6.2861007680401642e-12
501 1.6615326700314600e+02 1.7992818508585691e+02 -5.9494570268585830e-12
502 1.6512182971011509e+02 1.5716681905203831e+02 -5.2302800484473701e-12
503 1.4463703999825151e+02 1.6961944876044939e+02 -5.6159754106504696e-12
504 1.4653705119803351e+02 1.9143453727712841e+02 -6.3055895752591012e-12
505 1.2464666008422481e+02 1.8124089784889421e+02 -5.9756046924977473e-12
506 1.2340042590805849e+02 1.5740780737915571e+02 -5.2225037866515217e-12
507 1.0342965581997720e+02 1.6981367537438709e+02 -5.6069119963038443e-12
508 1.2777209516984792e+02 2.0544119706068670e+02 -6.7409949695212532e-12
509 1.0272453922359310e+02 1.4573127337954500e+02 -4.8461374737988953e-12
510 8.2115650668585999e+01 1.5788240000067771e+02 -5.2222656989626873e-12
511 8.2931119772099350e+01 1.8221363301548939e+02 -5.9909389220631834e-12
512 6.2018639138150718e+01 1.7066217192872671e+02 -5.6184351170344071e-12
513 6.3323656374255563e+01 1.9342244008009970e+02 -6.3376783192613060e-12
514 8.6034017058665540e+01 2.0642758251296169e+02 -6.7567519589006679e-12
515 6.1434988179742732e+01 1.4675052066426201e+02 -4.8630976432421392e-12
516 4.1316679500904293e+01 1.5756087108194279e+02 -5.1970655115977738e-12
517 1.0557047461599259e+02 1.9260092670450061e+02 -6.3273155570432939e-12
518 2.6951442841484987e+02 1.8844999999999999e+02 -6.2566921467991532e-12
519 1.8828107067660540e+01 2.1170247435690649e+02 -6.8985462168754007e-12
520 1.9469197753944741e+01 1.6594999999999999e+02 -5.4539342783794254e-12
521 1.4289797831030171e+02 2.2563580450434159e+02 -7.3843124846947219e-12
522 1.6599519942489130e+02 1.3166084195980460e+02 -4.4251316199520409e-12
523 2.3488236742382011e+02 2.2532312795119191e+02 -7.4083615331860978e-12
524 1.2244306864780700e+02 1.3184886384500450e+02 -4.4150075342493337e-12
525 2.1305835669534989e+02 1.2986721182624410e+02 -4.3858459603790253e-12
526 1.9154148940626891e+02 2.2490039506078790e+02 -7.3790279175646511e-12
527 4.1990558394297580e+01 1.8245819963647341e+02 -5.9835636314830641e-12
528 4.2718672018254551e+01 2.0593289038608680e+02 -6.7251553102277301e-12
529 2.0495426382400549e+02 2.0390198651854541e+02 -6.7208515033905560e-12
530 4.2625081838922817e+01 1.3840175966716049e+02 -4.5925094894158750e-12
531 2.4745582616338379e+02 2.0399502156626789e+02 -6.7394638331601172e-12
532 1.6704938528452260e+02 2.0121283944806629e+02 -6.6219500226307496e-12
533 1.2042237859577919e+02 2.2624975346024101e+02 -7.3954119325111717e-12
534 7.7807692307692207e+01 2.2667010230479920e+02 -7.3929703808994646e-12
535 3.3346153846154039e+01 2.2680923754865000e+02 -7.3809670869237469e-12
536 2.5586289383321929e+02 2.2665902877220319e+02 -7.4582863380288552e-12
537 2.5603558221279798e+02 1.2811071747199131e+02 -4.3462261703987383e-12
538 1.0056769431600721e+02 1.2598054175412371e+02 -4.2216203146470270e-12
539 1.4332501748089200e+02 1.4719566549254839e+02 -4.9073557089034088e-12
540 2.2547949327713181e+02 1.4686251881072241e+02 -4.9271331061805203e-12
541 5.4782387997099363e+01 1.2640360593204461e+02 -4.2180952073529878e-12
542 1.8340919677922651e+02 1.4812928251002751e+02 -4.9516218299958378e-12
543 2.2491641311160780e+02 2.0910186393835329e+02 -6.8924238705425297e-12
544 1.6445214059655431e+01 1.2621605370733091e+02 -4.1980338563040071e-12
545 1.5797557838973891e+01 2.2890009837556741e+02 -7.4405239832551464e-12
546 2.7287989436751008e+02 2.2850516453352691e+02 -7.5228624737561667e-12
547 2.7287989436751042e+02 1.2589483546647328e+02 -4.2824614100873524e-12
548 6.6799050336242885e+01 2.1184165201622551e+02 -6.9206327892392839e-12
549 1.5128849307292521e+02 2.0939072585357840e+02 -6.8743925155963123e-12
550 3.3472818133524811e+01 1.2319910206576900e+02 -4.1090391724405242e-12
551 1.8342213787074380e+02 2.0868963137840470e+02 -6.8641028676357074e-12
552 1.0814694297986570e+02 2.1097158792961511e+02 -6.9084052930484030e-12
$EndNodes
$Elements
1058
1 2 2 1 1 39 38 123
2 2 2 1 1 14 18 3
3 2 2 1 1 155 160 151
4 2 2 1 1 42 128 43
5 2 2 1 1 115 185 114
6 2 2 1 1 1 166 120
7 2 2 1 1 39 210 40
8 2 2 1 1 107 163 106
9 2 2 1 1 14 3 46
10 2 2 1 1 169 170 152
11 2 2 1 1 45 131 132
12 2 2 1 1 43 211 44
13 2 2 1 1 15 22 137
14 2 2 1 1 150 179 157
15 2 2 1 1 119 164 118
16 2 2 1 1 127 41 126
17 2 2 1 1 151 167 155
18 2 2 1 1 134 19 133
19 2 2 1 1 155 171 160
20 2 2 1 1 122 37 121
21 2 2 1 1 157 169 150
22 2 2 1 1 11 184 101
23 2 2 1 1 156 185 115
24 2 2 1 1 124 39 123
25 2 2 1 1 167 214 155
26 2 2 1 1 12 185 113
27 2 2 1 1 99 27 98
28 2 2 1 1 96 183 95
29 2 2 1 1 152 176 159
30 2 2 1 1 17 166 1
31 2 2 1 1 95 181 10
32 2 2 1 1 10 23 15
33 2 2 1 1 152 172 158
34 2 2 1 1 159 172 152
35 2 2 1 1 128 129 43
36 2 2 1 1 98 26 97
37 2 2 1 1 112 185 175
38 2 2 1 1 113 185 112
39 2 2 1 1 14 46 132
40 2 2 1 1 101 178 100
41 2 2 1 1 114 185 12
42 2 2 1 1 102 165 11
43 2 2 1 1 157 170 169
44 2 2 1 1 133 18 14
45 2 2 1 1 153 214 167
46 2 2 1 1 170 176 152
47 2 2 1 1 30 209 31
48 2 2 1 1 34 162 35
49 2 2 1 1 157 179 162
50 2 2 1 1 119 189 164
51 2 2 1 1 162 212 157
52 2 2 1 1 34 212 162
53 2 2 1 1 163 174 106
54 2 2 1 1 107 173 163
55 2 2 1 1 127 128 42
56 2 2 1 1 123 38 122
57 2 2 1 1 32 176 170
58 2 2 1 1 168 180 151
59 2 2 1 1 115 168 156
60 2 2 1 1 110 171 109
61 2 2 1 1 104 172 103
62 2 2 1 1 32 170 33
63 2 2 1 1 150 215 161
64 2 2 1 1 112 175 111
65 2 2 1 1 10 186 94
66 2 2 1 1 169 218 150
67 2 2 1 1 164 206 118
68 2 2 1 1 116 168 115
69 2 2 1 1 166 182 154
70 2 2 1 1 117 180 116
71 2 2 1 1 180 215 151
72 2 2 1 1 106 174 105
73 2 2 1 1 31 176 32
74 2 2 1 1 108 173 107
75 2 2 1 1 120 189 119
76 2 2 1 1 152 187 169
77 2 2 1 1 35 182 36
78 2 2 1 1 130 211 129
79 2 2 1 1 85 196 84
80 2 2 1 1 140 194 139
81 2 2 1 1 93 194 92
82 2 2 1 1 148 196 147
83 2 2 1 1 88 197 87
84 2 2 1 1 90 198 89
85 2 2 1 1 143 198 142
86 2 2 1 1 145 197 144
87 2 2 1 1 151 216 168
88 2 2 1 1 138 186 15
89 2 2 1 1 83 191 9
90 2 2 1 1 16 191 149
91 2 2 1 1 91 202 90
92 2 2 1 1 146 200 145
93 2 2 1 1 87 200 86
94 2 2 1 1 142 202 141
95 2 2 1 1 86 199 85
96 2 2 1 1 141 201 140
97 2 2 1 1 92 201 91
98 2 2 1 1 147 199 146
99 2 2 1 1 84 193 83
100 2 2 1 1 139 192 138
101 2 2 1 1 94 192 93
102 2 2 1 1 149 193 148
103 2 2 1 1 144 195 143
104 2 2 1 1 89 195 88
105 2 2 1 1 162 182 35
106 2 2 1 1 125 210 124
107 2 2 1 1 165 209 11
108 2 2 1 1 36 205 2
109 2 2 1 1 33 212 34
110 2 2 1 1 121 204 13
111 2 2 1 1 164 189 154
112 2 2 1 1 126 190 125
113 2 2 1 1 157 212 170
114 2 2 1 1 131 188 130
115 2 2 1 1 206 213 161
116 2 2 1 1 153 218 187
117 2 2 1 1 154 189 166
118 2 2 1 1 109 177 108
119 2 2 1 1 170 212 33
120 2 2 1 1 154 182 162
121 2 2 1 1 173 177 155
122 2 2 1 1 166 189 120
123 2 2 1 1 161 213 150
124 2 2 1 1 175 216 160
125 2 2 1 1 118 206 117
126 2 2 1 1 167 215 150
127 2 2 1 1 116 180 168
128 2 2 1 1 175 185 156
129 2 2 1 1 156 216 175
130 2 2 1 1 151 215 167
131 2 2 1 1 182 205 36
132 2 2 1 1 167 218 153
133 2 2 1 1 166 205 182
134 2 2 1 1 162 179 154
135 2 2 1 1 171 177 109
136 2 2 1 1 158 187 152
137 2 2 1 1 110 203 171
138 2 2 1 1 111 203 110
139 2 2 1 1 164 213 206
140 2 2 1 1 165 176 31
141 2 2 1 1 104 207 172
142 2 2 1 1 172 208 103
143 2 2 1 1 102 208 165
144 2 2 1 1 117 206 180
145 2 2 1 1 105 207 104
146 2 2 1 1 155 177 171
147 2 2 1 1 103 208 102
148 2 2 1 1 160 216 151
149 2 2 1 1 175 203 111
150 2 2 1 1 2 205 17
151 2 2 1 1 187 218 169
152 2 2 1 1 154 179 164
153 2 2 1 1 108 177 173
154 2 2 1 1 129 211 43
155 2 2 1 1 150 213 179
156 2 2 1 1 30 184 11
157 2 2 1 1 31 209 165
158 2 2 1 1 174 207 105
159 2 2 1 1 124 210 39
160 2 2 1 1 25 183 96
161 2 2 1 1 155 214 173
162 2 2 1 1 10 181 23
163 2 2 1 1 37 204 121
164 2 2 1 1 100 178 28
165 2 2 1 1 41 190 126
166 2 2 1 1 168 216 156
167 2 2 1 1 159 176 165
168 2 2 1 1 45 188 131
169 2 2 1 1 180 206 161
170 2 2 1 1 150 218 167
171 2 2 1 1 11 209 30
172 2 2 1 1 153 217 163
173 2 2 1 1 163 214 153
174 2 2 1 1 15 186 10
175 2 2 1 1 161 215 180
176 2 2 1 1 17 205 166
177 2 2 1 1 158 207 174
178 2 2 1 1 130 188 44
179 2 2 1 1 160 203 175
180 2 2 1 1 174 217 158
181 2 2 1 1 125 190 40
182 2 2 1 1 84 196 148
183 2 2 1 1 92 194 140
184 2 2 1 1 147 196 85
185 2 2 1 1 139 194 93
186 2 2 1 1 87 197 145
187 2 2 1 1 89 198 143
188 2 2 1 1 142 198 90
189 2 2 1 1 144 197 88
190 2 2 1 1 13 204 4
191 2 2 1 1 94 186 138
192 2 2 1 1 9 191 16
193 2 2 1 1 149 191 83
194 2 2 1 1 145 200 87
195 2 2 1 1 90 202 142
196 2 2 1 1 141 202 91
197 2 2 1 1 86 200 146
198 2 2 1 1 140 201 92
199 2 2 1 1 85 199 147
200 2 2 1 1 146 199 86
201 2 2 1 1 91 201 141
202 2 2 1 1 83 193 149
203 2 2 1 1 138 192 94
204 2 2 1 1 93 192 139
205 2 2 1 1 148 193 84
206 2 2 1 1 143 195 89
207 2 2 1 1 88 195 144
208 2 2 1 1 29 178 101
209 2 2 1 1 40 210 125
210 2 2 1 1 179 213 164
211 2 2 1 1 44 211 130
212 2 2 1 1 24 181 95
213 2 2 1 1 95 183 24
214 2 2 1 1 158 217 187
215 2 2 1 1 171 203 160
216 2 2 1 1 101 184 29
217 2 2 1 1 172 207 158
218 2 2 1 1 159 208 172
219 2 2 1 1 165 208 159
220 2 2 1 1 163 217 174
221 2 2 1 1 173 214 163
222 2 2 1 1 187 217 153
223 2 2 1 1 4 204 37
224 2 2 1 1 23 181 24
225 2 2 1 1 24 183 25
226 2 2 1 1 28 178 29
227 2 2 1 1 29 184 30
228 2 2 1 1 40 190 41
229 2 2 1 1 44 188 45
230 2 2 1 1 15 23 22
231 2 2 1 1 133 19 18
232 2 2 1 1 134 20 19
233 2 2 1 1 136 21 20
234 2 2 1 1 135 20 134
235 2 2 1 1 136 20 135
236 2 2 1 1 137 22 21
237 2 2 1 1 137 21 136
238 2 2 1 1 97 26 25
239 2 2 1 1 97 25 96
240 2 2 1 1 98 27 26
241 2 2 1 1 28 27 99
242 2 2 1 1 100 28 99
243 2 2 1 1 38 37 122
244 2 2 1 1 42 41 127
245 2 2 1 1 46 45 132
246 2 2 1 2 222 241 233
247 2 2 1 2 233 240 222
248 2 2 1 2 237 246 38
249 2 2 1 2 45 245 236
250 2 2 1 2 58 226 59
251 2 2 1 2 51 228 50
252 2 2 1 2 46 245 45
253 2 2 1 2 38 246 37
254 2 2 1 2 226 231 59
255 2 2 1 2 3 245 46
256 2 2 1 2 51 232 228
257 2 2 1 2 230 238 48
258 2 2 1 2 222 249 241
259 2 2 1 2 240 250 222
260 2 2 1 2 48 238 47
261 2 2 1 2 56 238 230
262 2 2 1 2 55 238 56
263 2 2 1 2 62 245 3
264 2 2 1 2 37 246 4
265 2 2 1 2 42 233 41
266 2 2 1 2 4 246 54
267 2 2 1 2 241 249 229
268 2 2 1 2 227 250 240
269 2 2 1 2 59 231 60
270 2 2 1 2 52 232 51
271 2 2 1 2 225 246 237
272 2 2 1 2 220 234 231
273 2 2 1 2 56 248 57
274 2 2 1 2 232 235 221
275 2 2 1 2 236 245 224
276 2 2 1 2 231 234 60
277 2 2 1 2 219 254 244
278 2 2 1 2 52 235 232
279 2 2 1 2 45 236 44
280 2 2 1 2 39 237 38
281 2 2 1 2 234 257 224
282 2 2 1 2 242 251 221
283 2 2 1 2 220 257 234
284 2 2 1 2 221 251 232
285 2 2 1 2 226 247 244
286 2 2 1 2 228 244 239
287 2 2 1 2 60 234 61
288 2 2 1 2 53 235 52
289 2 2 1 2 233 241 41
290 2 2 1 2 42 240 233
291 2 2 1 2 244 251 219
292 2 2 1 2 49 256 48
293 2 2 1 2 230 248 56
294 2 2 1 2 50 239 49
295 2 2 1 2 228 239 50
296 2 2 1 2 225 253 235
297 2 2 1 2 57 247 58
298 2 2 1 2 224 258 234
299 2 2 1 2 244 254 226
300 2 2 1 2 234 258 61
301 2 2 1 2 53 261 235
302 2 2 1 2 235 253 221
303 2 2 1 2 235 261 225
304 2 2 1 2 41 241 40
305 2 2 1 2 43 240 42
306 2 2 1 2 231 254 220
307 2 2 1 2 48 256 230
308 2 2 1 2 220 254 243
309 2 2 1 2 227 257 220
310 2 2 1 2 228 251 244
311 2 2 1 2 221 253 229
312 2 2 1 2 239 244 223
313 2 2 1 2 236 252 44
314 2 2 1 2 58 247 226
315 2 2 1 2 54 261 53
316 2 2 1 2 39 255 237
317 2 2 1 2 244 247 223
318 2 2 1 2 222 243 242
319 2 2 1 2 61 258 62
320 2 2 1 2 220 250 227
321 2 2 1 2 226 254 231
322 2 2 1 2 248 256 223
323 2 2 1 2 229 249 221
324 2 2 1 2 232 251 228
325 2 2 1 2 43 252 240
326 2 2 1 2 44 252 43
327 2 2 1 2 241 255 40
328 2 2 1 2 242 249 222
329 2 2 1 2 40 255 39
330 2 2 1 2 240 252 227
331 2 2 1 2 47 259 5
332 2 2 1 2 229 255 241
333 2 2 1 2 6 260 55
334 2 2 1 2 223 256 239
335 2 2 1 2 222 250 243
336 2 2 1 2 221 249 242
337 2 2 1 2 227 252 236
338 2 2 1 2 237 255 229
339 2 2 1 2 5 259 63
340 2 2 1 2 63 260 6
341 2 2 1 2 238 260 259
342 2 2 1 2 55 260 238
343 2 2 1 2 238 259 47
344 2 2 1 2 57 248 247
345 2 2 1 2 243 250 220
346 2 2 1 2 242 243 219
347 2 2 1 2 239 256 49
348 2 2 1 2 230 256 248
349 2 2 1 2 229 253 237
350 2 2 1 2 259 260 63
351 2 2 1 2 236 257 227
352 2 2 1 2 237 253 225
353 2 2 1 2 219 251 242
354 2 2 1 2 243 254 219
355 2 2 1 2 224 257 236
356 2 2 1 2 245 258 224
357 2 2 1 2 247 248 223
358 2 2 1 2 62 258 245
359 2 2 1 2 225 261 246
360 2 2 1 2 246 261 54
361 2 2 1 3 66 265 65
362 2 2 1 3 72 264 73
363 2 2 1 3 68 264 67
364 2 2 1 3 67 262 66
365 2 2 1 3 71 262 72
366 2 2 1 3 65 263 64
367 2 2 1 3 69 263 70
368 2 2 1 3 262 265 66
369 2 2 1 3 65 265 263
370 2 2 1 3 67 264 262
371 2 2 1 3 262 264 72
372 2 2 1 3 70 265 71
373 2 2 1 3 263 265 70
374 2 2 1 3 71 265 262
375 2 2 1 3 69 269 263
376 2 2 1 3 64 266 7
377 2 2 1 3 7 266 74
378 2 2 1 3 5 267 68
379 2 2 1 3 63 267 5
380 2 2 1 3 264 268 73
381 2 2 1 3 263 266 64
382 2 2 1 3 68 267 264
383 2 2 1 3 263 269 266
384 2 2 1 3 73 268 6
385 2 2 1 3 8 269 69
386 2 2 1 3 74 269 8
387 2 2 1 3 6 268 63
388 2 2 1 3 267 268 264
389 2 2 1 3 63 268 267
390 2 2 1 3 266 269 74
391 2 2 1 4 80 272 81
392 2 2 1 4 78 270 77
393 2 2 1 4 81 270 82
394 2 2 1 4 76 271 75
395 2 2 1 4 79 271 80
396 2 2 1 4 271 272 80
397 2 2 1 4 81 272 270
398 2 2 1 4 77 272 76
399 2 2 1 4 76 272 271
400 2 2 1 4 270 272 77
401 2 2 1 4 1 273 17
402 2 2 1 4 74 274 7
403 2 2 1 4 75 273 1
404 2 2 1 4 7 274 78
405 2 2 1 4 270 276 82
406 2 2 1 4 79 275 271
407 2 2 1 4 271 275 273
408 2 2 1 4 274 276 270
409 2 2 1 4 78 274 270
410 2 2 1 4 271 273 75
411 2 2 1 4 2 275 79
412 2 2 1 4 82 276 8
413 2 2 1 4 17 275 2
414 2 2 1 4 8 276 74
415 2 2 1 4 273 275 17
416 2 2 1 4 74 276 274
417 2 2 1 5 19 341 328
418 2 2 1 5 278 309 300
419 2 2 1 5 292 342 303
420 2 2 1 5 289 304 278
421 2 2 1 5 278 355 298
422 2 2 1 5 315 323 285
423 2 2 1 5 35 296 34
424 2 2 1 5 82 331 81
425 2 2 1 5 280 310 294
426 2 2 1 5 19 328 18
427 2 2 1 5 314 336 281
428 2 2 1 5 282 323 309
429 2 2 1 5 313 331 82
430 2 2 1 5 322 338 288
431 2 2 1 5 18 328 3
432 2 2 1 5 282 309 298
433 2 2 1 5 296 306 34
434 2 2 1 5 307 344 325
435 2 2 1 5 298 309 278
436 2 2 1 5 3 328 62
437 2 2 1 5 71 348 70
438 2 2 1 5 288 338 303
439 2 2 1 5 282 342 292
440 2 2 1 5 280 363 310
441 2 2 1 5 285 353 315
442 2 2 1 5 304 355 278
443 2 2 1 5 80 331 299
444 2 2 1 5 81 331 80
445 2 2 1 5 311 348 71
446 2 2 1 5 292 335 321
447 2 2 1 5 293 350 327
448 2 2 1 5 70 348 69
449 2 2 1 5 303 335 292
450 2 2 1 5 305 314 281
451 2 2 1 5 328 341 291
452 2 2 1 5 300 325 278
453 2 2 1 5 60 305 59
454 2 2 1 5 315 353 295
455 2 2 1 5 306 358 286
456 2 2 1 5 294 357 280
457 2 2 1 5 284 310 299
458 2 2 1 5 34 306 33
459 2 2 1 5 323 360 309
460 2 2 1 5 56 312 55
461 2 2 1 5 290 339 320
462 2 2 1 5 320 339 277
463 2 2 1 5 286 315 295
464 2 2 1 5 308 350 293
465 2 2 1 5 290 320 311
466 2 2 1 5 69 348 313
467 2 2 1 5 58 307 57
468 2 2 1 5 30 316 29
469 2 2 1 5 278 344 289
470 2 2 1 5 310 352 294
471 2 2 1 5 279 323 315
472 2 2 1 5 60 314 305
473 2 2 1 5 307 325 287
474 2 2 1 5 319 322 288
475 2 2 1 5 279 360 323
476 2 2 1 5 306 343 33
477 2 2 1 5 286 337 315
478 2 2 1 5 292 349 282
479 2 2 1 5 298 342 282
480 2 2 1 5 300 326 277
481 2 2 1 5 295 306 286
482 2 2 1 5 23 318 22
483 2 2 1 5 25 319 24
484 2 2 1 5 309 360 300
485 2 2 1 5 291 341 308
486 2 2 1 5 310 363 299
487 2 2 1 5 58 347 307
488 2 2 1 5 296 358 306
489 2 2 1 5 294 352 326
490 2 2 1 5 32 317 31
491 2 2 1 5 61 314 60
492 2 2 1 5 324 354 281
493 2 2 1 5 287 339 312
494 2 2 1 5 326 352 277
495 2 2 1 5 307 347 289
496 2 2 1 5 295 343 306
497 2 2 1 5 295 353 317
498 2 2 1 5 36 334 35
499 2 2 1 5 299 331 284
500 2 2 1 5 314 366 291
501 2 2 1 5 284 348 311
502 2 2 1 5 71 340 311
503 2 2 1 5 61 366 314
504 2 2 1 5 311 320 284
505 2 2 1 5 283 355 324
506 2 2 1 5 292 321 316
507 2 2 1 5 29 321 28
508 2 2 1 5 56 333 312
509 2 2 1 5 26 322 25
510 2 2 1 5 22 327 21
511 2 2 1 5 317 364 31
512 2 2 1 5 316 321 29
513 2 2 1 5 304 354 324
514 2 2 1 5 312 333 287
515 2 2 1 5 288 345 319
516 2 2 1 5 303 342 288
517 2 2 1 5 317 343 295
518 2 2 1 5 313 348 284
519 2 2 1 5 35 334 296
520 2 2 1 5 33 343 32
521 2 2 1 5 30 364 316
522 2 2 1 5 298 365 342
523 2 2 1 5 2 346 36
524 2 2 1 5 308 336 291
525 2 2 1 5 318 327 22
526 2 2 1 5 299 351 80
527 2 2 1 5 25 322 319
528 2 2 1 5 57 333 56
529 2 2 1 5 284 331 313
530 2 2 1 5 287 333 307
531 2 2 1 5 36 346 334
532 2 2 1 5 311 340 290
533 2 2 1 5 284 320 310
534 2 2 1 5 324 367 293
535 2 2 1 5 305 354 289
536 2 2 1 5 293 327 318
537 2 2 1 5 23 361 318
538 2 2 1 5 324 355 304
539 2 2 1 5 319 361 24
540 2 2 1 5 312 339 290
541 2 2 1 5 305 347 59
542 2 2 1 5 59 347 58
543 2 2 1 5 28 335 27
544 2 2 1 5 62 366 61
545 2 2 1 5 55 362 6
546 2 2 1 5 307 333 57
547 2 2 1 5 27 338 26
548 2 2 1 5 277 352 320
549 2 2 1 5 289 344 307
550 2 2 1 5 32 343 317
551 2 2 1 5 342 365 288
552 2 2 1 5 6 362 73
553 2 2 1 5 313 368 69
554 2 2 1 5 20 341 19
555 2 2 1 5 312 362 55
556 2 2 1 5 316 329 292
557 2 2 1 5 323 349 285
558 2 2 1 5 301 345 283
559 2 2 1 5 283 332 301
560 2 2 1 5 281 354 305
561 2 2 1 5 289 347 305
562 2 2 1 5 279 337 326
563 2 2 1 5 321 335 28
564 2 2 1 5 73 330 72
565 2 2 1 5 285 329 302
566 2 2 1 5 26 338 322
567 2 2 1 5 290 330 312
568 2 2 1 5 302 364 317
569 2 2 1 5 82 368 313
570 2 2 1 5 291 336 314
571 2 2 1 5 315 337 279
572 2 2 1 5 325 344 278
573 2 2 1 5 293 367 308
574 2 2 1 5 31 364 30
575 2 2 1 5 286 357 337
576 2 2 1 5 21 350 20
577 2 2 1 5 327 350 21
578 2 2 1 5 320 352 310
579 2 2 1 5 79 346 2
580 2 2 1 5 318 332 293
581 2 2 1 5 72 340 71
582 2 2 1 5 289 354 304
583 2 2 1 5 335 338 27
584 2 2 1 5 285 349 329
585 2 2 1 5 277 359 300
586 2 2 1 5 8 368 82
587 2 2 1 5 334 346 297
588 2 2 1 5 24 361 23
589 2 2 1 5 326 360 279
590 2 2 1 5 282 349 323
591 2 2 1 5 293 332 324
592 2 2 1 5 20 350 341
593 2 2 1 5 302 353 285
594 2 2 1 5 281 367 324
595 2 2 1 5 80 351 79
596 2 2 1 5 283 365 355
597 2 2 1 5 346 351 297
598 2 2 1 5 330 340 72
599 2 2 1 5 302 329 316
600 2 2 1 5 316 364 302
601 2 2 1 5 330 362 312
602 2 2 1 5 318 361 301
603 2 2 1 5 301 361 319
604 2 2 1 5 301 332 318
605 2 2 1 5 69 368 8
606 2 2 1 5 324 332 283
607 2 2 1 5 319 345 301
608 2 2 1 5 287 359 339
609 2 2 1 5 290 340 330
610 2 2 1 5 329 349 292
611 2 2 1 5 79 351 346
612 2 2 1 5 317 353 302
613 2 2 1 5 325 359 287
614 2 2 1 5 300 359 325
615 2 2 1 5 326 337 294
616 2 2 1 5 339 359 277
617 2 2 1 5 351 363 297
618 2 2 1 5 345 365 283
619 2 2 1 5 303 338 335
620 2 2 1 5 357 358 280
621 2 2 1 5 356 358 296
622 2 2 1 5 341 350 308
623 2 2 1 5 355 365 298
624 2 2 1 5 334 356 296
625 2 2 1 5 300 360 326
626 2 2 1 5 299 363 351
627 2 2 1 5 308 367 336
628 2 2 1 5 280 358 356
629 2 2 1 5 291 366 328
630 2 2 1 5 73 362 330
631 2 2 1 5 328 366 62
632 2 2 1 5 286 358 357
633 2 2 1 5 288 365 345
634 2 2 1 5 356 363 280
635 2 2 1 5 297 363 356
636 2 2 1 5 337 357 294
637 2 2 1 5 297 356 334
638 2 2 1 5 336 367 281
639 2 2 3 7 12 467 375
640 2 2 3 7 113 467 12
641 2 2 3 7 369 468 9
642 2 2 3 7 9 468 83
643 2 2 3 7 94 469 10
644 2 2 3 7 10 469 95
645 2 2 3 7 11 464 102
646 2 2 3 7 101 464 11
647 2 2 3 7 370 389 369
648 2 2 3 7 389 468 369
649 2 2 3 7 371 451 370
650 2 2 3 7 370 451 389
651 2 2 3 7 372 380 371
652 2 2 3 7 380 451 371
653 2 2 3 7 373 438 372
654 2 2 3 7 372 438 380
655 2 2 3 7 374 387 373
656 2 2 3 7 387 438 373
657 2 2 3 7 375 390 374
658 2 2 3 7 374 390 387
659 2 2 3 7 375 467 390
660 2 2 3 7 83 457 84
661 2 2 3 7 83 468 457
662 2 2 3 7 84 443 85
663 2 2 3 7 84 457 443
664 2 2 3 7 85 383 86
665 2 2 3 7 85 443 383
666 2 2 3 7 86 440 87
667 2 2 3 7 383 440 86
668 2 2 3 7 87 378 88
669 2 2 3 7 87 440 378
670 2 2 3 7 88 442 89
671 2 2 3 7 378 442 88
672 2 2 3 7 89 452 90
673 2 2 3 7 442 452 89
674 2 2 3 7 90 376 91
675 2 2 3 7 90 452 376
676 2 2 3 7 91 454 92
677 2 2 3 7 376 454 91
678 2 2 3 7 92 385 93
679 2 2 3 7 92 454 385
680 2 2 3 7 93 456 94
681 2 2 3 7 385 456 93
682 2 2 3 7 456 469 94
683 2 2 3 7 112 459 113
684 2 2 3 7 459 467 113
685 2 2 3 7 111 384 112
686 2 2 3 7 384 459 112
687 2 2 3 7 110 441 111
688 2 2 3 7 111 441 384
689 2 2 3 7 109 377 110
690 2 2 3 7 377 441 110
691 2 2 3 7 108 437 109
692 2 2 3 7 109 437 377
693 2 2 3 7 107 463 108
694 2 2 3 7 108 463 437
695 2 2 3 7 106 379 107
696 2 2 3 7 379 463 107
697 2 2 3 7 105 465 106
698 2 2 3 7 106 465 379
699 2 2 3 7 104 382 105
700 2 2 3 7 382 465 105
701 2 2 3 7 103 462 104
702 2 2 3 7 104 462 382
703 2 2 3 7 102 474 103
704 2 2 3 7 103 474 462
705 2 2 3 7 464 474 102
706 2 2 3 7 95 439 96
707 2 2 3 7 95 469 439
708 2 2 3 7 96 386 97
709 2 2 3 7 96 439 386
710 2 2 3 7 97 444 98
711 2 2 3 7 386 444 97
712 2 2 3 7 98 381 99
713 2 2 3 7 98 444 381
714 2 2 3 7 99 445 100
715 2 2 3 7 381 445 99
716 2 2 3 7 100 388 101
717 2 2 3 7 100 445 388
718 2 2 3 7 388 464 101
719 2 2 3 7 435 454 376
720 2 2 3 7 376 472 435
721 2 2 3 7 452 472 376
722 2 2 3 7 413 441 377
723 2 2 3 7 377 461 413
724 2 2 3 7 437 461 377
725 2 2 3 7 440 473 378
726 2 2 3 7 378 471 442
727 2 2 3 7 455 471 378
728 2 2 3 7 378 473 455
729 2 2 3 7 379 432 422
730 2 2 3 7 422 433 379
731 2 2 3 7 379 465 432
732 2 2 3 7 433 463 379
733 2 2 3 7 380 449 420
734 2 2 3 7 420 451 380
735 2 2 3 7 438 449 380
736 2 2 3 7 381 444 430
737 2 2 3 7 430 447 381
738 2 2 3 7 381 447 445
739 2 2 3 7 382 431 429
740 2 2 3 7 429 432 382
741 2 2 3 7 382 462 431
742 2 2 3 7 432 465 382
743 2 2 3 7 383 450 440
744 2 2 3 7 443 466 383
745 2 2 3 7 383 466 450
746 2 2 3 7 391 459 384
747 2 2 3 7 384 460 391
748 2 2 3 7 441 460 384
749 2 2 3 7 448 456 385
750 2 2 3 7 385 470 448
751 2 2 3 7 454 470 385
752 2 2 3 7 439 448 386
753 2 2 3 7 386 446 444
754 2 2 3 7 386 448 446
755 2 2 3 7 390 391 387
756 2 2 3 7 391 392 387
757 2 2 3 7 392 438 387
758 2 2 3 7 388 445 434
759 2 2 3 7 434 453 388
760 2 2 3 7 453 474 388
761 2 2 3 7 388 474 464
762 2 2 3 7 451 458 389
763 2 2 3 7 389 458 457
764 2 2 3 7 457 468 389
765 2 2 3 7 390 459 391
766 2 2 3 7 390 467 459
767 2 2 3 7 391 393 392
768 2 2 3 7 391 460 393
769 2 2 3 7 393 394 392
770 2 2 3 7 394 449 392
771 2 2 3 7 392 449 438
772 2 2 3 7 393 395 394
773 2 2 3 7 393 413 395
774 2 2 3 7 393 460 413
775 2 2 3 7 395 396 394
776 2 2 3 7 396 410 394
777 2 2 3 7 410 449 394
778 2 2 3 7 395 397 396
779 2 2 3 7 395 415 397
780 2 2 3 7 413 415 395
781 2 2 3 7 397 398 396
782 2 2 3 7 398 417 396
783 2 2 3 7 396 417 410
784 2 2 3 7 397 399 398
785 2 2 3 7 397 400 399
786 2 2 3 7 397 415 400
787 2 2 3 7 399 423 398
788 2 2 3 7 398 419 417
789 2 2 3 7 398 423 419
790 2 2 3 7 400 401 399
791 2 2 3 7 401 402 399
792 2 2 3 7 402 423 399
793 2 2 3 7 400 421 401
794 2 2 3 7 415 416 400
795 2 2 3 7 416 421 400
796 2 2 3 7 401 403 402
797 2 2 3 7 401 404 403
798 2 2 3 7 401 421 404
799 2 2 3 7 403 425 402
800 2 2 3 7 402 424 423
801 2 2 3 7 402 425 424
802 2 2 3 7 404 405 403
803 2 2 3 7 405 406 403
804 2 2 3 7 406 425 403
805 2 2 3 7 404 436 405
806 2 2 3 7 421 422 404
807 2 2 3 7 422 436 404
808 2 2 3 7 405 407 406
809 2 2 3 7 405 408 407
810 2 2 3 7 405 436 408
811 2 2 3 7 407 409 406
812 2 2 3 7 409 412 406
813 2 2 3 7 412 425 406
814 2 2 3 7 408 427 407
815 2 2 3 7 407 411 409
816 2 2 3 7 407 427 411
817 2 2 3 7 408 428 427
818 2 2 3 7 408 429 428
819 2 2 3 7 408 436 429
820 2 2 3 7 411 414 409
821 2 2 3 7 409 435 412
822 2 2 3 7 414 435 409
823 2 2 3 7 417 418 410
824 2 2 3 7 418 420 410
825 2 2 3 7 420 449 410
826 2 2 3 7 411 446 414
827 2 2 3 7 427 430 411
828 2 2 3 7 430 446 411
829 2 2 3 7 412 426 425
830 2 2 3 7 412 472 426
831 2 2 3 7 435 472 412
832 2 2 3 7 413 461 415
833 2 2 3 7 413 460 441
834 2 2 3 7 414 470 435
835 2 2 3 7 446 448 414
836 2 2 3 7 448 470 414
837 2 2 3 7 415 461 416
838 2 2 3 7 416 433 421
839 2 2 3 7 416 437 433
840 2 2 3 7 416 461 437
841 2 2 3 7 417 450 418
842 2 2 3 7 419 450 417
843 2 2 3 7 418 458 420
844 2 2 3 7 450 466 418
845 2 2 3 7 418 466 458
846 2 2 3 7 423 455 419
847 2 2 3 7 419 473 450
848 2 2 3 7 455 473 419
849 2 2 3 7 420 458 451
850 2 2 3 7 421 433 422
851 2 2 3 7 432 436 422
852 2 2 3 7 424 455 423
853 2 2 3 7 425 426 424
854 2 2 3 7 426 471 424
855 2 2 3 7 424 471 455
856 2 2 3 7 426 452 442
857 2 2 3 7 442 471 426
858 2 2 3 7 426 472 452
859 2 2 3 7 428 447 427
860 2 2 3 7 427 447 430
861 2 2 3 7 429 431 428
862 2 2 3 7 431 434 428
863 2 2 3 7 434 447 428
864 2 2 3 7 429 436 432
865 2 2 3 7 444 446 430
866 2 2 3 7 431 453 434
867 2 2 3 7 431 462 453
868 2 2 3 7 437 463 433
869 2 2 3 7 445 447 434
870 2 2 3 7 435 470 454
871 2 2 3 7 439 456 448
872 2 2 3 7 439 469 456
873 2 2 3 7 450 473 440
874 2 2 3 7 457 458 443
875 2 2 3 7 458 466 443
876 2 2 3 7 462 474 453
877 2 2 2 6 14 546 133
878 2 2 2 6 132 546 14
879 2 2 2 6 137 547 15
880 2 2 2 6 15 547 138
881 2 2 2 6 13 545 121
882 2 2 2 6 475 545 13
883 2 2 2 6 16 544 479
884 2 2 2 6 149 544 16
885 2 2 2 6 133 490 134
886 2 2 2 6 133 546 490
887 2 2 2 6 134 518 135
888 2 2 2 6 490 518 134
889 2 2 2 6 135 487 136
890 2 2 2 6 135 518 487
891 2 2 2 6 136 492 137
892 2 2 2 6 487 492 136
893 2 2 2 6 492 547 137
894 2 2 2 6 121 535 122
895 2 2 2 6 121 545 535
896 2 2 2 6 122 488 123
897 2 2 2 6 122 535 488
898 2 2 2 6 123 534 124
899 2 2 2 6 488 534 123
900 2 2 2 6 124 483 125
901 2 2 2 6 124 534 483
902 2 2 2 6 125 533 126
903 2 2 2 6 483 533 125
904 2 2 2 6 126 521 127
905 2 2 2 6 126 533 521
906 2 2 2 6 127 485 128
907 2 2 2 6 127 521 485
908 2 2 2 6 128 526 129
909 2 2 2 6 485 526 128
910 2 2 2 6 129 480 130
911 2 2 2 6 129 526 480
912 2 2 2 6 130 523 131
913 2 2 2 6 480 523 130
914 2 2 2 6 131 536 132
915 2 2 2 6 523 536 131
916 2 2 2 6 536 546 132
917 2 2 2 6 476 519 475
918 2 2 2 6 519 545 475
919 2 2 2 6 477 486 476
920 2 2 2 6 486 519 476
921 2 2 2 6 478 520 477
922 2 2 2 6 477 520 486
923 2 2 2 6 479 491 478
924 2 2 2 6 491 520 478
925 2 2 2 6 479 544 491
926 2 2 2 6 148 550 149
927 2 2 2 6 149 550 544
928 2 2 2 6 147 541 148
929 2 2 2 6 541 550 148
930 2 2 2 6 146 481 147
931 2 2 2 6 481 541 147
932 2 2 2 6 145 538 146
933 2 2 2 6 146 538 481
934 2 2 2 6 144 524 145
935 2 2 2 6 524 538 145
936 2 2 2 6 143 482 144
937 2 2 2 6 482 524 144
938 2 2 2 6 142 522 143
939 2 2 2 6 143 522 482
940 2 2 2 6 141 484 142
941 2 2 2 6 484 522 142
942 2 2 2 6 140 525 141
943 2 2 2 6 141 525 484
944 2 2 2 6 139 489 140
945 2 2 2 6 489 525 140
946 2 2 2 6 138 537 139
947 2 2 2 6 139 537 489
948 2 2 2 6 138 547 537
949 2 2 2 6 480 543 523
950 2 2 2 6 526 529 480
951 2 2 2 6 529 543 480
952 2 2 2 6 509 510 481
953 2 2 2 6 481 538 509
954 2 2 2 6 510 515 481
955 2 2 2 6 515 541 481
956 2 2 2 6 522 539 482
957 2 2 2 6 482 539 524
958 2 2 2 6 483 534 514
959 2 2 2 6 514 552 483
960 2 2 2 6 483 552 533
961 2 2 2 6 484 525 498
962 2 2 2 6 498 542 484
963 2 2 2 6 484 542 522
964 2 2 2 6 521 549 485
965 2 2 2 6 485 551 526
966 2 2 2 6 485 549 532
967 2 2 2 6 532 551 485
968 2 2 2 6 486 528 519
969 2 2 2 6 520 527 486
970 2 2 2 6 527 528 486
971 2 2 2 6 487 493 492
972 2 2 2 6 487 494 493
973 2 2 2 6 487 518 494
974 2 2 2 6 488 535 528
975 2 2 2 6 528 548 488
976 2 2 2 6 488 548 534
977 2 2 2 6 489 537 493
978 2 2 2 6 493 540 489
979 2 2 2 6 489 540 525
980 2 2 2 6 490 531 518
981 2 2 2 6 490 536 531
982 2 2 2 6 490 546 536
983 2 2 2 6 516 520 491
984 2 2 2 6 491 530 516
985 2 2 2 6 491 550 530
986 2 2 2 6 544 550 491
987 2 2 2 6 493 537 492
988 2 2 2 6 537 547 492
989 2 2 2 6 494 495 493
990 2 2 2 6 495 540 493
991 2 2 2 6 494 496 495
992 2 2 2 6 494 531 496
993 2 2 2 6 518 531 494
994 2 2 2 6 496 497 495
995 2 2 2 6 497 498 495
996 2 2 2 6 498 540 495
997 2 2 2 6 496 529 497
998 2 2 2 6 496 543 529
999 2 2 2 6 531 543 496
1000 2 2 2 6 497 499 498
1001 2 2 2 6 497 500 499
1002 2 2 2 6 497 529 500
1003 2 2 2 6 499 542 498
1004 2 2 2 6 525 540 498
1005 2 2 2 6 500 501 499
1006 2 2 2 6 501 502 499
1007 2 2 2 6 502 542 499
1008 2 2 2 6 500 532 501
1009 2 2 2 6 529 551 500
1010 2 2 2 6 500 551 532
1011 2 2 2 6 501 503 502
1012 2 2 2 6 501 504 503
1013 2 2 2 6 501 532 504
1014 2 2 2 6 503 539 502
1015 2 2 2 6 502 539 522
1016 2 2 2 6 522 542 502
1017 2 2 2 6 504 505 503
1018 2 2 2 6 505 506 503
1019 2 2 2 6 506 539 503
1020 2 2 2 6 504 508 505
1021 2 2 2 6 504 549 508
1022 2 2 2 6 532 549 504
1023 2 2 2 6 505 507 506
1024 2 2 2 6 505 517 507
1025 2 2 2 6 508 517 505
1026 2 2 2 6 507 509 506
1027 2 2 2 6 509 524 506
1028 2 2 2 6 524 539 506
1029 2 2 2 6 507 510 509
1030 2 2 2 6 507 511 510
1031 2 2 2 6 507 517 511
1032 2 2 2 6 508 552 517
1033 2 2 2 6 521 533 508
1034 2 2 2 6 508 549 521
1035 2 2 2 6 533 552 508
1036 2 2 2 6 509 538 524
1037 2 2 2 6 511 512 510
1038 2 2 2 6 512 515 510
1039 2 2 2 6 511 513 512
1040 2 2 2 6 511 514 513
1041 2 2 2 6 511 517 514
1042 2 2 2 6 513 527 512
1043 2 2 2 6 512 516 515
1044 2 2 2 6 512 527 516
1045 2 2 2 6 514 548 513
1046 2 2 2 6 513 528 527
1047 2 2 2 6 513 548 528
1048 2 2 2 6 517 552 514
1049 2 2 2 6 534 548 514
1050 2 2 2 6 516 530 515
1051 2 2 2 6 530 541 515
1052 2 2 2 6 516 527 520
1053 2 2 2 6 528 535 519
1054 2 2 2 6 535 545 519
1055 2 2 2 6 531 536 523
1056 2 2 2 6 523 543 531
1057 2 2 2 6 526 551 529
1058 2 2 2 6 530 550 541
$EndElements
